SplineFontDB: 3.0
FontName: H1957Sans-Bold
FullName: H-1957 Sans Bold
FamilyName: H-1957 Sans
Weight: Bold
Copyright: Copyright 2014 by (URW)++ Design & Development.\nCopyright 2016 by Lapis Lazuli Texts.
Version: 1.00
ItalicAngle: 0
UnderlinePosition: -155
UnderlineWidth: 69
Ascent: 729
Descent: 271
LayerCount: 2
Layer: 0 0 "Back"  1
Layer: 1 0 "Fore"  0
FSType: 8
OS2Version: 0
OS2_WeightWidthSlopeOnly: 0
OS2_UseTypoMetrics: 0
CreationTime: 1464335511
ModificationTime: 1464666043
PfmFamily: 17
TTFWeight: 700
TTFWidth: 5
LineGap: 90
VLineGap: 0
OS2TypoAscent: 0
OS2TypoAOffset: 1
OS2TypoDescent: 0
OS2TypoDOffset: 1
OS2TypoLinegap: 90
OS2WinAscent: 0
OS2WinAOffset: 1
OS2WinDescent: 0
OS2WinDOffset: 1
HheadAscent: 0
HheadAOffset: 1
HheadDescent: 0
HheadDOffset: 1
OS2Vendor: 'PfEd'
MarkAttachClasses: 1
DEI: 91125
LangName: 1033 "" "" "" "LLT: H-1957 Sans: Bold" "" "" "" "" "" "" "" "https://github.com/yaoguai/H-1957-sans" "" "GNU AGPL, with font embedding exception" "" "" "H-1957 Sans" "Bold" 
Encoding: UnicodeBmp
UnicodeInterp: none
NameList: Adobe Glyph List
DisplaySize: -96
AntiAlias: 1
FitToEm: 1
WinInfo: 7767 9 3
BeginPrivate: 6
ForceBold 4 true
BlueValues 31 [-23 0 540 549 729 741 701 724]
StdHW 5 [126]
StdVW 5 [139]
StemSnapH 35 [61 68 73 78 95 99 106 113 118 122]
StemSnapV 37 [63 68 83 97 101 109 121 133 136 139]
EndPrivate
BeginChars: 65537 798

StartChar: exclam
Encoding: 33 33 1
Width: 333
Flags: MW
HStem: 0 146<112 262 112 262>
VStem: 112 150<0 146 0 146 516 726>
LayerCount: 2
Fore
SplineSet
262 726 m 1
 262 516 l 1
 220 207 l 1
 153 207 l 1
 112 516 l 1
 112 726 l 1
 262 726 l 1
262 146 m 1
 262 0 l 1
 112 0 l 1
 112 146 l 1
 262 146 l 1
EndSplineSet
EndChar

StartChar: quotedbl
Encoding: 34 34 2
Width: 474
Flags: MW
HStem: 470 259<90 146 90 90 326 326 326 382>
VStem: 50 138<599 729 599 729> 286 138<599 729 599 729>
LayerCount: 2
Fore
SplineSet
188 729 m 1
 188 599 l 1
 146 470 l 1
 90 470 l 1
 50 599 l 1
 50 729 l 1
 188 729 l 1
424 729 m 1
 424 599 l 1
 382 470 l 1
 326 470 l 1
 286 599 l 1
 286 729 l 1
 424 729 l 1
EndSplineSet
EndChar

StartChar: numbersign
Encoding: 35 35 3
Width: 556
Flags: MW
HStem: 172 99<3 80 3 100 3 186 205 289 413 513> 424 99<31 130 31 150 31 235 255 338 463 553>
LayerCount: 2
Fore
SplineSet
146 -32 m 1
 40 -32 l 1
 80 172 l 1
 3 172 l 1
 3 271 l 1
 100 271 l 1
 130 424 l 1
 31 424 l 1
 31 523 l 1
 150 523 l 1
 184 697 l 1
 289 697 l 1
 255 523 l 1
 358 523 l 1
 392 697 l 1
 497 697 l 1
 463 523 l 1
 553 523 l 1
 553 424 l 1
 444 424 l 1
 413 271 l 1
 513 271 l 1
 513 172 l 1
 394 172 l 1
 354 -32 l 1
 249 -32 l 1
 289 172 l 1
 186 172 l 1
 146 -32 l 1
205 271 m 1
 308 271 l 1
 338 424 l 1
 235 424 l 1
 205 271 l 1
EndSplineSet
EndChar

StartChar: dollar
Encoding: 36 36 4
Width: 556
Flags: MW
HStem: 0 20
VStem: 39 123<494 542 494 568> 243 68<-126 -21 -126 -21 86 282 427 608 709 763> 395 132<158 207>
LayerCount: 2
Fore
SplineSet
517 498 m 1
 389 498 l 1
 391 559 362 601 311 608 c 1
 311 407 l 1
 467 364 527 305 527 195 c 0
 527 119 495 55 441 20 c 0
 408 -1 366 -15 311 -21 c 1
 311 -126 l 1
 243 -126 l 1
 243 -21 l 1
 183 -15 146 -2 108 25 c 0
 52 66 22 125 22 198 c 2
 22 207 l 1
 153 207 l 1
 156 137 187 96 243 86 c 1
 243 299 l 1
 108 330 39 401 39 512 c 0
 39 624 114 697 243 709 c 1
 243 763 l 1
 311 763 l 1
 311 709 l 1
 437 702 515 623 517 498 c 1
243 427 m 1
 243 608 l 1
 188 597 162 568 162 516 c 0
 162 472 187 445 243 427 c 1
311 282 m 1
 311 86 l 1
 367 100 395 133 395 183 c 0
 395 231 367 265 311 282 c 1
EndSplineSet
EndChar

StartChar: percent
Encoding: 37 37 5
Width: 889
Flags: W
HStem: -20 20 -13 98<655.5 702 655.5 729.5> 253 99<655.5 703> 337 98<182.5 229.5 182.5 256.5> 602 99<182.5 230>
VStem: 22 99<495.5 542 495.5 569> 291 99<495 541.5> 495 99<146 192 146 220> 764 99<145.5 192>
LayerCount: 2
Fore
SplineSet
206 701 m 0x9f80
 309 701 390 620 390 517 c 0
 390 418 307 337 206 337 c 0
 105 337 22 419 22 519 c 0
 22 619 105 701 206 701 c 0x9f80
206 602 m 0
 159 602 121 565 121 519 c 0
 121 472 159 435 206 435 c 0
 253 435 291 472 291 518 c 0
 291 565 254 602 206 602 c 0
606 709 m 1
 682 709 l 1
 287 -20 l 1
 210 -20 l 1
 606 709 l 1
679 352 m 0x6780
 782 352 863 271 863 167 c 0
 863 69 780 -13 679 -13 c 0
 577 -13 495 69 495 170 c 0
 495 270 577 352 679 352 c 0x6780
679 253 m 0
 632 253 594 215 594 169 c 0
 594 123 632 85 679 85 c 0
 725 85 764 123 764 168 c 0
 764 216 727 253 679 253 c 0
EndSplineSet
EndChar

StartChar: ampersand
Encoding: 38 38 6
Width: 722
Flags: W
HStem: -23 116<267 309.5 267 326.5> 0 20 614 109<302.5 338>
VStem: 55 133<180 226.5 180 240> 130 132<553.5 580.5 553.5 603.5> 377 120<538 574.5>
LayerCount: 2
Fore
SplineSet
526 373 m 1xac
 639 373 l 1
 639 362 l 1
 639 357 l 1
 637 281 611 200 571 154 c 1
 694 0 l 1
 533 0 l 1x50
 487 56 l 1
 405 -5 361 -23 292 -23 c 0
 150 -23 55 63 55 193 c 0xb0
 55 287 95 340 212 401 c 1
 206 409 202 414 200 416 c 0
 190 428 181 439 172 450 c 0
 144 483 130 519 130 556 c 0
 130 651 212 723 319 723 c 0
 426 723 497 661 497 569 c 0
 497 495 469 453 380 392 c 1
 496 248 l 1
 518 290 526 319 526 363 c 2
 526 373 l 1xac
278 319 m 1xb0
 231 290 l 1
 204 272 188 243 188 210 c 0
 188 150 240 93 294 93 c 0
 325 93 367 112 414 148 c 1
 278 319 l 1xb0
317 470 m 1xac
 358 493 377 520 377 556 c 0
 377 593 356 614 320 614 c 0
 285 614 262 595 262 566 c 0
 262 541 267 532 317 470 c 1xac
EndSplineSet
EndChar

StartChar: quoteright
Encoding: 8217 8217 7
Width: 278
Flags: MW
HStem: 604 125<66 146 66 201>
VStem: 66 135<469 729 515 729 620 729 620 729 620 729>
LayerCount: 2
Fore
SplineSet
66 729 m 1
 201 729 l 1
 201 620 l 1
 205 533 154 477 66 469 c 1
 66 515 l 1
 122 525 148 554 146 604 c 1
 66 604 l 1
 66 729 l 1
EndSplineSet
EndChar

StartChar: parenleft
Encoding: 40 40 8
Width: 333
Flags: MW
HStem: 709 20<203 303 303 303>
VStem: 40 123<191 338.5 191 342>
LayerCount: 2
Fore
SplineSet
203 729 m 1
 303 729 l 1
 197 525 163 412 163 265 c 0
 163 117 196 6 303 -200 c 1
 203 -200 l 1
 88 -26 40 110 40 265 c 0
 40 419 88 555 203 729 c 1
EndSplineSet
EndChar

StartChar: parenright
Encoding: 41 41 9
Width: 333
Flags: MW
HStem: 709 20<22 122 122 122>
VStem: 162 123<190.5 338>
LayerCount: 2
Fore
SplineSet
122 -200 m 1
 22 -200 l 1
 128 4 162 117 162 264 c 0
 162 412 129 523 22 729 c 1
 122 729 l 1
 237 555 285 419 285 264 c 0
 285 110 237 -26 122 -200 c 1
EndSplineSet
EndChar

StartChar: asterisk
Encoding: 42 42 10
Width: 389
Flags: MW
HStem: 709 20<154 226 226 226>
VStem: 154 72<613 729 613 729>
LayerCount: 2
Fore
SplineSet
131 544 m 1
 23 580 l 1
 45 649 l 1
 154 613 l 1
 154 729 l 1
 226 729 l 1
 226 613 l 1
 334 649 l 1
 356 579 l 1
 248 544 l 1
 315 450 l 1
 257 407 l 1
 190 501 l 1
 122 407 l 1
 64 450 l 1
 131 544 l 1
EndSplineSet
EndChar

StartChar: plus
Encoding: 43 43 11
Width: 584
Flags: MW
HStem: -10 20 172 119<50 232 50 232 351 533>
VStem: 232 119<-10 172 -10 172 291 473>
LayerCount: 2
Fore
SplineSet
533 291 m 1
 533 172 l 1
 351 172 l 1
 351 -10 l 1
 232 -10 l 1
 232 172 l 1
 50 172 l 1
 50 291 l 1
 232 291 l 1
 232 473 l 1
 351 473 l 1
 351 291 l 1
 533 291 l 1
EndSplineSet
EndChar

StartChar: comma
Encoding: 44 44 12
Width: 278
Flags: MW
HStem: 0 146<64 150 64 214>
VStem: 64 150<-174 146 -118 146 9 146 9 146 9 146>
LayerCount: 2
Fore
SplineSet
64 146 m 1
 214 146 l 1
 214 9 l 1
 218 -101 171 -158 64 -174 c 1
 64 -118 l 1
 124 -107 152 -68 150 0 c 1
 64 0 l 1
 64 146 l 1
EndSplineSet
EndChar

StartChar: hyphen
Encoding: 45 45 13
Width: 333
Flags: MW
HStem: 207 135<26 298 26 298>
LayerCount: 2
Fore
SplineSet
298 342 m 1
 298 207 l 1
 26 207 l 1
 26 342 l 1
 298 342 l 1
EndSplineSet
EndChar

StartChar: period
Encoding: 46 46 14
Width: 278
Flags: MW
HStem: 0 146<64 214 64 214>
VStem: 64 150<0 146 0 146>
LayerCount: 2
Fore
SplineSet
214 146 m 1
 214 0 l 1
 64 0 l 1
 64 146 l 1
 214 146 l 1
EndSplineSet
EndChar

StartChar: slash
Encoding: 47 47 15
Width: 278
Flags: MW
HStem: -14 20
LayerCount: 2
Fore
SplineSet
208 714 m 1
 275 714 l 1
 69 -14 l 1
 2 -14 l 1
 208 714 l 1
EndSplineSet
EndChar

StartChar: zero
Encoding: 48 48 16
Width: 556
Flags: MW
HStem: -23 120<254.5 293 254.5 311.5> 611 113<253 291>
VStem: 29 140<303.5 393 303.5 419> 377 140<309 398>
LayerCount: 2
Fore
SplineSet
273 724 m 0
 356 724 425 687 467 619 c 0
 501 564 517 476 517 346 c 0
 517 213 497 122 457 67 c 0
 413 8 350 -23 273 -23 c 0
 190 -23 121 14 79 82 c 0
 45 136 29 224 29 350 c 0
 29 488 48 578 89 633 c 0
 132 692 197 724 273 724 c 0
273 611 m 0
 233 611 202 587 187 544 c 0
 176 515 169 435 169 351 c 0
 169 256 177 182 191 152 c 0
 208 116 236 97 273 97 c 0
 313 97 343 120 359 162 c 0
 370 191 377 269 377 349 c 0
 377 447 369 524 355 554 c 0
 338 591 309 611 273 611 c 0
EndSplineSet
EndChar

StartChar: one
Encoding: 49 49 17
Width: 556
Flags: MW
HStem: 0 20
VStem: 238 140<0 489 489 489>
LayerCount: 2
Fore
SplineSet
238 489 m 1
 68 489 l 1
 68 582 l 1
 190 582 263 625 285 709 c 1
 378 709 l 1
 378 0 l 1
 238 0 l 1
 238 489 l 1
EndSplineSet
EndChar

StartChar: two
Encoding: 50 50 18
Width: 556
Flags: MW
HStem: 0 125<211 512 211 512> 610 114<243 306>
VStem: 39 135<462 485 462 487 462 562> 375 140<456.5 531.5>
LayerCount: 2
Fore
SplineSet
512 125 m 1
 512 0 l 1
 30 0 l 1
 36 132 73 194 193 276 c 1
 351 388 375 417 375 496 c 0
 375 567 337 610 275 610 c 0
 211 610 174 564 174 485 c 2
 174 462 l 1
 39 462 l 1
 39 487 l 2
 39 637 125 724 272 724 c 0
 420 724 515 636 515 499 c 0
 515 402 479 349 356 259 c 0
 252 184 230 163 211 125 c 1
 512 125 l 1
EndSplineSet
EndChar

StartChar: three
Encoding: 51 51 19
Width: 556
Flags: W
HStem: -23 120<238 301.5 238 343.5> 611 113<244.5 293>
VStem: 353 140<498.5 547.5> 376 140<172.5 230>
LayerCount: 2
Fore
SplineSet
217 317 m 1xd0
 217 411 l 1
 229 411 l 2
 312 411 353 446 353 518 c 0
 353 577 321 611 265 611 c 0
 224 611 192 592 179 561 c 0
 172 543 169 524 168 486 c 1
 38 486 l 1
 38 545 42 568 55 602 c 0
 86 679 165 724 268 724 c 0
 405 724 493 649 493 531 c 0xe0
 493 466 465 421 400 380 c 1
 480 341 516 287 516 204 c 0
 516 66 419 -23 268 -23 c 0
 122 -23 30 66 29 208 c 1
 165 208 l 1
 169 135 205 97 271 97 c 0
 332 97 376 141 376 204 c 0
 376 256 346 297 299 310 c 0
 274 317 271 317 217 317 c 1xd0
EndSplineSet
EndChar

StartChar: four
Encoding: 52 52 20
Width: 556
Flags: MW
HStem: 0 20 157 116<123 308 123 308 24 308 448 522>
VStem: 308 140<0 157 0 157 273 576 576 576>
LayerCount: 2
Fore
SplineSet
522 273 m 1
 522 157 l 1
 448 157 l 1
 448 0 l 1
 308 0 l 1
 308 157 l 1
 24 157 l 1
 24 275 l 1
 283 709 l 1
 448 709 l 1
 448 273 l 1
 522 273 l 1
308 273 m 1
 308 576 l 1
 123 273 l 1
 308 273 l 1
EndSplineSet
EndChar

StartChar: five
Encoding: 53 53 21
Width: 556
Flags: MW
HStem: -23 120<232.5 298.5 232.5 337> 368 111<272.5 298.5> 584 125<196 489 196 196>
VStem: 377 140<189.5 274>
LayerCount: 2
Fore
SplineSet
489 709 m 1
 489 584 l 1
 196 584 l 1
 173 436 l 1
 214 467 249 479 296 479 c 0
 427 479 517 380 517 234 c 0
 517 81 413 -23 261 -23 c 0
 123 -23 29 61 27 185 c 1
 165 185 l 1
 168 128 202 97 263 97 c 0
 334 97 377 148 377 231 c 0
 377 317 334 368 263 368 c 0
 220 368 188 349 173 314 c 1
 47 314 l 1
 110 709 l 1
 489 709 l 1
EndSplineSet
EndChar

StartChar: six
Encoding: 54 54 22
Width: 556
Flags: MW
HStem: -23 120<246 309 246 352.5> 356 111<284 311> 611 113<265.5 312.5>
VStem: 32 138<187 401.5> 386 133<189.5 266.5>
LayerCount: 2
Fore
SplineSet
507 548 m 1
 377 548 l 1
 359 593 335 611 290 611 c 0
 241 611 207 585 188 533 c 0
 178 506 175 485 173 419 c 1
 172 404 l 1
 216 450 255 467 313 467 c 0
 435 467 519 373 519 237 c 0
 519 82 423 -23 282 -23 c 0
 198 -23 124 16 83 82 c 0
 47 139 32 215 32 337 c 0
 32 466 49 545 91 614 c 0
 134 685 206 724 294 724 c 0
 371 724 436 694 473 643 c 0
 491 617 500 594 507 548 c 1
278 356 m 0
 214 356 170 302 170 225 c 0
 170 149 214 97 278 97 c 0
 340 97 386 152 386 227 c 0
 386 306 344 356 278 356 c 0
EndSplineSet
EndChar

StartChar: seven
Encoding: 55 55 23
Width: 556
Flags: MW
HStem: 0 20 584 125<29 382 29 528>
LayerCount: 2
Fore
SplineSet
528 709 m 1
 528 599 l 1
 360 396 287 224 274 0 c 1
 133 0 l 1
 152 151 177 244 226 347 c 1
 254 409 339 538 382 584 c 1
 29 584 l 1
 29 709 l 1
 528 709 l 1
EndSplineSet
EndChar

StartChar: eight
Encoding: 56 56 24
Width: 556
Flags: W
HStem: -23 120<239 307 239 348> 330 95<243.5 305.5 243.5 307.5> 611 113<243.5 306>
VStem: 22 140<177 246> 46 123<497 546 491 587> 380 121<509 545.5> 385 140<176 246 137 247>
LayerCount: 2
Fore
SplineSet
409 386 m 1xec
 491 341 525 288 525 204 c 0
 525 70 422 -23 274 -23 c 0
 125 -23 22 70 22 204 c 0xf2
 22 288 56 341 138 386 c 1
 74 420 46 463 46 531 c 0
 46 643 142 724 274 724 c 0
 405 724 501 643 501 532 c 0
 501 486 484 443 455 416 c 0
 444 406 433 399 409 386 c 1xec
275 611 m 0
 212 611 169 573 169 519 c 0
 169 463 212 425 275 425 c 0
 336 425 380 464 380 518 c 0
 380 573 337 611 275 611 c 0
273 330 m 0xf2
 205 330 162 284 162 212 c 0
 162 142 205 97 273 97 c 0
 341 97 385 142 385 210 c 0
 385 284 342 330 273 330 c 0xf2
EndSplineSet
EndChar

StartChar: nine
Encoding: 57 57 25
Width: 556
Flags: MW
HStem: -24 120<234 298.5 234 300.5> 228 116<233 258> 610 114<231.5 297>
VStem: 28 133<435 517 435 548>
LayerCount: 2
Fore
SplineSet
38 165 m 1
 173 165 l 1
 176 123 209 96 259 96 c 0
 338 96 376 161 376 298 c 1
 353 272 345 263 332 254 c 0
 310 238 276 228 240 228 c 0
 114 228 28 328 28 474 c 0
 28 622 125 724 267 724 c 0
 352 724 422 684 467 608 c 0
 500 554 516 474 516 370 c 0
 516 256 494 149 457 86 c 0
 415 14 346 -24 255 -24 c 0
 133 -24 41 56 38 165 c 1
263 610 m 0
 200 610 161 558 161 476 c 0
 161 394 201 344 265 344 c 0
 330 344 373 396 373 474 c 0
 373 558 331 610 263 610 c 0
EndSplineSet
EndChar

StartChar: colon
Encoding: 58 58 26
Width: 333
Flags: MW
HStem: 0 146<113 263 113 263> 374 146<113 263 113 263>
VStem: 113 150<0 146 0 146 374 520>
LayerCount: 2
Fore
SplineSet
263 146 m 1
 263 0 l 1
 113 0 l 1
 113 146 l 1
 263 146 l 1
263 520 m 1
 263 374 l 1
 113 374 l 1
 113 520 l 1
 263 520 l 1
EndSplineSet
EndChar

StartChar: semicolon
Encoding: 59 59 27
Width: 333
Flags: MW
HStem: 0 146<113 199 113 263> 374 146<113 263 113 263>
VStem: 113 150<-174 146 -118 146 9 146 9 146 9 146 374 520>
LayerCount: 2
Fore
SplineSet
113 146 m 1
 263 146 l 1
 263 9 l 1
 267 -101 220 -158 113 -174 c 1
 113 -118 l 1
 173 -107 201 -68 199 0 c 1
 113 0 l 1
 113 146 l 1
263 520 m 1
 263 374 l 1
 113 374 l 1
 113 520 l 1
 263 520 l 1
EndSplineSet
EndChar

StartChar: less
Encoding: 60 60 28
Width: 584
Flags: MW
HStem: -10 20
LayerCount: 2
Fore
SplineSet
529 474 m 1
 529 365 l 1
 147 232 l 1
 529 101 l 1
 529 -10 l 1
 40 172 l 1
 40 293 l 1
 529 474 l 1
EndSplineSet
EndChar

StartChar: equal
Encoding: 61 61 29
Width: 584
Flags: MW
HStem: 52 119<50 534 50 534> 292 119<50 534 50 534>
LayerCount: 2
Fore
SplineSet
534 411 m 1
 534 292 l 1
 50 292 l 1
 50 411 l 1
 534 411 l 1
534 171 m 1
 534 52 l 1
 50 52 l 1
 50 171 l 1
 534 171 l 1
EndSplineSet
EndChar

StartChar: greater
Encoding: 62 62 30
Width: 584
Flags: MW
HStem: -10 20
LayerCount: 2
Fore
SplineSet
40 -10 m 1
 40 99 l 1
 422 232 l 1
 40 363 l 1
 40 474 l 1
 529 292 l 1
 529 171 l 1
 40 -10 l 1
EndSplineSet
EndChar

StartChar: question
Encoding: 63 63 31
Width: 611
Flags: MW
HStem: 0 146<235 385 235 385> 626 118<276.5 340.5>
VStem: 235 150<0 146 0 146> 415 141<488.5 544>
LayerCount: 2
Fore
SplineSet
369 201 m 1
 245 201 l 1
 242 286 265 331 345 399 c 0
 403 447 415 466 415 511 c 0
 415 577 370 626 311 626 c 0
 242 626 200 571 200 481 c 1
 64 481 l 1
 65 563 78 611 111 655 c 0
 154 714 221 744 307 744 c 0
 454 744 556 650 556 514 c 0
 556 430 529 386 436 320 c 0
 376 278 369 267 369 201 c 1
385 146 m 1
 385 0 l 1
 235 0 l 1
 235 146 l 1
 385 146 l 1
EndSplineSet
EndChar

StartChar: at
Encoding: 64 64 32
Width: 975
Flags: MW
HStem: -137 78<440.5 522 440.5 531.5> 56 81<418.5 449.5 682 714.5> 447 71<480 537> 668 77<453 560>
VStem: 27 97<216 316 216 320.5> 258 97<213.5 261> 858 89<341 408.5 313.5 410>
LayerCount: 2
Fore
SplineSet
644 508 m 1
 734 508 l 1
 656 228 l 2
 648 199 648 198 648 186 c 0
 648 156 667 137 697 137 c 0
 732 137 774 165 807 209 c 1
 840 255 858 312 858 370 c 0
 858 450 826 517 760 576 c 0
 690 638 609 668 511 668 c 0
 395 668 299 625 227 542 c 0
 162 467 124 366 124 266 c 0
 124 166 164 83 242 22 c 0
 309 -30 395 -59 486 -59 c 0
 558 -59 635 -44 693 -19 c 1
 721 -92 l 1
 651 -123 579 -137 484 -137 c 0
 357 -137 260 -107 178 -42 c 0
 84 32 27 145 27 260 c 0
 27 381 81 509 170 601 c 0
 262 696 380 745 515 745 c 0
 642 745 751 702 836 620 c 0
 912 546 947 462 947 355 c 0
 947 272 920 203 865 140 c 0
 817 86 757 56 697 56 c 0
 664 56 633 65 608 82 c 0
 588 96 580 106 572 131 c 1
 533 84 477 56 422 56 c 0
 331 56 258 132 258 227 c 0
 258 295 286 370 332 427 c 0
 377 484 446 518 514 518 c 0
 570 518 604 496 628 446 c 1
 644 508 l 1
511 447 m 0
 432 447 355 347 355 244 c 0
 355 183 393 137 444 137 c 0
 473 137 508 156 532 184 c 0
 569 227 595 294 595 345 c 0
 595 408 563 447 511 447 c 0
EndSplineSet
EndChar

StartChar: A
Encoding: 65 65 33
Width: 722
Flags: MW
HStem: 0 20 147 125<270 460 270 501 228 460> 709 20<285 451 451 451>
LayerCount: 2
Fore
SplineSet
501 147 m 1
 228 147 l 1
 179 0 l 1
 26 0 l 1
 285 729 l 1
 451 729 l 1
 703 0 l 1
 549 0 l 1
 501 147 l 1
460 272 m 1
 365 557 l 1
 270 272 l 1
 460 272 l 1
EndSplineSet
EndChar

StartChar: B
Encoding: 66 66 34
Width: 722
Flags: W
HStem: 0 125<232 410> 314 125<232 395 232 395 395 411> 604 125<232 232 232 395>
VStem: 82 150<125 314 439 604> 501 144<506 549> 522 144<188 246 180.5 250.5>
LayerCount: 2
Fore
SplineSet
82 0 m 1xf4
 82 729 l 1
 407 729 l 2
 485 729 536 713 579 676 c 0
 620 640 645 588 645 537 c 0xf8
 645 475 617 433 545 387 c 1
 628 339 666 282 666 210 c 0
 666 151 638 90 594 53 c 0
 550 16 494 0 410 0 c 2
 82 0 l 1xf4
232 604 m 1
 232 439 l 1
 395 439 l 2
 465 439 501 467 501 522 c 0
 501 576 465 604 395 604 c 2
 232 604 l 1
232 314 m 1
 232 125 l 1
 411 125 l 2
 484 125 522 157 522 219 c 0xf4
 522 282 484 314 411 314 c 2
 232 314 l 1
EndSplineSet
EndChar

StartChar: C
Encoding: 67 67 35
Width: 722
Flags: MW
HStem: -23 126<320 424.5 320 465> 613 128<324 426.5>
VStem: 44 150<276.5 436.5 276.5 476>
LayerCount: 2
Fore
SplineSet
682 482 m 1
 539 482 l 1
 519 571 470 613 383 613 c 0
 265 613 194 517 194 356 c 0
 194 197 262 103 378 103 c 0
 471 103 529 156 539 249 c 1
 685 249 l 1
 676 82 556 -23 374 -23 c 0
 171 -23 44 123 44 358 c 0
 44 594 172 741 378 741 c 0
 487 741 577 700 633 626 c 0
 664 585 677 545 682 482 c 1
EndSplineSet
EndChar

StartChar: D
Encoding: 68 68 36
Width: 722
Flags: MW
HStem: 0 125<227 362 227 362> 604 125<227 362 227 227>
VStem: 77 150<125 125 125 604> 531 150<308 421.5 308 444.5>
LayerCount: 2
Fore
SplineSet
77 0 m 1
 77 729 l 1
 362 729 l 2
 474 729 543 704 593 645 c 0
 650 576 681 478 681 365 c 0
 681 251 650 153 593 85 c 0
 543 26 473 0 362 0 c 2
 77 0 l 1
227 125 m 1
 362 125 l 2
 475 125 531 204 531 364 c 0
 531 525 475 604 362 604 c 2
 227 604 l 1
 227 125 l 1
EndSplineSet
EndChar

StartChar: E
Encoding: 69 69 37
Width: 667
Flags: MW
HStem: 0 125<229 624 229 624> 314 125<229 578 229 578> 604 125<229 606 229 229>
VStem: 79 150<125 314 125 439 439 604>
LayerCount: 2
Fore
SplineSet
229 314 m 1
 229 125 l 1
 624 125 l 1
 624 0 l 1
 79 0 l 1
 79 729 l 1
 606 729 l 1
 606 604 l 1
 229 604 l 1
 229 439 l 1
 578 439 l 1
 578 314 l 1
 229 314 l 1
EndSplineSet
EndChar

StartChar: F
Encoding: 70 70 38
Width: 611
Flags: MW
HStem: 0 20 314 125<224 543 224 543> 604 125<224 586 224 224>
VStem: 74 150<0 314 0 439 439 604>
LayerCount: 2
Fore
SplineSet
224 314 m 1
 224 0 l 1
 74 0 l 1
 74 729 l 1
 586 729 l 1
 586 604 l 1
 224 604 l 1
 224 439 l 1
 543 439 l 1
 543 314 l 1
 224 314 l 1
EndSplineSet
EndChar

StartChar: G
Encoding: 71 71 39
Width: 778
Flags: MW
HStem: -23 128<339 428.5 339 432> 267 125<419 585 419 711> 613 128<332 422>
VStem: 42 150<286 439.5 286 472.5>
LayerCount: 2
Fore
SplineSet
711 392 m 1
 711 -2 l 1
 621 -2 l 1
 603 94 l 1
 547 12 481 -23 383 -23 c 0
 186 -23 42 138 42 359 c 0
 42 586 185 741 395 741 c 0
 571 741 693 647 711 496 c 1
 570 496 l 1
 557 534 546 551 525 569 c 0
 492 598 448 613 396 613 c 0
 268 613 192 518 192 361 c 0
 192 211 278 105 400 105 c 0
 457 105 513 131 549 175 c 0
 571 201 581 226 585 267 c 1
 419 267 l 1
 419 392 l 1
 711 392 l 1
EndSplineSet
EndChar

StartChar: H
Encoding: 72 72 40
Width: 722
Flags: W
HStem: 0 20 331 125<218 506 218 507 218 506> 709 20<68 218 218 218 506 657 657 657>
VStem: 68 150<0 331 0 456 456 729> 506 151<456 729 0 729> 507 150<0 331 331 331>
LayerCount: 2
Fore
SplineSet
507 331 m 1xe4
 218 331 l 1
 218 0 l 1
 68 0 l 1
 68 729 l 1
 218 729 l 1
 218 456 l 1
 506 456 l 1
 506 729 l 1
 657 729 l 1
 657 0 l 1xf8
 507 0 l 1
 507 331 l 1xe4
EndSplineSet
EndChar

StartChar: I
Encoding: 73 73 41
Width: 278
Flags: MW
HStem: 0 20 709 20<63 213 213 213>
VStem: 63 150<0 729 0 729>
LayerCount: 2
Fore
SplineSet
213 729 m 1
 213 0 l 1
 63 0 l 1
 63 729 l 1
 213 729 l 1
EndSplineSet
EndChar

StartChar: J
Encoding: 74 74 42
Width: 556
Flags: MW
HStem: -23 128<226.5 281 226.5 326.5> 709 20<336 486 486 486>
VStem: 24 150<198 200 200 270 166.5 270> 336 150<190 729>
LayerCount: 2
Fore
SplineSet
336 729 m 1
 486 729 l 1
 486 190 l 2
 486 54 401 -23 252 -23 c 0
 183 -23 127 -3 85 35 c 0
 42 75 24 122 24 198 c 2
 24 270 l 1
 174 270 l 1
 174 200 l 2
 174 133 198 105 255 105 c 0
 307 105 336 135 336 190 c 2
 336 729 l 1
EndSplineSet
EndChar

StartChar: K
Encoding: 75 75 43
Width: 722
Flags: MW
HStem: 0 20 709 20<74 224 224 224 509 686 686 686>
VStem: 74 150<0 244 409 729>
LayerCount: 2
Fore
SplineSet
224 244 m 1
 224 0 l 1
 74 0 l 1
 74 729 l 1
 224 729 l 1
 224 409 l 1
 509 729 l 1
 686 729 l 1
 395 415 l 1
 717 0 l 1
 538 0 l 1
 299 322 l 1
 224 244 l 1
EndSplineSet
EndChar

StartChar: L
Encoding: 76 76 44
Width: 611
Flags: MW
HStem: 0 125<230 579 230 579> 709 20<80 230 230 230>
VStem: 80 150<125 729 125 729 125 729>
LayerCount: 2
Fore
SplineSet
230 729 m 1
 230 125 l 1
 579 125 l 1
 579 0 l 1
 80 0 l 1
 80 729 l 1
 230 729 l 1
EndSplineSet
EndChar

StartChar: M
Encoding: 77 77 45
Width: 833
Flags: MW
HStem: 0 20 709 20<66 290 290 290 550 776 776 776>
VStem: 66 150<0 568 0 729> 626 150<0 568 568 568>
LayerCount: 2
Fore
SplineSet
216 568 m 1
 216 0 l 1
 66 0 l 1
 66 729 l 1
 290 729 l 1
 422 149 l 1
 550 729 l 1
 776 729 l 1
 776 0 l 1
 626 0 l 1
 626 568 l 1
 497 0 l 1
 347 0 l 1
 216 568 l 1
EndSplineSet
EndChar

StartChar: N
Encoding: 78 78 46
Width: 722
Flags: MW
HStem: 0 20 709 20<68 222 222 222 511 661 661 661>
VStem: 68 150<0 504 0 729> 511 150<0 729 233 729 0 729>
LayerCount: 2
Fore
SplineSet
511 0 m 1
 218 504 l 1
 218 0 l 1
 68 0 l 1
 68 729 l 1
 222 729 l 1
 511 233 l 1
 511 729 l 1
 661 729 l 1
 661 0 l 1
 511 0 l 1
EndSplineSet
EndChar

StartChar: O
Encoding: 79 79 47
Width: 778
Flags: MW
HStem: -23 128<339 443> 613 128<339 443 339 452.5>
VStem: 40 150<304.5 413.5> 592 150<302.5 411 302.5 434>
LayerCount: 2
Fore
SplineSet
390 741 m 0
 496 741 576 709 640 640 c 0
 705 571 742 468 742 354 c 0
 742 251 703 145 640 78 c 0
 577 10 495 -23 391 -23 c 0
 287 -23 205 10 142 78 c 0
 77 147 40 250 40 359 c 0
 40 468 77 570 142 640 c 0
 204 707 288 741 390 741 c 0
391 613 m 0
 269 613 190 513 190 359 c 0
 190 205 269 105 391 105 c 0
 511 105 592 205 592 355 c 0
 592 513 514 613 391 613 c 0
EndSplineSet
EndChar

StartChar: P
Encoding: 80 80 48
Width: 667
Flags: MW
HStem: 0 20 260 125<226 366 226 366 366 406 226 413> 604 125<226 366 226 226>
VStem: 76 150<0 260 385 604> 483 150<457.5 532>
LayerCount: 2
Fore
SplineSet
226 260 m 1
 226 0 l 1
 76 0 l 1
 76 729 l 1
 398 729 l 2
 550 729 633 649 633 503 c 0
 633 355 547 260 413 260 c 2
 226 260 l 1
226 385 m 1
 366 385 l 2
 446 385 483 420 483 495 c 0
 483 569 446 604 366 604 c 2
 226 604 l 1
 226 385 l 1
EndSplineSet
EndChar

StartChar: Q
Encoding: 81 81 49
Width: 778
Flags: MW
HStem: -23 128<342 409 333 432> 613 128<342 446 342 455>
VStem: 43 150<304.5 413.5> 595 150<328 414.5>
LayerCount: 2
Fore
SplineSet
665 103 m 1
 745 27 l 1
 669 -54 l 1
 583 27 l 1
 525 -8 470 -23 394 -23 c 0
 290 -23 208 10 145 78 c 0
 81 147 43 250 43 359 c 0
 43 468 80 571 145 640 c 0
 208 708 290 741 394 741 c 0
 498 741 580 708 643 640 c 0
 707 571 745 468 745 361 c 0
 745 263 714 163 665 103 c 1
480 278 m 1
 562 200 l 1
 584 244 595 298 595 358 c 0
 595 513 516 613 394 613 c 0
 272 613 193 513 193 359 c 0
 193 206 273 105 393 105 c 0
 425 105 457 112 481 124 c 1
 404 197 l 1
 480 278 l 1
EndSplineSet
EndChar

StartChar: R
Encoding: 82 82 50
Width: 722
Flags: MW
HStem: 0 20 289 125<230 411 230 402> 604 125<230 411 230 230>
VStem: 80 150<0 289 414 604> 517 150<493.5 528>
LayerCount: 2
Fore
SplineSet
230 289 m 1
 230 0 l 1
 80 0 l 1
 80 729 l 1
 471 729 l 2
 533 729 579 713 612 679 c 0
 647 643 667 590 667 532 c 0
 667 443 626 384 544 352 c 1
 637 312 641 302 645 87 c 0
 645 55 654 40 677 27 c 1
 677 0 l 1
 516 0 l 1
 498 35 494 56 494 125 c 0
 494 136 494 154 495 173 c 1
 495 203 l 2
 495 263 467 289 402 289 c 2
 230 289 l 1
230 414 m 1
 411 414 l 2
 454 414 473 419 490 433 c 0
 508 448 517 476 517 511 c 0
 517 545 508 570 490 585 c 0
 471 600 454 604 411 604 c 2
 230 604 l 1
 230 414 l 1
EndSplineSet
EndChar

StartChar: S
Encoding: 83 83 51
Width: 667
Flags: MW
HStem: -23 120<291 387.5 291 428> 621 120<275 361.5>
VStem: 45 143<504.5 558.5 504.5 588> 489 144<164.5 224.5>
LayerCount: 2
Fore
SplineSet
607 507 m 1
 467 507 l 1
 462 581 409 621 314 621 c 0
 236 621 188 586 188 531 c 0
 188 478 219 457 326 436 c 2
 440 414 l 2
 575 388 633 328 633 213 c 0
 633 64 522 -23 334 -23 c 0
 148 -23 41 62 32 218 c 1
 178 218 l 1
 183 140 240 97 342 97 c 0
 433 97 489 134 489 195 c 0
 489 254 452 282 352 301 c 2
 250 321 l 1
 102 349 45 404 45 517 c 0
 45 659 146 741 321 741 c 0
 505 741 606 658 607 507 c 1
EndSplineSet
EndChar

StartChar: T
Encoding: 84 84 52
Width: 611
Flags: MW
HStem: 0 20 604 125<14 235 14 598 385 598 385 385>
VStem: 235 150<0 604 0 604>
LayerCount: 2
Fore
SplineSet
385 604 m 1
 385 0 l 1
 235 0 l 1
 235 604 l 1
 14 604 l 1
 14 729 l 1
 598 729 l 1
 598 604 l 1
 385 604 l 1
EndSplineSet
EndChar

StartChar: U
Encoding: 85 85 53
Width: 722
Flags: MW
HStem: -23 128<321 409> 709 20<76 226 226 226 504 654 654 654>
VStem: 76 150<235 729> 504 150<235 729>
LayerCount: 2
Fore
SplineSet
504 729 m 1
 654 729 l 1
 654 235 l 2
 654 153 632 95 583 51 c 0
 530 3 453 -23 365 -23 c 0
 277 -23 200 3 147 51 c 0
 98 95 76 153 76 235 c 2
 76 729 l 1
 226 729 l 1
 226 235 l 2
 226 147 271 105 365 105 c 0
 459 105 504 147 504 235 c 2
 504 729 l 1
EndSplineSet
EndChar

StartChar: V
Encoding: 86 86 54
Width: 667
Flags: MW
HStem: 0 20 709 20<24 175 175 175 496 647 647 647>
LayerCount: 2
Fore
SplineSet
397 0 m 1
 270 0 l 1
 24 729 l 1
 175 729 l 1
 337 180 l 1
 496 729 l 1
 647 729 l 1
 397 0 l 1
EndSplineSet
EndChar

StartChar: W
Encoding: 87 87 55
Width: 944
Flags: MW
HStem: 0 20 709 20<13 172 172 172 398 546 546 546 773 932 932 932>
LayerCount: 2
Fore
SplineSet
730 0 m 1
 595 0 l 1
 473 569 l 1
 354 0 l 1
 219 0 l 1
 13 729 l 1
 172 729 l 1
 285 183 l 1
 398 729 l 1
 546 729 l 1
 664 182 l 1
 773 729 l 1
 932 729 l 1
 730 0 l 1
EndSplineSet
EndChar

StartChar: X
Encoding: 88 88 56
Width: 667
Flags: MW
HStem: 0 20 709 20<30 208 208 208 470 644 644 644>
LayerCount: 2
Fore
SplineSet
419 372 m 1
 653 0 l 1
 475 0 l 1
 335 253 l 1
 196 0 l 1
 22 0 l 1
 252 367 l 1
 30 729 l 1
 208 729 l 1
 336 489 l 1
 470 729 l 1
 644 729 l 1
 419 372 l 1
EndSplineSet
EndChar

StartChar: Y
Encoding: 89 89 57
Width: 667
Flags: MW
HStem: 0 20 709 20<27 194 194 194 482 650 650 650>
VStem: 269 150<0 270 0 270>
LayerCount: 2
Fore
SplineSet
419 270 m 1
 419 0 l 1
 269 0 l 1
 269 270 l 1
 27 729 l 1
 194 729 l 1
 343 407 l 1
 482 729 l 1
 650 729 l 1
 419 270 l 1
EndSplineSet
EndChar

StartChar: Z
Encoding: 90 90 58
Width: 611
Flags: MW
HStem: 0 125<206 578 30 30> 604 125<30 403 30 578 30 578>
LayerCount: 2
Fore
SplineSet
578 729 m 1
 578 604 l 1
 206 125 l 1
 578 125 l 1
 578 0 l 1
 30 0 l 1
 30 125 l 1
 403 604 l 1
 30 604 l 1
 30 729 l 1
 578 729 l 1
EndSplineSet
EndChar

StartChar: bracketleft
Encoding: 91 91 59
Width: 333
Flags: MW
HStem: -200 102<196 308 196 308> 627 102<196 308 196 196>
VStem: 66 130<-98 627 -98 729 -98 729>
LayerCount: 2
Fore
SplineSet
308 729 m 1
 308 627 l 1
 196 627 l 1
 196 -98 l 1
 308 -98 l 1
 308 -200 l 1
 66 -200 l 1
 66 729 l 1
 308 729 l 1
EndSplineSet
EndChar

StartChar: backslash
Encoding: 92 92 60
Width: 278
Flags: MW
HStem: -14 20
LayerCount: 2
Fore
SplineSet
55 714 m 1
 289 -14 l 1
 222 -14 l 1
 -12 714 l 1
 55 714 l 1
EndSplineSet
EndChar

StartChar: bracketright
Encoding: 93 93 61
Width: 333
Flags: MW
HStem: -200 102<18 130 18 130 18 260> 627 102<18 130 18 260>
VStem: 130 130<-98 627 627 627>
LayerCount: 2
Fore
SplineSet
18 -200 m 1
 18 -98 l 1
 130 -98 l 1
 130 627 l 1
 18 627 l 1
 18 729 l 1
 260 729 l 1
 260 -200 l 1
 18 -200 l 1
EndSplineSet
EndChar

StartChar: asciicircum
Encoding: 94 94 62
Width: 584
Flags: W
LayerCount: 2
Fore
SplineSet
522 270 m 1
 409 270 l 1
 288 570 l 1
 173 270 l 1
 61 270 l 1
 226 695 l 1
 351 695 l 1
 522 270 l 1
EndSplineSet
EndChar

StartChar: underscore
Encoding: 95 95 63
Width: 556
Flags: MW
HStem: -189 69<-22 578 -22 578>
LayerCount: 2
Fore
SplineSet
578 -120 m 1
 578 -189 l 1
 -22 -189 l 1
 -22 -120 l 1
 578 -120 l 1
EndSplineSet
EndChar

StartChar: quoteleft
Encoding: 8216 8216 64
Width: 278
Flags: MW
HStem: 469 125<126 206 126 206 71 206> 709 20<206 206>
VStem: 71 135<469 578 578 578>
LayerCount: 2
Fore
SplineSet
206 469 m 1
 71 469 l 1
 71 578 l 1
 67 665 118 722 206 729 c 1
 206 683 l 1
 150 673 124 644 126 594 c 1
 206 594 l 1
 206 469 l 1
EndSplineSet
EndChar

StartChar: a
Encoding: 97 97 65
Width: 556
Flags: W
HStem: -23 113<220.5 222> 0 20 436 113<239.5 301>
VStem: 28 140<135 176 135 187.5> 355 137<217 255 255 255 373 383>
LayerCount: 2
Fore
SplineSet
524 17 m 1xb8
 524 0 l 1
 372 0 l 1x58
 359 16 356 26 356 54 c 1
 306 2 252 -23 192 -23 c 0
 93 -23 28 42 28 139 c 0
 28 236 80 291 187 309 c 1
 243 319 l 1
 312 330 312 330 331 340 c 0
 346 349 355 364 355 382 c 0
 355 418 328 436 274 436 c 0
 205 436 182 418 175 362 c 1
 40 362 l 1
 49 487 125 549 271 549 c 0
 417 549 492 493 492 383 c 2
 492 83 l 2
 492 56 500 40 524 17 c 1xb8
355 217 m 2x98
 355 255 l 1
 339 247 333 245 296 238 c 2
 248 229 l 1
 190 217 168 197 168 155 c 0
 168 115 197 90 244 90 c 0
 315 90 355 136 355 217 c 2x98
EndSplineSet
EndChar

StartChar: b
Encoding: 98 98 66
Width: 611
Flags: W
HStem: -23 117<314 352 281.5 412.5> 0 20 432 117<314 351.5> 709 20<59 199 199 199>
VStem: 59 140<0 55 213 314.5 470 729> 435 140<212.5 299.5 181.5 312>
LayerCount: 2
Fore
SplineSet
59 729 m 1x5c
 199 729 l 1
 199 470 l 1
 233 524 280 549 348 549 c 0
 414 549 480 515 517 462 c 0
 553 410 575 336 575 263 c 0
 575 100 477 -23 348 -23 c 0xbc
 280 -23 233 2 199 55 c 1
 199 0 l 1
 59 0 l 1
 59 729 l 1x5c
317 432 m 0
 247 432 199 364 199 265 c 0
 199 161 246 94 317 94 c 0
 387 94 435 163 435 262 c 0
 435 362 386 432 317 432 c 0
EndSplineSet
EndChar

StartChar: c
Encoding: 99 99 67
Width: 556
Flags: MW
HStem: -23 113<251.5 315 251.5 352.5> 436 113<268 316.5>
VStem: 34 140<206 285 206 351>
LayerCount: 2
Fore
SplineSet
522 338 m 1
 388 338 l 1
 372 409 345 436 288 436 c 0
 248 436 217 420 201 390 c 0
 184 358 174 311 174 259 c 0
 174 153 216 90 287 90 c 0
 343 90 371 117 388 187 c 1
 522 187 l 1
 509 58 418 -23 287 -23 c 0
 127 -23 34 81 34 259 c 0
 34 443 127 549 289 549 c 0
 425 549 512 470 522 338 c 1
EndSplineSet
EndChar

StartChar: d
Encoding: 100 100 68
Width: 611
Flags: W
HStem: -23 117<252 290> 0 20 432 117<252 290 191.5 322.5> 709 20<405 545 545 545>
VStem: 29 140<225.5 312.5 212.5 343.5> 405 140<0 55 55 55 211 312 470 729 0 729>
LayerCount: 2
Fore
SplineSet
405 0 m 1x7c
 405 55 l 1
 370 1 324 -23 256 -23 c 0x8c
 190 -23 124 10 87 63 c 0
 51 115 29 189 29 262 c 0
 29 425 127 549 256 549 c 0
 324 549 370 524 405 470 c 1
 405 729 l 1
 545 729 l 1
 545 0 l 1
 405 0 l 1x7c
287 432 m 0x6c
 217 432 169 363 169 262 c 0
 169 163 217 94 287 94 c 0xac
 357 94 405 162 405 260 c 0
 405 364 358 432 287 432 c 0x6c
EndSplineSet
EndChar

StartChar: e
Encoding: 101 101 69
Width: 556
Flags: MW
HStem: -23 107<254 299.5 254 329.5> 226 93<164 379 164 524 162 379> 442 107<239 302>
LayerCount: 2
Fore
SplineSet
524 226 m 1
 162 226 l 1
 164 175 169 151 182 131 c 0
 202 101 234 84 274 84 c 0
 325 84 364 109 381 152 c 1
 519 152 l 1
 488 45 390 -23 269 -23 c 0
 116 -23 22 83 22 256 c 0
 22 437 117 549 272 549 c 0
 381 549 468 490 504 392 c 0
 517 354 525 304 525 250 c 0
 525 243 525 238 524 226 c 1
164 319 m 1
 379 319 l 1
 372 399 334 442 270 442 c 0
 208 442 173 402 164 319 c 1
EndSplineSet
EndChar

StartChar: f
Encoding: 102 102 70
Width: 333
Flags: MW
HStem: 0 20 436 93<14 90 14 90 230 313> 624 105<181.5 274.5>
VStem: 90 140<0 436 0 436 529 582>
LayerCount: 2
Fore
SplineSet
313 529 m 1
 313 436 l 1
 230 436 l 1
 230 0 l 1
 90 0 l 1
 90 436 l 1
 14 436 l 1
 14 529 l 1
 90 529 l 1
 90 594 l 2
 90 685 135 729 228 729 c 0
 249 729 278 728 308 726 c 1
 308 621 l 1
 294 623 281 624 268 624 c 0
 242 624 230 610 230 582 c 2
 230 529 l 1
 313 529 l 1
EndSplineSet
EndChar

StartChar: g
Encoding: 103 103 71
Width: 611
Flags: W
HStem: -218 90<263 321 263 361> -23 117<254.5 287> 432 117<255.5 289.5 237 320> 520 20<400 533 533 533>
VStem: 41 140<210 304.5> 400 133<-18 55 55 55 457 540>
LayerCount: 2
Fore
SplineSet
400 540 m 1x1c
 533 540 l 1x1c
 533 -18 l 2
 533 -143 439 -218 283 -218 c 0
 207 -218 148 -201 105 -166 c 0
 68 -136 53 -107 52 -65 c 1
 196 -65 l 1
 207 -106 238 -128 288 -128 c 0
 354 -128 400 -83 400 -18 c 2
 400 55 l 1
 351 -4 316 -23 258 -23 c 0
 129 -23 41 91 41 257 c 0
 41 352 69 430 123 486 c 0
 160 525 213 549 261 549 c 0xec
 318 549 361 520 400 457 c 1
 400 540 l 1x1c
287 432 m 0x6c
 224 432 181 361 181 259 c 0
 181 161 224 94 285 94 c 0
 355 94 402 161 402 259 c 0
 402 359 353 432 287 432 c 0x6c
EndSplineSet
EndChar

StartChar: h
Encoding: 104 104 72
Width: 611
Flags: MW
HStem: 0 20 430 119<283.5 387.5> 709 20<67 207 207 207>
VStem: 67 140<0 324 462 729> 401 140<0 330 330 347>
LayerCount: 2
Fore
SplineSet
67 729 m 1
 207 729 l 1
 207 462 l 1
 246 522 296 549 365 549 c 0
 410 549 455 534 486 508 c 0
 523 477 541 429 541 362 c 2
 541 0 l 1
 401 0 l 1
 401 330 l 2
 401 364 398 379 385 397 c 0
 369 419 346 430 315 430 c 0
 252 430 207 386 207 324 c 2
 207 0 l 1
 67 0 l 1
 67 729 l 1
EndSplineSet
EndChar

StartChar: i
Encoding: 105 105 73
Width: 278
Flags: MW
HStem: 0 20 520 20<67 207 207 207> 604 125<67 207 67 207>
VStem: 67 140<0 540 0 540 604 729>
LayerCount: 2
Fore
SplineSet
207 540 m 1
 207 0 l 1
 67 0 l 1
 67 540 l 1
 207 540 l 1
207 729 m 1
 207 604 l 1
 67 604 l 1
 67 729 l 1
 207 729 l 1
EndSplineSet
EndChar

StartChar: j
Encoding: 106 106 74
Width: 278
Flags: MW
HStem: -218 20 520 20<70 210 210 210> 604 125<70 210 70 210>
VStem: 70 140<-63 540 604 729>
LayerCount: 2
Fore
SplineSet
210 540 m 1
 210 -94 l 2
 210 -182 174 -218 87 -218 c 0
 65 -218 31 -216 4 -213 c 1
 4 -101 l 1
 13 -104 20 -105 29 -105 c 0
 59 -105 70 -94 70 -63 c 2
 70 540 l 1
 210 540 l 1
210 729 m 1
 210 604 l 1
 70 604 l 1
 70 729 l 1
 210 729 l 1
EndSplineSet
EndChar

StartChar: k
Encoding: 107 107 75
Width: 556
Flags: MW
HStem: 0 20 520 20<376 535 535 535> 709 20<59 199 199 199>
VStem: 59 140<0 177 330 729>
LayerCount: 2
Fore
SplineSet
199 330 m 1
 376 540 l 1
 535 540 l 1
 351 336 l 1
 548 0 l 1
 384 0 l 1
 255 238 l 1
 199 177 l 1
 199 0 l 1
 59 0 l 1
 59 729 l 1
 199 729 l 1
 199 330 l 1
EndSplineSet
EndChar

StartChar: l
Encoding: 108 108 76
Width: 278
Flags: MW
HStem: 0 20 709 20<67 207 207 207>
VStem: 67 140<0 729 0 729>
LayerCount: 2
Fore
SplineSet
207 729 m 1
 207 0 l 1
 67 0 l 1
 67 729 l 1
 207 729 l 1
EndSplineSet
EndChar

StartChar: m
Encoding: 109 109 77
Width: 889
Flags: W
HStem: 0 20 430 119<316 319.5 617.5 631.5> 520 20<60 199 199 199>
VStem: 60 139<473 540 473 540 473 540> 60 140<0 324 0 540> 372 140<0 324 0 360 0 381.5> 684 140<0 360 360 381.5>
LayerCount: 2
Fore
SplineSet
60 540 m 1xae
 199 540 l 1
 199 473 l 1x30
 245 529 285 549 347 549 c 0
 414 549 468 520 494 469 c 1
 536 525 583 549 652 549 c 0
 760 549 824 487 824 382 c 2
 824 0 l 1
 684 0 l 1
 684 360 l 2
 684 403 655 430 608 430 c 0
 548 430 512 390 512 324 c 2
 512 0 l 1
 372 0 l 1
 372 360 l 2
 372 403 343 430 296 430 c 0xce
 236 430 200 391 200 324 c 2
 200 0 l 1
 60 0 l 1
 60 540 l 1xae
EndSplineSet
EndChar

StartChar: n
Encoding: 110 110 78
Width: 611
Flags: W
HStem: 0 20 430 119<328.5 346> 520 20<63 203 203 203>
VStem: 63 140<0 324 462 540> 406 140<0 333 333 362 0 365>
LayerCount: 2
Fore
SplineSet
63 540 m 1xb8
 203 540 l 1x38
 203 462 l 1
 243 523 292 549 365 549 c 0
 481 549 546 482 546 362 c 2
 546 0 l 1
 406 0 l 1
 406 333 l 2
 406 397 376 430 316 430 c 0xd8
 247 430 203 388 203 324 c 2
 203 0 l 1
 63 0 l 1
 63 540 l 1xb8
EndSplineSet
EndChar

StartChar: o
Encoding: 111 111 79
Width: 611
Flags: MW
HStem: -23 113<264 339.5 264 384.5> 436 113<264 340.5>
VStem: 35 140<211 315 211 351.5> 429 140<210.5 314>
LayerCount: 2
Fore
SplineSet
301 549 m 0
 470 549 569 442 569 259 c 0
 569 85 467 -23 302 -23 c 0
 136 -23 35 85 35 263 c 0
 35 440 136 549 301 549 c 0
302 436 m 0
 226 436 175 367 175 263 c 0
 175 159 226 90 302 90 c 0
 377 90 429 160 429 261 c 0
 429 367 379 436 302 436 c 0
EndSplineSet
EndChar

StartChar: p
Encoding: 112 112 80
Width: 611
Flags: W
HStem: -24 117<314 351 280.5 413> 432 117<314 351.5> 520 20<58 198 198 198>
VStem: 58 140<-218 64 211.5 313 460 540> 434 140<210.5 300 180 312>
LayerCount: 2
Fore
SplineSet
198 540 m 1xb8
 198 460 l 1
 232 520 280 549 348 549 c 0x58
 413 549 480 515 516 464 c 0
 552 414 574 338 574 262 c 0
 574 98 478 -24 348 -24 c 0
 280 -24 232 4 198 64 c 1
 198 -218 l 1
 58 -218 l 1
 58 540 l 1
 198 540 l 1xb8
316 432 m 0xd8
 245 432 198 364 198 262 c 0
 198 161 245 93 316 93 c 0
 386 93 434 161 434 260 c 0
 434 364 387 432 316 432 c 0xd8
EndSplineSet
EndChar

StartChar: q
Encoding: 113 113 81
Width: 611
Flags: W
HStem: -24 117<251 287> 432 117<251 287.5 189 322> 520 20<404 544 544 544>
VStem: 28 140<224 312.5 211.5 344.5> 404 140<-218 64 64 64 210 311.5 460 540 -218 540>
LayerCount: 2
Fore
SplineSet
404 540 m 1x38
 544 540 l 1x38
 544 -218 l 1
 404 -218 l 1
 404 64 l 1
 371 5 321 -24 253 -24 c 0
 189 -24 122 10 86 61 c 1
 50 110 28 186 28 262 c 0
 28 427 124 549 254 549 c 0xd8
 321 549 371 519 404 460 c 1
 404 540 l 1x38
286 432 m 0xd8
 216 432 168 363 168 262 c 0
 168 161 216 93 286 93 c 0
 356 93 404 161 404 259 c 0
 404 364 358 432 286 432 c 0xd8
EndSplineSet
EndChar

StartChar: r
Encoding: 114 114 82
Width: 389
Flags: W
HStem: 0 20 410 139<321 333.5> 520 20<63 203 203 203>
VStem: 63 140<0 287 434 540>
LayerCount: 2
Fore
SplineSet
63 540 m 1xb0
 203 540 l 1x30
 203 434 l 1
 234 507 289 549 353 549 c 0
 359 549 362 549 370 548 c 1
 370 406 l 1
 351 409 341 410 326 410 c 0x50
 244 410 203 369 203 287 c 2
 203 0 l 1
 63 0 l 1
 63 540 l 1xb0
EndSplineSet
EndChar

StartChar: s
Encoding: 115 115 83
Width: 556
Flags: MW
HStem: -23 110<257.5 308.5 257.5 321.5> 439 110<244.5 302.5>
VStem: 48 140<378 404 378 424.5> 380 140<133.5 151>
LayerCount: 2
Fore
SplineSet
505 366 m 1
 370 366 l 1
 369 415 336 439 269 439 c 0
 220 439 188 419 188 389 c 0
 188 367 198 359 237 347 c 2
 414 296 l 2
 485 275 520 230 520 160 c 0
 520 107 496 57 456 25 c 0
 416 -7 359 -23 284 -23 c 0
 120 -23 33 38 29 157 c 1
 166 157 l 1
 172 128 178 117 193 106 c 0
 211 93 239 87 276 87 c 0
 341 87 380 107 380 140 c 0
 380 162 368 173 333 184 c 2
 166 236 l 2
 114 253 97 262 78 281 c 1
 59 302 48 333 48 369 c 0
 48 480 133 549 270 549 c 0
 415 549 503 480 505 366 c 1
EndSplineSet
EndChar

StartChar: t
Encoding: 116 116 84
Width: 333
Flags: MW
HStem: -23 106<174 274.5> 436 93<14 83 14 83 223 301>
VStem: 83 140<118 142 142 436 529 674>
LayerCount: 2
Fore
SplineSet
301 529 m 1
 301 436 l 1
 223 436 l 1
 223 142 l 2
 223 94 232 83 269 83 c 0
 280 83 287 84 301 86 c 1
 301 -12 l 1
 275 -20 252 -23 220 -23 c 0
 128 -23 83 19 83 104 c 2
 83 436 l 1
 14 436 l 1
 14 529 l 1
 83 529 l 1
 83 674 l 1
 223 674 l 1
 223 529 l 1
 301 529 l 1
EndSplineSet
EndChar

StartChar: u
Encoding: 117 117 85
Width: 611
Flags: W
HStem: -23 119<258 275.5> 0 20 520 20<58 198 198 198 401 541 541 541>
VStem: 58 140<164 193 193 540> 401 140<0 64 64 64 202 540>
LayerCount: 2
Fore
SplineSet
541 0 m 1x78
 401 0 l 1x58
 401 64 l 1
 361 3 312 -23 239 -23 c 0
 123 -23 58 44 58 164 c 2
 58 540 l 1
 198 540 l 1
 198 193 l 2
 198 128 228 96 288 96 c 0xb8
 357 96 401 138 401 202 c 2
 401 540 l 1
 541 540 l 1
 541 0 l 1x78
EndSplineSet
EndChar

StartChar: v
Encoding: 118 118 86
Width: 556
Flags: MW
HStem: 0 20 520 20<14 162 162 162 388 536 536 536>
LayerCount: 2
Fore
SplineSet
350 0 m 1
 203 0 l 1
 14 540 l 1
 162 540 l 1
 279 145 l 1
 388 540 l 1
 536 540 l 1
 350 0 l 1
EndSplineSet
EndChar

StartChar: w
Encoding: 119 119 87
Width: 778
Flags: MW
HStem: 0 20 520 20<5 150 150 150 318 458 458 458 621 766 766 766>
LayerCount: 2
Fore
SplineSet
613 0 m 1
 468 0 l 1
 387 381 l 1
 301 0 l 1
 157 0 l 1
 5 540 l 1
 150 540 l 1
 236 162 l 1
 318 540 l 1
 458 540 l 1
 539 162 l 1
 621 540 l 1
 766 540 l 1
 613 0 l 1
EndSplineSet
EndChar

StartChar: x
Encoding: 120 120 88
Width: 556
Flags: MW
HStem: 0 20 520 20<20 188 188 188 363 531 531 531>
LayerCount: 2
Fore
SplineSet
355 272 m 1
 535 0 l 1
 367 0 l 1
 276 168 l 1
 184 0 l 1
 16 0 l 1
 196 272 l 1
 20 540 l 1
 188 540 l 1
 276 377 l 1
 363 540 l 1
 531 540 l 1
 355 272 l 1
EndSplineSet
EndChar

StartChar: y
Encoding: 121 121 89
Width: 556
Flags: MW
HStem: -219 103<127.5 149 117.5 154> 520 20<9 163 163 163 394 538 538 538>
LayerCount: 2
Fore
SplineSet
394 540 m 1
 538 540 l 1
 316 -99 l 2
 293 -164 276 -186 237 -202 c 0
 212 -212 172 -219 136 -219 c 0
 119 -219 107 -218 86 -215 c 1
 86 -110 l 1
 103 -114 112 -116 123 -116 c 0
 175 -116 210 -78 210 -22 c 1
 9 540 l 1
 163 540 l 1
 282 147 l 1
 394 540 l 1
EndSplineSet
EndChar

StartChar: z
Encoding: 122 122 90
Width: 500
Flags: MW
HStem: 0 113<194 468 21 21> 427 113<39 288 39 459 39 459>
LayerCount: 2
Fore
SplineSet
459 540 m 1
 459 427 l 1
 194 113 l 1
 468 113 l 1
 468 0 l 1
 21 0 l 1
 21 113 l 1
 288 427 l 1
 39 427 l 1
 39 540 l 1
 459 540 l 1
EndSplineSet
EndChar

StartChar: braceleft
Encoding: 123 123 91
Width: 389
Flags: MW
HStem: -200 99<280 317 280 317 241 317> 630 99<264.5 280 280 317>
VStem: 118 117<-36 150 150 150 378 573>
LayerCount: 2
Fore
SplineSet
317 729 m 1
 317 630 l 1
 280 630 l 2
 249 630 234 612 235 573 c 1
 235 378 l 2
 235 306 209 277 138 269 c 1
 209 260 235 231 235 159 c 2
 235 -36 l 1
 234 -82 246 -101 280 -101 c 2
 317 -101 l 1
 317 -200 l 1
 241 -200 l 1
 170 -201 116 -140 118 -60 c 1
 118 150 l 1
 119 207 100 224 37 223 c 1
 37 315 l 1
 41 315 l 1
 53 315 l 2
 98 315 119 336 118 378 c 1
 118 589 l 1
 117 669 170 730 241 729 c 1
 317 729 l 1
EndSplineSet
EndChar

StartChar: bar
Encoding: 124 124 92
Width: 280
Flags: MW
HStem: 709 20<100 180 180 180>
VStem: 100 80<-200 729 -200 729>
LayerCount: 2
Fore
SplineSet
180 729 m 1
 180 -200 l 1
 100 -200 l 1
 100 729 l 1
 180 729 l 1
EndSplineSet
EndChar

StartChar: braceright
Encoding: 125 125 93
Width: 389
Flags: MW
HStem: -200 99<72 109 72 109 109 124.5 72 148> 630 99<72 109 72 148>
VStem: 154 117<-44 151 -60 187 379 565 565 565>
LayerCount: 2
Fore
SplineSet
72 -200 m 1
 72 -101 l 1
 109 -101 l 2
 140 -101 155 -83 154 -44 c 1
 154 151 l 2
 154 223 180 252 251 260 c 1
 180 269 154 298 154 370 c 2
 154 565 l 1
 155 611 143 630 109 630 c 2
 72 630 l 1
 72 729 l 1
 148 729 l 1
 219 730 273 669 271 589 c 1
 271 379 l 1
 270 322 289 305 352 306 c 1
 352 214 l 1
 348 214 l 1
 336 214 l 2
 291 214 270 193 271 151 c 1
 271 -60 l 1
 272 -140 219 -201 148 -200 c 1
 72 -200 l 1
EndSplineSet
EndChar

StartChar: asciitilde
Encoding: 126 126 94
Width: 584
Flags: MW
HStem: 265 80<377.5 400 377.5 432> 357 80<179 201.5>
LayerCount: 2
Fore
SplineSet
441 411 m 1
 519 411 l 1
 513 313 472 265 392 265 c 0
 359 265 335 273 309 291 c 2
 252 333 l 2
 229 350 212 357 191 357 c 0
 167 357 151 348 143 330 c 0
 140 322 139 319 138 292 c 1
 60 292 l 1
 65 389 108 437 187 437 c 0
 220 437 246 429 270 412 c 2
 327 370 l 2
 353 350 367 345 388 345 c 0
 412 345 428 354 436 372 c 0
 439 380 440 384 441 411 c 1
EndSplineSet
EndChar

StartChar: exclamdown
Encoding: 161 161 95
Width: 333
Flags: MW
HStem: 394 146<66 216 66 216>
VStem: 66 150<-186 24 -186 24 394 540>
LayerCount: 2
Fore
SplineSet
66 -186 m 1
 66 24 l 1
 108 333 l 1
 175 333 l 1
 216 24 l 1
 216 -186 l 1
 66 -186 l 1
66 394 m 1
 66 540 l 1
 216 540 l 1
 216 394 l 1
 66 394 l 1
EndSplineSet
EndChar

StartChar: cent
Encoding: 162 162 96
Width: 556
Flags: MW
VStem: 37 140<213.5 309.5 213.5 345.5> 259 44<-123 -22 -124 -21 -124 -21 94 433 433 433 549 634>
LayerCount: 2
Fore
SplineSet
303 435 m 1
 303 91 l 1
 349 98 373 126 388 187 c 1
 522 187 l 1
 511 67 422 -18 303 -22 c 1
 303 -124 l 1
 259 -123 l 1
 259 -21 l 1
 120 -12 37 93 37 259 c 0
 37 432 115 533 259 548 c 1
 259 634 l 1
 303 634 l 1
 303 549 l 1
 426 547 514 462 522 338 c 1
 388 338 l 1
 375 400 350 428 303 435 c 1
259 94 m 1
 259 433 l 1
 206 420 177 359 177 260 c 0
 177 167 206 109 259 94 c 1
EndSplineSet
EndChar

StartChar: sterling
Encoding: 163 163 97
Width: 556
Flags: W
HStem: -23 125<382.5 407.5 382.5 416.5> 9 114<176 273> 316 55<31 91 31 120 31 91 253 375 253 253> 604 111<248.5 292.5>
VStem: 38 141<503.5 540 503.5 544.5> 141 127<228 243.5>
LayerCount: 2
Fore
SplineSet
375 371 m 1x78
 375 316 l 1
 253 316 l 1
 265 290 268 277 268 257 c 0
 268 199 237 153 152 86 c 1
 215 117 235 123 264 123 c 0x64
 282 123 289 122 328 112 c 0
 354 105 374 102 391 102 c 0
 424 102 456 111 496 131 c 1
 537 22 l 1
 481 -11 441 -23 392 -23 c 0x84
 365 -23 342 -19 293 -7 c 0
 244 5 222 9 195 9 c 0
 157 9 130 2 86 -21 c 1
 31 80 l 1
 114 136 141 173 141 231 c 0x74
 141 256 136 276 120 316 c 1
 31 316 l 1
 31 371 l 1
 91 371 l 1
 46 450 38 471 38 516 c 0
 38 573 66 629 112 666 c 1
 154 698 209 715 276 715 c 0
 380 715 458 676 494 605 c 0
 509 576 517 543 522 484 c 1
 390 484 l 1
 389 495 l 1
 383 541 375 559 354 577 c 0
 334 595 308 604 277 604 c 0
 220 604 179 566 179 514 c 0
 179 493 182 485 206 436 c 0
 225 398 230 385 236 371 c 1
 375 371 l 1x78
EndSplineSet
EndChar

StartChar: fraction
Encoding: 8260 8260 98
Width: 278
Flags: MW
HStem: -20 20
LayerCount: 2
Fore
SplineSet
305 715 m 1
 392 715 l 1
 -31 -20 l 1
 -118 -20 l 1
 305 715 l 1
EndSplineSet
EndChar

StartChar: yen
Encoding: 165 165 99
Width: 556
Flags: MW
HStem: 0 20 180 59<70 215 70 215 355 497> 292 59<70 208 70 215 70 208 360 497>
VStem: 215 140<0 180 0 180 239 292 0 292>
LayerCount: 2
Fore
SplineSet
497 351 m 1
 497 292 l 1
 355 292 l 1
 355 239 l 1
 497 239 l 1
 497 180 l 1
 355 180 l 1
 355 0 l 1
 215 0 l 1
 215 180 l 1
 70 180 l 1
 70 239 l 1
 215 239 l 1
 215 292 l 1
 70 292 l 1
 70 351 l 1
 208 351 l 1
 5 704 l 1
 144 704 l 1
 283 450 l 1
 417 704 l 1
 552 704 l 1
 360 351 l 1
 497 351 l 1
EndSplineSet
EndChar

StartChar: florin
Encoding: 402 402 100
Width: 556
Flags: MW
HStem: -220 116<95 120 94 136> 383 97<104 227 104 243 377 500> 628 116<440.5 455 386.5 468.5>
LayerCount: 2
Fore
SplineSet
500 480 m 1
 500 383 l 1
 363 383 l 1
 304 1 l 2
 291 -84 270 -138 236 -172 c 0
 207 -202 161 -220 111 -220 c 0
 79 -220 54 -214 21 -198 c 1
 45 -83 l 1
 69 -98 86 -104 102 -104 c 0
 138 -104 155 -76 168 7 c 2
 227 383 l 1
 104 383 l 1
 104 480 l 1
 243 480 l 1
 253 539 l 2
 277 681 334 744 439 744 c 0
 471 744 492 740 535 727 c 1
 515 612 l 1
 487 625 477 628 460 628 c 0
 421 628 396 593 384 521 c 2
 377 480 l 1
 500 480 l 1
EndSplineSet
EndChar

StartChar: section
Encoding: 167 167 101
Width: 556
Flags: W
HStem: -201 111<264 299.5 264 341> 0 20 621 102<248.5 291.5>
VStem: 33 118<301.5 311> 64 140<556.5 586 556.5 601> 353 141<-47 -20> 398 120<228.5 248>
LayerCount: 2
Fore
SplineSet
473 544 m 1xe8
 346 544 l 1
 339 597 315 621 268 621 c 0
 229 621 204 601 204 571 c 0
 204 542 223 524 294 485 c 2
 421 415 l 2
 488 378 518 330 518 262 c 0xea
 518 195 491 155 424 124 c 1
 471 91 494 47 494 -10 c 0
 494 -124 406 -201 276 -201 c 0
 137 -201 66 -133 65 0 c 1
 196 0 l 1
 196 -10 l 1
 198 -42 202 -56 215 -68 c 0
 229 -82 251 -90 277 -90 c 0
 322 -90 353 -65 353 -29 c 0
 353 -11 346 5 335 16 c 0
 324 26 324 26 283 49 c 2
 112 149 l 2
 61 179 33 226 33 281 c 0xf4
 33 341 53 373 125 428 c 1
 100 453 97 457 91 465 c 0
 74 487 64 520 64 551 c 0
 64 651 152 723 273 723 c 0
 351 723 416 695 447 647 c 0
 464 620 471 593 473 544 c 1xe8
337 306 m 2
 194 382 l 1
 164 364 151 346 151 317 c 0xf0
 151 286 163 270 205 247 c 2
 352 167 l 1
 386 191 398 209 398 232 c 0
 398 264 384 281 337 306 c 2
EndSplineSet
EndChar

StartChar: currency
Encoding: 164 164 102
Width: 556
Flags: MW
HStem: 147 98<266 304.5> 460 98<262.5 300 262.5 309>
VStem: 76 96<332.5 371> 386 96<334.5 373 334.5 382>
LayerCount: 2
Fore
SplineSet
388 528 m 1
 461 601 l 1
 530 532 l 1
 455 457 l 1
 476 416 482 392 482 354 c 0
 482 315 473 281 453 246 c 1
 530 170 l 1
 461 102 l 1
 386 177 l 1
 339 152 323 147 286 147 c 0
 246 147 202 159 175 178 c 1
 96 100 l 1
 28 169 l 1
 106 246 l 1
 84 286 76 313 76 352 c 0
 76 390 86 427 105 457 c 1
 26 536 l 1
 95 604 l 1
 172 527 l 1
 203 546 244 558 281 558 c 0
 319 558 359 547 388 528 c 1
280 460 m 0
 220 460 172 413 172 352 c 0
 172 293 220 245 279 245 c 0
 338 245 386 293 386 353 c 0
 386 411 338 460 280 460 c 0
EndSplineSet
EndChar

StartChar: quotesingle
Encoding: 39 39 103
Width: 238
Flags: MW
HStem: 470 259<90 146 90 90>
VStem: 50 138<599 729 599 729>
LayerCount: 2
Fore
SplineSet
188 729 m 1
 188 599 l 1
 146 470 l 1
 90 470 l 1
 50 599 l 1
 50 729 l 1
 188 729 l 1
EndSplineSet
EndChar

StartChar: quotedblleft
Encoding: 8220 8220 104
Width: 500
Flags: MW
HStem: 469 125<130 210 130 210 75 210 130 302 357 437> 709 20<210 210 437 437>
VStem: 75 135<469 578 578 578> 302 135<469 578 578 578>
LayerCount: 2
Fore
SplineSet
210 469 m 1
 75 469 l 1
 75 578 l 1
 71 665 122 722 210 729 c 1
 210 683 l 1
 154 673 128 644 130 594 c 1
 210 594 l 1
 210 469 l 1
437 469 m 1
 302 469 l 1
 302 578 l 1
 298 665 349 722 437 729 c 1
 437 683 l 1
 381 673 355 644 357 594 c 1
 437 594 l 1
 437 469 l 1
EndSplineSet
EndChar

StartChar: guillemotleft
Encoding: 171 171 105
Width: 556
Flags: W
LayerCount: 2
Fore
SplineSet
88 218 m 1
 88 332 l 1
 255 481 l 1
 255 364 l 1
 154 275 l 1
 255 186 l 1
 255 72 l 1
 88 218 l 1
301 218 m 1
 301 332 l 1
 468 481 l 1
 468 364 l 1
 367 275 l 1
 468 186 l 1
 468 72 l 1
 301 218 l 1
EndSplineSet
EndChar

StartChar: guilsinglleft
Encoding: 8249 8249 106
Width: 333
Flags: W
LayerCount: 2
Fore
SplineSet
83 218 m 1
 83 332 l 1
 250 481 l 1
 250 364 l 1
 149 275 l 1
 250 186 l 1
 250 72 l 1
 83 218 l 1
EndSplineSet
EndChar

StartChar: guilsinglright
Encoding: 8250 8250 107
Width: 333
Flags: W
LayerCount: 2
Fore
SplineSet
247 335 m 1
 247 220 l 1
 80 72 l 1
 80 189 l 1
 181 278 l 1
 80 367 l 1
 80 481 l 1
 247 335 l 1
EndSplineSet
EndChar

StartChar: fi
Encoding: 64257 64257 108
Width: 611
Flags: W
HStem: 0 20 436 93<14 90 14 90 230 313> 520 20<400 540 540 540> 604 125<400 540> 624 105<181.5 274.5>
VStem: 90 140<0 436 0 436 529 582> 400 140<0 540 0 540 604 729>
LayerCount: 2
Fore
SplineSet
313 529 m 1xce
 313 436 l 1
 230 436 l 1
 230 0 l 1
 90 0 l 1
 90 436 l 1
 14 436 l 1
 14 529 l 1
 90 529 l 1
 90 594 l 2
 90 685 135 729 228 729 c 0
 249 729 278 728 308 726 c 1
 308 621 l 1
 294 623 281 624 268 624 c 0
 242 624 230 610 230 582 c 2
 230 529 l 1
 313 529 l 1xce
540 540 m 1xb6
 540 0 l 1
 400 0 l 1
 400 540 l 1
 540 540 l 1xb6
540 729 m 1
 540 604 l 1
 400 604 l 1
 400 729 l 1
 540 729 l 1
EndSplineSet
EndChar

StartChar: fl
Encoding: 64258 64258 109
Width: 611
Flags: MW
HStem: 0 20 436 93<14 90 14 90 230 313> 624 105<181.5 274.5>
VStem: 90 140<0 436 0 436 529 582> 400 140<0 729 0 729>
LayerCount: 2
Fore
SplineSet
313 529 m 1
 313 436 l 1
 230 436 l 1
 230 0 l 1
 90 0 l 1
 90 436 l 1
 14 436 l 1
 14 529 l 1
 90 529 l 1
 90 594 l 2
 90 685 135 729 228 729 c 0
 249 729 278 728 308 726 c 1
 308 621 l 1
 294 623 281 624 268 624 c 0
 242 624 230 610 230 582 c 2
 230 529 l 1
 313 529 l 1
540 729 m 1
 540 0 l 1
 400 0 l 1
 400 729 l 1
 540 729 l 1
EndSplineSet
EndChar

StartChar: endash
Encoding: 8211 8211 110
Width: 556
Flags: MW
HStem: 207 104<-9 557 -9 557>
LayerCount: 2
Fore
SplineSet
557 311 m 1
 557 207 l 1
 -9 207 l 1
 -9 311 l 1
 557 311 l 1
EndSplineSet
EndChar

StartChar: dagger
Encoding: 8224 8224 111
Width: 556
Flags: MW
HStem: 369 116<31 210 31 210 344 523>
VStem: 210 134<-194 369 -194 369 485 709>
LayerCount: 2
Fore
SplineSet
523 485 m 1
 523 369 l 1
 344 369 l 1
 344 -194 l 1
 210 -194 l 1
 210 369 l 1
 31 369 l 1
 31 485 l 1
 210 485 l 1
 210 709 l 1
 344 709 l 1
 344 485 l 1
 523 485 l 1
EndSplineSet
EndChar

StartChar: daggerdbl
Encoding: 8225 8225 112
Width: 556
Flags: MW
HStem: 30 116<28 207 28 207 341 520> 369 116<28 207 28 207 341 520>
VStem: 207 134<-194 30 -194 30 146 369 485 709>
LayerCount: 2
Fore
SplineSet
520 485 m 1
 520 369 l 1
 341 369 l 1
 341 146 l 1
 520 146 l 1
 520 30 l 1
 341 30 l 1
 341 -194 l 1
 207 -194 l 1
 207 30 l 1
 28 30 l 1
 28 146 l 1
 207 146 l 1
 207 369 l 1
 28 369 l 1
 28 485 l 1
 207 485 l 1
 207 709 l 1
 341 709 l 1
 341 485 l 1
 520 485 l 1
EndSplineSet
EndChar

StartChar: periodcentered
Encoding: 183 183 113
Width: 278
Flags: MW
HStem: 169 123<64 188 64 188>
VStem: 64 124<169 292 169 292>
LayerCount: 2
Fore
SplineSet
64 292 m 1
 188 292 l 1
 188 169 l 1
 64 169 l 1
 64 292 l 1
EndSplineSet
EndChar

StartChar: paragraph
Encoding: 182 182 114
Width: 556
Flags: MW
HStem: 657 72<325 388 325 325 486 529 486 486>
VStem: 227 98<-191 267 267 267> 388 98<-191 657 -191 657>
LayerCount: 2
Fore
SplineSet
529 729 m 1
 529 657 l 1
 486 657 l 1
 486 -191 l 1
 388 -191 l 1
 388 657 l 1
 325 657 l 1
 325 -191 l 1
 227 -191 l 1
 227 267 l 1
 105 273 20 366 20 495 c 0
 20 550 38 606 71 650 c 1
 109 703 161 729 226 729 c 2
 529 729 l 1
EndSplineSet
EndChar

StartChar: bullet
Encoding: 8226 8226 115
Width: 350
Flags: MW
HStem: 175 250<141.5 209.5>
VStem: 50 250<265.5 334.5 265.5 335>
LayerCount: 2
Fore
SplineSet
177 425 m 0
 244 425 300 369 300 300 c 0
 300 231 244 175 175 175 c 0
 106 175 50 231 50 300 c 0
 50 370 106 425 177 425 c 0
EndSplineSet
EndChar

StartChar: quotesinglbase
Encoding: 8218 8218 116
Width: 278
Flags: MW
HStem: 0 125<66 146 66 201>
VStem: 66 135<-135 125 -89 125 16 125 16 125 16 125>
LayerCount: 2
Fore
SplineSet
66 125 m 1
 201 125 l 1
 201 16 l 1
 205 -71 154 -127 66 -135 c 1
 66 -89 l 1
 122 -79 148 -50 146 0 c 1
 66 0 l 1
 66 125 l 1
EndSplineSet
EndChar

StartChar: quotedblbase
Encoding: 8222 8222 117
Width: 500
Flags: MW
HStem: 0 125<72 152 72 207 72 297 297 377>
VStem: 72 135<-135 125 -89 125 16 125 16 125 16 125> 297 135<-135 125 -89 125 16 125 16 125 16 125>
LayerCount: 2
Fore
SplineSet
72 125 m 1
 207 125 l 1
 207 16 l 1
 211 -71 160 -127 72 -135 c 1
 72 -89 l 1
 128 -79 154 -50 152 0 c 1
 72 0 l 1
 72 125 l 1
297 125 m 1
 432 125 l 1
 432 16 l 1
 436 -71 385 -127 297 -135 c 1
 297 -89 l 1
 353 -79 379 -50 377 0 c 1
 297 0 l 1
 297 125 l 1
EndSplineSet
EndChar

StartChar: quotedblright
Encoding: 8221 8221 118
Width: 500
Flags: MW
HStem: 604 125<73 153 73 208 73 305 305 385>
VStem: 73 135<469 729 515 729 620 729 620 729 620 729> 305 135<469 729 515 729 620 729 620 729 620 729>
LayerCount: 2
Fore
SplineSet
73 729 m 1
 208 729 l 1
 208 620 l 1
 212 533 161 477 73 469 c 1
 73 515 l 1
 129 525 155 554 153 604 c 1
 73 604 l 1
 73 729 l 1
305 729 m 1
 440 729 l 1
 440 620 l 1
 444 533 393 477 305 469 c 1
 305 515 l 1
 361 525 387 554 385 604 c 1
 305 604 l 1
 305 729 l 1
EndSplineSet
EndChar

StartChar: guillemotright
Encoding: 187 187 119
Width: 556
Flags: W
LayerCount: 2
Fore
SplineSet
255 335 m 1
 255 220 l 1
 88 72 l 1
 88 189 l 1
 189 278 l 1
 88 367 l 1
 88 481 l 1
 255 335 l 1
462 335 m 1
 462 220 l 1
 295 72 l 1
 295 189 l 1
 396 278 l 1
 295 367 l 1
 295 481 l 1
 462 335 l 1
EndSplineSet
EndChar

StartChar: ellipsis
Encoding: 8230 8230 120
Width: 1000
Flags: MW
HStem: 0 146<92 242 92 242 425 575 758 908>
VStem: 92 150<0 146 0 146> 425 150<0 146 0 146> 758 150<0 146 0 146>
LayerCount: 2
Fore
SplineSet
242 146 m 1
 242 0 l 1
 92 0 l 1
 92 146 l 1
 242 146 l 1
575 146 m 1
 575 0 l 1
 425 0 l 1
 425 146 l 1
 575 146 l 1
908 146 m 1
 908 0 l 1
 758 0 l 1
 758 146 l 1
 908 146 l 1
EndSplineSet
EndChar

StartChar: perthousand
Encoding: 8240 8240 121
Width: 1000
Flags: MW
HStem: -22 77<452.5 491 452.5 512.5 821.5 860> 194 80<452 491 820.5 860> 443 77<141 179.5 141 201.5> 659 80<140.5 180>
VStem: 11 79<570.5 609 570.5 632> 231 79<570 608.5> 322 79<105.5 144 105.5 166.5> 542 79<105 143.5> 691 79<105.5 144 105.5 167> 911 79<105 143.5>
LayerCount: 2
Fore
SplineSet
160 739 m 0
 244 739 310 673 310 589 c 0
 310 509 242 443 161 443 c 0
 78 443 11 509 11 591 c 0
 11 673 78 739 160 739 c 0
160 659 m 0
 121 659 90 628 90 590 c 0
 90 551 122 520 160 520 c 0
 199 520 231 551 231 589 c 0
 231 628 200 659 160 659 c 0
496 738 m 1
 563 738 l 1
 142 -21 l 1
 76 -21 l 1
 496 738 l 1
471 274 m 0
 555 274 621 208 621 124 c 0
 621 44 553 -22 472 -22 c 0
 389 -22 322 44 322 126 c 0
 322 207 389 274 471 274 c 0
471 194 m 0
 433 194 401 163 401 125 c 0
 401 86 433 55 472 55 c 0
 510 55 542 86 542 124 c 0
 542 163 511 194 471 194 c 0
840 274 m 0
 924 274 990 208 990 124 c 0
 990 44 922 -22 841 -22 c 0
 758 -22 691 44 691 126 c 0
 691 208 758 274 840 274 c 0
840 194 m 0
 801 194 770 163 770 125 c 0
 770 86 802 55 841 55 c 0
 879 55 911 86 911 124 c 0
 911 163 880 194 840 194 c 0
EndSplineSet
EndChar

StartChar: questiondown
Encoding: 191 191 122
Width: 611
Flags: MW
HStem: -204 118<267 331.5 267 344> 394 146<223 373 223 373>
VStem: 51 141<-4 51.5 -4 68> 223 150<394 540 394 540>
LayerCount: 2
Fore
SplineSet
239 339 m 1
 363 339 l 1
 366 254 343 209 263 141 c 1
 204 93 192 74 192 29 c 0
 192 -37 237 -86 297 -86 c 0
 366 -86 408 -31 408 59 c 1
 544 59 l 1
 543 -23 530 -71 497 -115 c 0
 454 -174 387 -204 301 -204 c 0
 153 -204 51 -110 51 26 c 0
 51 110 78 154 172 220 c 0
 232 262 239 274 239 339 c 1
223 394 m 1
 223 540 l 1
 373 540 l 1
 373 394 l 1
 223 394 l 1
EndSplineSet
EndChar

StartChar: grave
Encoding: 96 96 123
Width: 333
Flags: W
LayerCount: 2
Fore
SplineSet
17 757 m 1
 143 757 l 1
 213 607 l 1
 143 607 l 1
 17 757 l 1
EndSplineSet
EndChar

StartChar: acute
Encoding: 180 180 124
Width: 333
Flags: W
LayerCount: 2
Fore
SplineSet
317 757 m 1
 191 607 l 1
 121 607 l 1
 191 757 l 1
 317 757 l 1
EndSplineSet
EndChar

StartChar: circumflex
Encoding: 710 710 125
Width: 333
Flags: W
LayerCount: 2
Fore
SplineSet
116 757 m 1
 223 757 l 1
 326 607 l 1
 248 607 l 1
 166 707 l 1
 84 607 l 1
 8 607 l 1
 116 757 l 1
EndSplineSet
EndChar

StartChar: tilde
Encoding: 732 732 126
Width: 333
Flags: W
HStem: 622 79<242.5 256.5 242.5 279.5> 666 79<82 94.5 57.5 98.5> 729 20<282 345 345 345>
LayerCount: 2
Fore
SplineSet
282 749 m 1xa0
 345 749 l 1
 341 664 309 622 250 622 c 0xa0
 235 622 216 626 195 634 c 2
 124 660 l 2
 113 664 103 666 94 666 c 0
 70 666 59 653 54 621 c 1
 -9 621 l 1
 -5 699 30 745 85 745 c 0x40
 104 745 105 745 141 732 c 2
 212 707 l 2
 219 704 239 701 246 701 c 0
 267 701 279 717 282 749 c 1xa0
EndSplineSet
EndChar

StartChar: macron
Encoding: 175 175 127
Width: 333
Flags: MW
HStem: 640 79<16 315 16 315>
LayerCount: 2
Fore
SplineSet
315 719 m 1
 315 640 l 1
 16 640 l 1
 16 719 l 1
 315 719 l 1
EndSplineSet
EndChar

StartChar: breve
Encoding: 728 728 128
Width: 333
Flags: MW
HStem: 605 77<145 190 145 204.5> 728 20<35 91 91 91 243 299 299 299>
LayerCount: 2
Fore
SplineSet
299 748 m 1
 299 737 l 2
 299 662 242 605 167 605 c 0
 91 605 35 662 35 738 c 2
 35 748 l 1
 91 748 l 1
 97 703 122 682 168 682 c 0
 212 682 234 702 243 748 c 1
 299 748 l 1
EndSplineSet
EndChar

StartChar: dotaccent
Encoding: 729 729 129
Width: 333
Flags: MW
HStem: 621 122<112 222 112 222>
VStem: 112 110<621 743 621 743>
LayerCount: 2
Fore
SplineSet
222 743 m 1
 222 621 l 1
 112 621 l 1
 112 743 l 1
 222 743 l 1
EndSplineSet
EndChar

StartChar: dieresis
Encoding: 168 168 130
Width: 333
Flags: MW
HStem: 621 122<18 128 18 128 18 204 204 314>
VStem: 18 110<621 743 621 743> 204 110<621 743 621 743>
LayerCount: 2
Fore
SplineSet
128 743 m 1
 128 621 l 1
 18 621 l 1
 18 743 l 1
 128 743 l 1
314 743 m 1
 314 621 l 1
 204 621 l 1
 204 743 l 1
 314 743 l 1
EndSplineSet
EndChar

StartChar: ring
Encoding: 730 730 131
Width: 333
Flags: MW
HStem: 590 48<156 179 156 191.5> 722 48<156 179.5>
VStem: 77 48<668.5 692 668.5 705.5> 209 48<668.5 692>
LayerCount: 2
Fore
SplineSet
168 770 m 0
 218 770 257 731 257 679 c 0
 257 630 216 590 167 590 c 0
 117 590 77 630 77 680 c 0
 77 731 117 770 168 770 c 0
168 722 m 0
 144 722 125 704 125 680 c 0
 125 657 144 638 168 638 c 0
 190 638 209 657 209 680 c 0
 209 704 191 722 168 722 c 0
EndSplineSet
EndChar

StartChar: cedilla
Encoding: 184 184 132
Width: 333
Flags: MW
HStem: -220 50<143.5 166 136 207.5> 0 20
VStem: 207 87<-140.5 -118.5>
LayerCount: 2
Fore
SplineSet
162 0 m 1
 205 0 l 1
 176 -63 l 1
 191 -58 203 -56 218 -56 c 0
 265 -56 294 -83 294 -127 c 0
 294 -187 249 -220 166 -220 c 0
 121 -220 92 -214 27 -192 c 1
 46 -140 l 1
 100 -164 122 -170 150 -170 c 0
 182 -170 207 -152 207 -129 c 0
 207 -108 187 -94 157 -94 c 0
 137 -94 128 -96 108 -106 c 1
 162 0 l 1
EndSplineSet
EndChar

StartChar: hungarumlaut
Encoding: 733 733 133
Width: 333
Flags: W
LayerCount: 2
Fore
SplineSet
152 757 m 1
 26 610 l 1
 -44 610 l 1
 26 757 l 1
 152 757 l 1
340 757 m 1
 214 610 l 1
 144 610 l 1
 214 757 l 1
 340 757 l 1
EndSplineSet
EndChar

StartChar: ogonek
Encoding: 731 731 134
Width: 333
Flags: MW
HStem: -234 51<184.5 203> 0 20
VStem: 45 90<-150 -109.5>
LayerCount: 2
Fore
SplineSet
169 0 m 1
 244 0 l 1
 159 -52 135 -82 135 -133 c 0
 135 -167 158 -183 211 -183 c 0
 231 -183 250 -181 268 -177 c 1
 268 -224 l 1
 241 -231 217 -234 189 -234 c 0
 100 -234 45 -197 45 -139 c 0
 45 -80 92 -28 169 0 c 1
EndSplineSet
EndChar

StartChar: caron
Encoding: 711 711 135
Width: 333
Flags: W
LayerCount: 2
Fore
SplineSet
219 607 m 1
 112 607 l 1
 9 757 l 1
 87 757 l 1
 169 660 l 1
 251 757 l 1
 327 757 l 1
 219 607 l 1
EndSplineSet
EndChar

StartChar: emdash
Encoding: 8212 8212 136
Width: 1000
Flags: MW
HStem: 207 104<-7 1003 -7 1003>
LayerCount: 2
Fore
SplineSet
1003 311 m 1
 1003 207 l 1
 -7 207 l 1
 -7 311 l 1
 1003 311 l 1
EndSplineSet
EndChar

StartChar: AE
Encoding: 198 198 137
Width: 1000
Flags: MW
HStem: 0 125<580 966 580 966> 152 125<249 430 249 430 207 430> 314 125<580 919 580 919> 604 125<363 430 363 363 580 946 580 580>
VStem: 430 150<125 152 152 152 277 314 439 604>
LayerCount: 2
Fore
SplineSet
430 152 m 1
 207 152 l 1
 154 0 l 1
 1 0 l 1
 264 729 l 1
 946 729 l 1
 946 604 l 1
 580 604 l 1
 580 439 l 1
 919 439 l 1
 919 314 l 1
 580 314 l 1
 580 125 l 1
 966 125 l 1
 966 0 l 1
 430 0 l 1
 430 152 l 1
430 277 m 1
 430 604 l 1
 363 604 l 1
 249 277 l 1
 430 277 l 1
EndSplineSet
EndChar

StartChar: ordfeminine
Encoding: 170 170 138
Width: 370
Flags: MW
HStem: 262 78<37 321 37 321> 386 68<145.5 147> 661 68<158 194>
VStem: 30 84<481 505.5 481 513.5>
LayerCount: 2
Fore
SplineSet
321 340 m 1
 321 262 l 1
 37 262 l 1
 37 340 l 1
 321 340 l 1
329 410 m 1
 329 400 l 1
 237 400 l 1
 229 410 227 416 227 432 c 1
 198 402 165 386 129 386 c 0
 69 386 30 425 30 484 c 0
 30 543 61 576 126 587 c 2
 159 593 l 2
 201 600 201 600 212 606 c 0
 222 611 227 619 227 630 c 0
 227 650 210 661 178 661 c 0
 138 661 123 650 119 617 c 1
 40 617 l 1
 42 691 87 729 176 729 c 0
 264 729 309 695 309 629 c 2
 309 450 l 2
 309 433 314 424 329 410 c 1
227 530 m 2
 227 553 l 1
 217 548 213 547 191 543 c 2
 162 537 l 2
 127 530 114 518 114 493 c 0
 114 469 131 454 160 454 c 0
 202 454 227 482 227 530 c 2
EndSplineSet
EndChar

StartChar: Lslash
Encoding: 321 321 139
Width: 611
Flags: MW
HStem: 0 125<230 597 230 597> 709 20<80 230 230 230>
VStem: 80 150<125 257 257 257 423 729>
LayerCount: 2
Fore
SplineSet
230 423 m 1
 395 535 l 1
 395 447 l 1
 230 334 l 1
 230 125 l 1
 597 125 l 1
 597 0 l 1
 80 0 l 1
 80 257 l 1
 0 201 l 1
 0 290 l 1
 80 346 l 1
 80 729 l 1
 230 729 l 1
 230 423 l 1
EndSplineSet
EndChar

StartChar: Oslash
Encoding: 216 216 140
Width: 778
Flags: W
HStem: -23 128<361 439.5> 613 128<335.5 416> 729 20<703 703>
VStem: 35 150<328.5 413.5> 589 150<303.5 385>
LayerCount: 2
Fore
SplineSet
165 52 m 1xb8
 82 -39 l 1
 31 7 l 1
 117 102 l 1
 62 176 35 261 35 359 c 0
 35 468 72 571 138 640 c 1
 201 708 283 741 388 741 c 0xd8
 483 741 553 716 620 657 c 1
 703 749 l 1
 755 704 l 1
 666 605 l 1
 711 544 739 450 739 357 c 0
 739 250 701 146 637 78 c 0
 573 10 491 -23 388 -23 c 0
 297 -23 223 2 165 52 c 1xb8
567 497 m 1
 256 153 l 1
 287 123 335 105 387 105 c 0
 510 105 589 205 589 361 c 0
 589 409 581 458 567 497 c 1
214 209 m 1
 528 555 l 1
 491 594 444 613 388 613 c 0
 264 613 185 513 185 356 c 0
 185 301 195 252 214 209 c 1
EndSplineSet
EndChar

StartChar: OE
Encoding: 338 338 141
Width: 1000
Flags: W
HStem: -23 128<302.5 359> 0 125<624 970 624 970> 314 125<624 923 624 923> 604 125<624 951 624 624> 613 128<302.5 361 240 383>
VStem: 28 150<282.5 435.5 282.5 472> 474 150<178 314 125 439 439 540 540 540>
LayerCount: 2
Fore
SplineSet
624 314 m 1x36
 624 125 l 1
 970 125 l 1
 970 0 l 1
 480 0 l 1x66
 480 59 l 1
 431 -3 393 -23 325 -23 c 0
 152 -23 28 136 28 359 c 0
 28 585 151 741 329 741 c 0x8e
 393 741 432 725 480 677 c 1
 480 729 l 1
 951 729 l 1
 951 604 l 1
 624 604 l 1
 624 439 l 1
 923 439 l 1
 923 314 l 1
 624 314 l 1x36
474 178 m 1x8e
 474 540 l 1
 445 591 410 613 356 613 c 0
 249 613 178 512 178 359 c 0
 178 206 249 105 356 105 c 0
 410 105 445 127 474 178 c 1x8e
EndSplineSet
EndChar

StartChar: ordmasculine
Encoding: 186 186 142
Width: 365
Flags: MW
HStem: 262 78<33 334 33 334> 386 68<160 205.5 160 232.5> 661 68<160 206>
VStem: 23 84<527 589 527 610.5> 259 84<526 588>
LayerCount: 2
Fore
SplineSet
334 340 m 1
 334 262 l 1
 33 262 l 1
 33 340 l 1
 334 340 l 1
183 729 m 0
 284 729 343 665 343 555 c 0
 343 451 282 386 183 386 c 0
 84 386 23 451 23 557 c 0
 23 664 83 729 183 729 c 0
183 661 m 0
 137 661 107 620 107 558 c 0
 107 496 137 454 183 454 c 0
 228 454 259 496 259 556 c 0
 259 620 229 661 183 661 c 0
EndSplineSet
EndChar

StartChar: ae
Encoding: 230 230 143
Width: 889
Flags: W
HStem: -24 113<219.5 235.5> -23 107<588.5 632 588.5 661> 226 93<495 711 495 856 494 711> 436 113<237.5 297.5> 442 107<570.5 634.5>
VStem: 27 140<134.5 175.5 134.5 190>
LayerCount: 2
Fore
SplineSet
712 152 m 1x6c
 850 152 l 1
 819 45 722 -23 600 -23 c 0x44
 512 -23 442 13 400 81 c 1
 338 7 276 -24 195 -24 c 0
 92 -24 27 40 27 141 c 0
 27 239 78 294 186 312 c 1
 242 322 l 1
 311 333 311 333 330 343 c 0
 345 351 354 367 354 383 c 0
 354 419 326 436 269 436 c 0
 206 436 181 416 174 362 c 1
 43 362 l 1
 45 486 122 549 271 549 c 0x94
 349 549 408 532 446 499 c 1
 487 532 540 549 601 549 c 0
 713 549 799 491 836 392 c 0
 849 356 857 304 857 250 c 0
 857 245 857 238 856 226 c 1
 494 226 l 1
 494 180 499 156 514 133 c 0
 534 102 569 84 608 84 c 0
 656 84 700 112 712 152 c 1x6c
354 216 m 2xac
 354 254 l 1
 337 244 325 240 295 235 c 2
 247 228 l 2
 194 221 167 196 167 155 c 0
 167 114 196 89 243 89 c 0
 315 89 354 134 354 216 c 2xac
495 319 m 1
 711 319 l 1
 704 400 667 442 602 442 c 0
 538 442 501 400 495 319 c 1
EndSplineSet
EndChar

StartChar: dotlessi
Encoding: 305 305 144
Width: 278
Flags: MW
HStem: 0 20 520 20<67 207 207 207>
VStem: 67 140<0 540 0 540>
LayerCount: 2
Fore
SplineSet
207 540 m 1
 207 0 l 1
 67 0 l 1
 67 540 l 1
 207 540 l 1
EndSplineSet
EndChar

StartChar: lslash
Encoding: 322 322 145
Width: 278
Flags: MW
HStem: 0 20 709 20<56 196 196 196>
VStem: 56 140<0 294 294 294 442 729>
LayerCount: 2
Fore
SplineSet
196 442 m 1
 252 482 l 1
 252 403 l 1
 196 363 l 1
 196 0 l 1
 56 0 l 1
 56 294 l 1
 0 254 l 1
 0 333 l 1
 56 373 l 1
 56 729 l 1
 196 729 l 1
 196 442 l 1
EndSplineSet
EndChar

StartChar: oslash
Encoding: 248 248 146
Width: 611
Flags: W
HStem: -23 113<289.5 343 289.5 388.5> 437 112<265.5 320.5> 537 20<555 555>
VStem: 36 140<250.5 316.5 250.5 352> 433 140<210 273.5>
LayerCount: 2
Fore
SplineSet
126 35 m 1xb8
 54 -38 l 1
 11 2 l 1
 86 79 l 1
 52 128 36 188 36 263 c 0
 36 441 137 549 305 549 c 0xd8
 378 549 436 529 487 487 c 1
 555 557 l 1
 598 516 l 1
 526 443 l 1
 558 393 573 335 573 263 c 0
 573 86 471 -23 306 -23 c 0
 234 -23 166 -1 126 35 c 1xb8
421 336 m 1
 220 132 l 1
 244 104 273 90 306 90 c 0
 380 90 433 160 433 260 c 0
 433 287 429 312 421 336 c 1
190 184 m 1
 392 390 l 1
 365 423 338 437 303 437 c 0
 228 437 176 367 176 266 c 0
 176 235 181 207 190 184 c 1
EndSplineSet
EndChar

StartChar: oe
Encoding: 339 339 147
Width: 944
Flags: W
HStem: -23 107<651 695.5 651 724.5> -23 113<252 327.5 252 330> 226 93<559 774 559 919 557 774> 436 113<252 328.5> 442 107<647 682.5>
VStem: 23 140<211 315 211 352>
LayerCount: 2
Fore
SplineSet
776 152 m 1xac
 914 152 l 1
 883 46 785 -23 664 -23 c 0x94
 591 -23 529 3 485 52 c 1
 434 2 370 -23 290 -23 c 0
 124 -23 23 85 23 263 c 0
 23 441 124 549 290 549 c 0x54
 371 549 436 524 485 473 c 1
 528 523 589 549 665 549 c 0
 776 549 863 490 899 392 c 0
 912 354 920 304 920 250 c 0
 920 243 920 238 919 226 c 1
 557 226 l 1
 558 180 564 155 578 132 c 0
 596 102 631 84 671 84 c 0
 720 84 763 112 776 152 c 1xac
290 436 m 0
 214 436 163 367 163 263 c 0
 163 159 214 90 290 90 c 0x74
 365 90 417 160 417 261 c 0
 417 367 367 436 290 436 c 0
559 319 m 1
 774 319 l 1
 770 358 764 378 751 397 c 0
 732 425 699 442 666 442 c 0x2c
 628 442 593 421 576 388 c 0
 567 370 562 351 559 319 c 1
EndSplineSet
EndChar

StartChar: germandbls
Encoding: 223 223 148
Width: 611
Flags: W
HStem: -17 20 0 20 616 113<268.5 324.5>
VStem: 67 140<0 518 518 537 0 557> 392 140<513.5 559> 435 140<190 264>
LayerCount: 2
Fore
SplineSet
285 349 m 1xa4
 285 444 l 1
 294 444 l 1
 355 445 392 479 392 533 c 0
 392 585 355 616 294 616 c 0
 239 616 207 587 207 537 c 2
 207 0 l 1
 67 0 l 1x78
 67 518 l 2
 67 596 85 645 128 679 c 0
 167 710 234 729 303 729 c 0
 438 729 532 654 532 547 c 0xb8
 532 480 502 433 445 411 c 1
 480 404 498 394 524 370 c 0
 561 336 575 298 575 236 c 0
 575 84 488 -17 357 -17 c 0
 335 -17 318 -15 285 -11 c 1
 285 101 l 1
 291 102 296 102 298 102 c 2
 318 102 l 1
 387 104 435 155 435 225 c 0
 435 303 384 349 298 349 c 2
 285 349 l 1xa4
EndSplineSet
EndChar

StartChar: onesuperior
Encoding: 185 185 149
Width: 333
Flags: MW
VStem: 138 95<284 573 573 573>
LayerCount: 2
Fore
SplineSet
138 573 m 1
 31 573 l 1
 31 634 l 1
 109 634 155 659 169 709 c 1
 233 709 l 1
 233 284 l 1
 138 284 l 1
 138 573 l 1
EndSplineSet
EndChar

StartChar: logicalnot
Encoding: 172 172 150
Width: 584
Flags: MW
HStem: 298 77<40 467 40 544>
VStem: 467 77<86 298 298 298>
LayerCount: 2
Fore
SplineSet
40 375 m 1
 544 375 l 1
 544 86 l 1
 467 86 l 1
 467 298 l 1
 40 298 l 1
 40 375 l 1
EndSplineSet
EndChar

StartChar: mu
Encoding: 956 956 151
Width: 611
Flags: W
HStem: -23 100<479.5 556> -23 119<271 311.5 268 315> 520 20<58 198 198 198 383 523 523 523>
VStem: 58 134<-220 15> 58 140<186.5 206 206 540> 383 140<202 540>
LayerCount: 2
Fore
SplineSet
192 -220 m 1x54
 58 -220 l 1
 58 540 l 1
 198 540 l 1
 198 206 l 2
 198 167 202 149 216 129 c 0
 230 108 254 96 282 96 c 0x68
 341 96 383 140 383 202 c 2
 383 540 l 1
 523 540 l 1
 523 150 l 2
 523 92 529 77 553 77 c 0
 559 77 563 78 573 81 c 1
 573 -6 l 1
 550 -18 531 -23 503 -23 c 0xb4
 456 -23 432 -9 408 31 c 1
 368 -9 338 -23 292 -23 c 0
 250 -23 220 -12 192 15 c 1
 192 -220 l 1x54
EndSplineSet
EndChar

StartChar: trademark
Encoding: 8482 8482 152
Width: 1000
Flags: MW
HStem: 651 78<71 208 71 436 303 436 303 303>
VStem: 208 95<273 651 273 651> 485 91<273 622 273 729> 838 91<273 622 622 622>
LayerCount: 2
Fore
SplineSet
303 651 m 1
 303 273 l 1
 208 273 l 1
 208 651 l 1
 71 651 l 1
 71 729 l 1
 436 729 l 1
 436 651 l 1
 303 651 l 1
755 273 m 1
 661 273 l 1
 576 622 l 1
 576 273 l 1
 485 273 l 1
 485 729 l 1
 622 729 l 1
 708 379 l 1
 792 729 l 1
 929 729 l 1
 929 273 l 1
 838 273 l 1
 838 622 l 1
 755 273 l 1
EndSplineSet
EndChar

StartChar: Eth
Encoding: 208 208 153
Width: 722
Flags: MW
HStem: 0 125<227 362 227 362> 339 80<0 77 0 77 227 377> 604 125<227 362 227 227>
VStem: 77 150<125 339 125 339 125 339 419 604> 537 144<324 404.5>
LayerCount: 2
Fore
SplineSet
77 339 m 1
 0 339 l 1
 0 419 l 1
 77 419 l 1
 77 729 l 1
 362 729 l 2
 477 729 544 704 593 645 c 1
 648 576 681 473 681 365 c 0
 681 257 648 153 593 85 c 0
 545 25 476 0 362 0 c 2
 77 0 l 1
 77 339 l 1
227 339 m 1
 227 125 l 1
 362 125 l 2
 427 125 465 141 491 179 c 0
 522 223 537 284 537 364 c 0
 537 445 522 506 491 550 c 0
 465 588 427 604 362 604 c 2
 227 604 l 1
 227 419 l 1
 377 419 l 1
 377 339 l 1
 227 339 l 1
EndSplineSet
EndChar

StartChar: onehalf
Encoding: 189 189 154
Width: 834
Flags: W
HStem: -20 20 0 20 360 74<654 692.5>
VStem: 130 95<284 573 573 573> 522 91<289.5 311.5 288 337> 734 95<273.5 316>
LayerCount: 2
Fore
SplineSet
130 573 m 1x3c
 23 573 l 1
 23 634 l 1
 101 634 147 659 161 709 c 1
 225 709 l 1
 225 284 l 1
 130 284 l 1
 130 573 l 1x3c
570 715 m 1
 657 715 l 1
 234 -20 l 1
 147 -20 l 1xbc
 570 715 l 1
827 81 m 1
 827 0 l 1
 517 0 l 1x7c
 520 81 543 119 621 169 c 1
 720 236 734 251 734 296 c 0
 734 336 712 360 673 360 c 0
 635 360 613 334 613 289 c 0
 613 287 614 280 615 273 c 1
 523 273 l 1
 522 281 522 288 522 291 c 0
 522 383 578 434 678 434 c 0
 775 434 829 386 829 300 c 0
 829 240 807 209 727 154 c 0
 698 133 674 116 668 111 c 0
 660 104 654 98 640 81 c 1
 827 81 l 1
EndSplineSet
EndChar

StartChar: plusminus
Encoding: 177 177 155
Width: 584
Flags: MW
HStem: -16 119<56 527 56 527> 313 119<56 232 56 232 351 527>
VStem: 232 119<137 313 137 313 432 608>
LayerCount: 2
Fore
SplineSet
527 103 m 1
 527 -16 l 1
 56 -16 l 1
 56 103 l 1
 527 103 l 1
527 432 m 1
 527 313 l 1
 351 313 l 1
 351 137 l 1
 232 137 l 1
 232 313 l 1
 56 313 l 1
 56 432 l 1
 232 432 l 1
 232 608 l 1
 351 608 l 1
 351 432 l 1
 527 432 l 1
EndSplineSet
EndChar

StartChar: Thorn
Encoding: 222 222 156
Width: 667
Flags: MW
HStem: 0 20 140 125<226 366 226 366 366 406 226 413> 484 125<226 366 226 398> 709 20<76 226 226 226>
VStem: 76 150<0 140 265 484 609 729> 483 150<337.5 412>
LayerCount: 2
Fore
SplineSet
226 140 m 1
 226 0 l 1
 76 0 l 1
 76 729 l 1
 226 729 l 1
 226 609 l 1
 398 609 l 2
 480 609 531 592 571 553 c 0
 613 512 633 456 633 382 c 0
 633 233 548 140 413 140 c 2
 226 140 l 1
226 265 m 1
 366 265 l 2
 446 265 483 300 483 375 c 0
 483 449 446 484 366 484 c 2
 226 484 l 1
 226 265 l 1
EndSplineSet
EndChar

StartChar: onequarter
Encoding: 188 188 157
Width: 834
Flags: W
HStem: -20 20 0 20 93 75<559 665 559 665 486 665 760 806>
VStem: 130 95<284 573 573 573> 665 95<0 93 0 93 168 332 332 332>
LayerCount: 2
Fore
SplineSet
130 573 m 1x38
 23 573 l 1
 23 634 l 1
 101 634 147 659 161 709 c 1
 225 709 l 1
 225 284 l 1
 130 284 l 1
 130 573 l 1x38
576 715 m 1
 663 715 l 1
 240 -20 l 1
 153 -20 l 1xb8
 576 715 l 1
806 168 m 1
 806 93 l 1
 760 93 l 1
 760 0 l 1
 665 0 l 1x78
 665 93 l 1
 486 93 l 1
 486 167 l 1
 651 425 l 1
 760 425 l 1
 760 168 l 1
 806 168 l 1
665 168 m 1
 665 332 l 1
 559 168 l 1
 665 168 l 1
EndSplineSet
EndChar

StartChar: divide
Encoding: 247 247 158
Width: 584
Flags: MW
HStem: -11 123<230 354 230 354> 172 119<50 534 50 534> 351 123<230 354 230 354>
VStem: 230 124<-11 112 -11 112 351 474>
LayerCount: 2
Fore
SplineSet
534 291 m 1
 534 172 l 1
 50 172 l 1
 50 291 l 1
 534 291 l 1
230 474 m 1
 354 474 l 1
 354 351 l 1
 230 351 l 1
 230 474 l 1
230 112 m 1
 354 112 l 1
 354 -11 l 1
 230 -11 l 1
 230 112 l 1
EndSplineSet
EndChar

StartChar: brokenbar
Encoding: 166 166 159
Width: 280
Flags: MW
HStem: 709 20<100 180 180 180>
VStem: 100 80<-200 189 -200 189 340 729>
LayerCount: 2
Fore
SplineSet
180 729 m 1
 180 340 l 1
 100 340 l 1
 100 729 l 1
 180 729 l 1
180 189 m 1
 180 -200 l 1
 100 -200 l 1
 100 189 l 1
 180 189 l 1
EndSplineSet
EndChar

StartChar: degree
Encoding: 176 176 160
Width: 400
Flags: MW
HStem: 383 63<174.5 223 174.5 240.5> 623 63<175.5 224>
VStem: 48 63<510 558.5 510 576.5> 288 63<510 559.5>
LayerCount: 2
Fore
SplineSet
200 686 m 0
 283 686 351 618 351 535 c 0
 351 450 283 383 198 383 c 0
 116 383 48 452 48 535 c 0
 48 618 116 686 200 686 c 0
200 623 m 0
 151 623 111 583 111 534 c 0
 111 486 151 446 198 446 c 0
 248 446 288 485 288 535 c 0
 288 584 248 623 200 623 c 0
EndSplineSet
EndChar

StartChar: thorn
Encoding: 254 254 161
Width: 611
Flags: MW
HStem: -23 117<314 351 280.5 413> 432 117<314 351.5> 709 20<58 198 198 198>
VStem: 58 140<-218 64 212 313 460 729> 434 140<211 312>
LayerCount: 2
Fore
SplineSet
198 729 m 1
 198 460 l 1
 232 520 280 549 348 549 c 0
 478 549 574 427 574 262 c 0
 574 98 478 -23 348 -23 c 0
 280 -23 232 5 198 64 c 1
 198 -218 l 1
 58 -218 l 1
 58 729 l 1
 198 729 l 1
316 432 m 0
 245 432 198 364 198 262 c 0
 198 162 245 94 316 94 c 0
 386 94 434 162 434 260 c 0
 434 364 387 432 316 432 c 0
EndSplineSet
EndChar

StartChar: threequarters
Encoding: 190 190 162
Width: 834
Flags: W
HStem: -20 20 0 20 93 75<566 672 566 672 493 672 767 813> 271 77<154 193 154 220.5> 645 73<149.5 186>
VStem: 223 95<582.5 607.5> 237 95<390.5 422.5> 672 95<0 93 0 93 168 332 332 332>
LayerCount: 2
Fore
SplineSet
137 471 m 1xfa
 137 533 l 1
 147 533 l 2
 197 533 223 553 223 591 c 0
 223 624 202 645 170 645 c 0
 129 645 114 626 113 571 c 1
 24 571 l 1
 27 621 34 646 53 669 c 0
 78 701 121 718 173 718 c 0
 261 718 318 672 318 601 c 0xfd
 318 564 300 533 266 512 c 1
 310 490 332 456 332 409 c 0
 332 325 269 271 172 271 c 0
 75 271 19 323 18 414 c 1
 110 414 l 1
 112 369 133 348 175 348 c 0
 211 348 237 373 237 408 c 0
 237 437 219 460 191 467 c 0
 182 469 164 471 137 471 c 1xfa
608 715 m 1
 695 715 l 1
 272 -20 l 1
 185 -20 l 1
 608 715 l 1
813 168 m 1
 813 93 l 1
 767 93 l 1
 767 0 l 1
 672 0 l 1
 672 93 l 1
 493 93 l 1
 493 167 l 1
 658 425 l 1
 767 425 l 1
 767 168 l 1
 813 168 l 1
672 168 m 1
 672 332 l 1
 566 168 l 1
 672 168 l 1
EndSplineSet
EndChar

StartChar: twosuperior
Encoding: 178 178 163
Width: 333
Flags: MW
HStem: 644 74<144 182>
VStem: 12 91<573.5 595.5 572 621> 224 95<557.5 600>
LayerCount: 2
Fore
SplineSet
317 365 m 1
 317 284 l 1
 7 284 l 1
 10 365 33 403 111 453 c 1
 209 519 224 535 224 580 c 0
 224 620 201 644 163 644 c 0
 125 644 103 618 103 573 c 0
 103 571 104 564 105 557 c 1
 13 557 l 1
 12 565 12 572 12 575 c 0
 12 667 68 718 168 718 c 0
 265 718 319 670 319 584 c 0
 319 524 297 493 217 438 c 1
 187 416 164 400 158 395 c 0
 150 388 144 382 130 365 c 1
 317 365 l 1
EndSplineSet
EndChar

StartChar: registered
Encoding: 174 174 164
Width: 737
Flags: MW
HStem: -22 72<283 451 283 472> 313 81<288 390 288 379> 502 81<288 390 288 288> 671 72<284 452>
VStem: -14 78<276 446.5 276 466> 192 96<140 313 394 502> 455 95<436.5 468.5> 673 78<274 446.5>
LayerCount: 2
Fore
SplineSet
288 313 m 1
 288 140 l 1
 192 140 l 1
 192 583 l 1
 429 583 l 2
 505 583 550 538 550 462 c 0
 550 411 529 378 481 354 c 1
 532 330 534 323 537 195 c 0
 537 176 542 169 556 161 c 1
 556 140 l 1
 454 140 l 1
 441 163 439 175 439 221 c 0
 439 227 439 238 440 247 c 1
 440 264 l 2
 440 298 421 313 379 313 c 2
 288 313 l 1
288 394 m 1
 390 394 l 2
 439 394 455 407 455 448 c 0
 455 489 439 502 390 502 c 2
 288 502 l 1
 288 394 l 1
369 743 m 0
 580 743 751 572 751 361 c 0
 751 147 580 -22 364 -22 c 0
 158 -22 -14 152 -14 361 c 0
 -14 571 158 743 369 743 c 0
368 671 m 0
 200 671 64 532 64 361 c 0
 64 191 201 50 365 50 c 0
 537 50 673 187 673 361 c 0
 673 532 536 671 368 671 c 0
EndSplineSet
EndChar

StartChar: minus
Encoding: 8722 8722 165
Width: 584
Flags: MW
HStem: 172 119<40 544 40 544>
LayerCount: 2
Fore
SplineSet
544 291 m 1
 544 172 l 1
 40 172 l 1
 40 291 l 1
 544 291 l 1
EndSplineSet
EndChar

StartChar: eth
Encoding: 240 240 166
Width: 611
Flags: MW
HStem: -23 113<263.5 340 263.5 345> 429 105<263.5 287 252.5 340.5> 724 20<381 381>
VStem: 35 141<208 311 208 320> 428 141<225 310>
LayerCount: 2
Fore
SplineSet
432 710 m 1
 348 660 l 1
 500 558 569 435 569 269 c 0
 569 181 549 115 508 64 c 1
 461 8 388 -23 302 -23 c 0
 135 -23 35 85 35 265 c 0
 35 375 72 452 148 497 c 0
 187 521 231 534 274 534 c 0
 300 534 320 530 359 515 c 1
 332 558 302 589 264 611 c 1
 187 565 l 1
 145 602 l 1
 215 646 l 1
 188 662 174 670 125 694 c 1
 192 741 l 1
 217 732 234 724 249 716 c 2
 279 699 l 2
 280 698 286 695 294 692 c 1
 381 744 l 1
 432 710 l 1
302 429 m 0
 225 429 176 362 176 260 c 0
 176 156 225 90 302 90 c 0
 378 90 428 157 428 257 c 0
 428 363 379 429 302 429 c 0
EndSplineSet
EndChar

StartChar: multiply
Encoding: 215 215 167
Width: 584
Flags: W
LayerCount: 2
Fore
SplineSet
421 444 m 1
 505 360 l 1
 376 231 l 1
 504 102 l 1
 420 18 l 1
 292 147 l 1
 164 19 l 1
 80 103 l 1
 208 231 l 1
 79 359 l 1
 163 444 l 1
 292 315 l 1
 421 444 l 1
EndSplineSet
EndChar

StartChar: threesuperior
Encoding: 179 179 168
Width: 333
Flags: W
HStem: 271 77<142 181 142 208.5> 645 73<137.5 174>
VStem: 211 95<582.5 607.5> 225 95<390.5 422.5>
LayerCount: 2
Fore
SplineSet
125 471 m 1xd0
 125 533 l 1
 135 533 l 2
 185 533 211 553 211 591 c 0
 211 624 190 645 158 645 c 0
 117 645 102 626 101 571 c 1
 12 571 l 1
 15 621 22 646 41 669 c 0
 66 701 109 718 161 718 c 0
 249 718 306 672 306 601 c 0xe0
 306 564 288 533 254 512 c 1
 298 490 320 456 320 409 c 0
 320 325 257 271 160 271 c 0
 63 271 7 323 6 414 c 1
 98 414 l 1
 100 369 121 348 163 348 c 0
 199 348 225 373 225 408 c 0
 225 437 207 460 179 467 c 0
 170 469 152 471 125 471 c 1xd0
EndSplineSet
EndChar

StartChar: copyright
Encoding: 169 169 169
Width: 737
Flags: MW
HStem: -22 72<283 451 283 472> 128 83<331 394.5 331 420> 509 83<333.5 395.5> 671 72<284 452>
VStem: -14 78<276 446.5 276 466> 163 92<312 406 312 431.5> 673 78<274 446.5>
LayerCount: 2
Fore
SplineSet
552 431 m 1
 462 431 l 1
 451 485 422 509 369 509 c 0
 298 509 255 453 255 359 c 0
 255 265 296 211 366 211 c 0
 423 211 457 241 462 297 c 1
 554 297 l 1
 549 192 476 128 364 128 c 0
 240 128 163 217 163 360 c 0
 163 503 241 592 366 592 c 0
 433 592 488 567 522 522 c 0
 541 496 549 472 552 431 c 1
369 743 m 0
 580 743 751 572 751 361 c 0
 751 147 580 -22 364 -22 c 0
 158 -22 -14 152 -14 361 c 0
 -14 571 158 743 369 743 c 0
368 671 m 0
 200 671 64 532 64 361 c 0
 64 191 201 50 365 50 c 0
 537 50 673 187 673 361 c 0
 673 532 536 671 368 671 c 0
EndSplineSet
EndChar

StartChar: Aacute
Encoding: 193 193 170
Width: 722
Flags: MW
HStem: 0 20 147 125<270 460 270 501 228 460> 709 20<285 451 451 451>
LayerCount: 2
Fore
SplineSet
501 147 m 1
 228 147 l 1
 179 0 l 1
 26 0 l 1
 285 729 l 1
 451 729 l 1
 703 0 l 1
 549 0 l 1
 501 147 l 1
460 272 m 1
 365 557 l 1
 270 272 l 1
 460 272 l 1
510 936 m 1
 384 786 l 1
 314 786 l 1
 384 936 l 1
 510 936 l 1
EndSplineSet
EndChar

StartChar: Acircumflex
Encoding: 194 194 171
Width: 722
Flags: MW
HStem: 0 20 147 125<270 460 270 501 228 460> 709 20<285 451 451 451>
LayerCount: 2
Fore
SplineSet
501 147 m 1
 228 147 l 1
 179 0 l 1
 26 0 l 1
 285 729 l 1
 451 729 l 1
 703 0 l 1
 549 0 l 1
 501 147 l 1
460 272 m 1
 365 557 l 1
 270 272 l 1
 460 272 l 1
313 936 m 1
 420 936 l 1
 523 786 l 1
 446 786 l 1
 364 886 l 1
 282 786 l 1
 205 786 l 1
 313 936 l 1
EndSplineSet
EndChar

StartChar: Adieresis
Encoding: 196 196 172
Width: 722
Flags: MW
HStem: 0 20 147 125<270 460 270 501 228 460> 709 20<285 451 451 451> 800 122<216 326 216 326 216 402 402 512>
VStem: 216 110<800 922 800 922> 402 110<800 922 800 922>
LayerCount: 2
Fore
SplineSet
501 147 m 1
 228 147 l 1
 179 0 l 1
 26 0 l 1
 285 729 l 1
 451 729 l 1
 703 0 l 1
 549 0 l 1
 501 147 l 1
460 272 m 1
 365 557 l 1
 270 272 l 1
 460 272 l 1
326 922 m 1
 326 800 l 1
 216 800 l 1
 216 922 l 1
 326 922 l 1
512 922 m 1
 512 800 l 1
 402 800 l 1
 402 922 l 1
 512 922 l 1
EndSplineSet
EndChar

StartChar: Agrave
Encoding: 192 192 173
Width: 722
Flags: MW
HStem: 0 20 147 125<270 460 270 501 228 460> 709 20<285 451 451 451>
LayerCount: 2
Fore
SplineSet
501 147 m 1
 228 147 l 1
 179 0 l 1
 26 0 l 1
 285 729 l 1
 451 729 l 1
 703 0 l 1
 549 0 l 1
 501 147 l 1
460 272 m 1
 365 557 l 1
 270 272 l 1
 460 272 l 1
221 936 m 1
 347 936 l 1
 417 786 l 1
 347 786 l 1
 221 936 l 1
EndSplineSet
EndChar

StartChar: Aring
Encoding: 197 197 174
Width: 722
Flags: MW
HStem: 0 20 147 125<270 460 270 501 228 460> 709 20<285 451 451 451> 769 48<354 377 354 389.5> 901 48<354 377.5>
VStem: 275 48<847.5 871 847.5 884.5> 407 48<847.5 871>
LayerCount: 2
Fore
SplineSet
501 147 m 1
 228 147 l 1
 179 0 l 1
 26 0 l 1
 285 729 l 1
 451 729 l 1
 703 0 l 1
 549 0 l 1
 501 147 l 1
460 272 m 1
 365 557 l 1
 270 272 l 1
 460 272 l 1
366 949 m 0
 416 949 455 910 455 858 c 0
 455 809 414 769 365 769 c 0
 315 769 275 809 275 859 c 0
 275 910 315 949 366 949 c 0
366 901 m 0
 342 901 323 883 323 859 c 0
 323 836 342 817 366 817 c 0
 388 817 407 836 407 859 c 0
 407 883 389 901 366 901 c 0
EndSplineSet
EndChar

StartChar: Atilde
Encoding: 195 195 175
Width: 722
Flags: W
HStem: 0 20 147 125<270 460 270 501 228 460> 709 20<285 451 451 451> 801 79<444.5 458 444.5 481.5> 845 79<283.5 296 259 300>
LayerCount: 2
Fore
SplineSet
501 147 m 1xf0
 228 147 l 1
 179 0 l 1
 26 0 l 1
 285 729 l 1
 451 729 l 1
 703 0 l 1
 549 0 l 1
 501 147 l 1xf0
460 272 m 1
 365 557 l 1
 270 272 l 1
 460 272 l 1
484 928 m 1
 547 928 l 1
 542 843 511 801 452 801 c 0x10
 436 801 418 805 397 813 c 2
 326 839 l 2
 314 843 305 845 295 845 c 0
 272 845 260 832 255 800 c 1
 193 800 l 1
 196 878 231 924 287 924 c 0x08
 305 924 310 923 342 911 c 2
 414 886 l 2
 421 883 441 880 448 880 c 0
 468 880 480 896 484 928 c 1
EndSplineSet
EndChar

StartChar: Ccedilla
Encoding: 199 199 176
Width: 722
Flags: MW
HStem: -220 50<327.5 350 320 391.5> -94 197<331 356> 613 128<324 426.5>
VStem: 44 150<293.5 436.5 276.5 476> 391 87<-140.5 -118.5>
LayerCount: 2
Fore
SplineSet
379 -23 m 1
 360 -63 l 1
 374 -58 386 -56 402 -56 c 0
 449 -56 478 -83 478 -127 c 0
 478 -187 433 -220 350 -220 c 0
 305 -220 276 -214 211 -192 c 1
 230 -140 l 1
 284 -164 306 -170 334 -170 c 0
 366 -170 391 -152 391 -129 c 0
 391 -108 371 -94 341 -94 c 0
 321 -94 311 -97 292 -106 c 1
 335 -23 l 1
 242 -7 203 11 155 56 c 0
 82 126 44 229 44 358 c 0
 44 594 172 741 378 741 c 0
 487 741 577 700 633 626 c 0
 664 585 677 545 682 482 c 1
 539 482 l 1
 519 571 470 613 383 613 c 0
 265 613 194 517 194 356 c 0
 194 197 262 103 378 103 c 0
 471 103 529 156 539 249 c 1
 685 249 l 1
 677 84 561 -19 379 -23 c 1
EndSplineSet
EndChar

StartChar: Eacute
Encoding: 201 201 177
Width: 667
Flags: MW
HStem: 0 125<229 624 229 624> 314 125<229 578 229 578> 604 125<229 606 229 229>
VStem: 79 150<125 314 125 439 439 604>
LayerCount: 2
Fore
SplineSet
229 314 m 1
 229 125 l 1
 624 125 l 1
 624 0 l 1
 79 0 l 1
 79 729 l 1
 606 729 l 1
 606 604 l 1
 229 604 l 1
 229 439 l 1
 578 439 l 1
 578 314 l 1
 229 314 l 1
480 936 m 1
 354 786 l 1
 284 786 l 1
 354 936 l 1
 480 936 l 1
EndSplineSet
EndChar

StartChar: Ecircumflex
Encoding: 202 202 178
Width: 667
Flags: MW
HStem: 0 125<229 624 229 624> 314 125<229 578 229 578> 604 125<229 606 229 229>
VStem: 79 150<125 314 125 439 439 604>
LayerCount: 2
Fore
SplineSet
229 314 m 1
 229 125 l 1
 624 125 l 1
 624 0 l 1
 79 0 l 1
 79 729 l 1
 606 729 l 1
 606 604 l 1
 229 604 l 1
 229 439 l 1
 578 439 l 1
 578 314 l 1
 229 314 l 1
293 936 m 1
 401 936 l 1
 504 786 l 1
 426 786 l 1
 344 886 l 1
 262 786 l 1
 186 786 l 1
 293 936 l 1
EndSplineSet
EndChar

StartChar: Edieresis
Encoding: 203 203 179
Width: 667
Flags: W
HStem: 0 125<229 624 229 624> 314 125<229 578 229 578> 604 125<229 606 229 229> 800 122<197 307 197 307 197 383 383 493>
VStem: 79 150<125 314 125 439 439 604> 197 110<800 922 800 922> 383 110<800 922 800 922>
LayerCount: 2
Fore
SplineSet
229 314 m 1xf8
 229 125 l 1
 624 125 l 1
 624 0 l 1
 79 0 l 1
 79 729 l 1
 606 729 l 1
 606 604 l 1
 229 604 l 1
 229 439 l 1
 578 439 l 1
 578 314 l 1
 229 314 l 1xf8
307 922 m 1xf6
 307 800 l 1
 197 800 l 1
 197 922 l 1
 307 922 l 1xf6
493 922 m 1
 493 800 l 1
 383 800 l 1
 383 922 l 1
 493 922 l 1
EndSplineSet
EndChar

StartChar: Egrave
Encoding: 200 200 180
Width: 667
Flags: MW
HStem: 0 125<229 624 229 624> 314 125<229 578 229 578> 604 125<229 606 229 229>
VStem: 79 150<125 314 125 439 439 604>
LayerCount: 2
Fore
SplineSet
229 314 m 1
 229 125 l 1
 624 125 l 1
 624 0 l 1
 79 0 l 1
 79 729 l 1
 606 729 l 1
 606 604 l 1
 229 604 l 1
 229 439 l 1
 578 439 l 1
 578 314 l 1
 229 314 l 1
208 936 m 1
 334 936 l 1
 404 786 l 1
 334 786 l 1
 208 936 l 1
EndSplineSet
EndChar

StartChar: Iacute
Encoding: 205 205 181
Width: 278
Flags: MW
HStem: 0 20 709 20<63 213 213 213>
VStem: 63 150<0 729 0 729>
LayerCount: 2
Fore
SplineSet
213 729 m 1
 213 0 l 1
 63 0 l 1
 63 729 l 1
 213 729 l 1
290 936 m 1
 164 786 l 1
 94 786 l 1
 164 936 l 1
 290 936 l 1
EndSplineSet
EndChar

StartChar: Icircumflex
Encoding: 206 206 182
Width: 278
Flags: MW
HStem: 0 20 709 20<63 213 213 213>
VStem: 63 150<0 729 0 729>
LayerCount: 2
Fore
SplineSet
213 729 m 1
 213 0 l 1
 63 0 l 1
 63 729 l 1
 213 729 l 1
89 936 m 1
 196 936 l 1
 299 786 l 1
 221 786 l 1
 139 886 l 1
 57 786 l 1
 -19 786 l 1
 89 936 l 1
EndSplineSet
EndChar

StartChar: Idieresis
Encoding: 207 207 183
Width: 278
Flags: W
HStem: 0 20 709 20<63 213 213 213> 800 122<-9 101 -9 101 -9 177 177 287>
VStem: -9 110<800 922 800 922> 63 150<0 729 0 729> 177 110<800 922 800 922>
LayerCount: 2
Fore
SplineSet
213 729 m 1xe8
 213 0 l 1
 63 0 l 1
 63 729 l 1
 213 729 l 1xe8
101 922 m 1xf4
 101 800 l 1
 -9 800 l 1
 -9 922 l 1
 101 922 l 1xf4
287 922 m 1
 287 800 l 1
 177 800 l 1
 177 922 l 1
 287 922 l 1
EndSplineSet
EndChar

StartChar: Igrave
Encoding: 204 204 184
Width: 278
Flags: MW
HStem: 0 20 709 20<63 213 213 213>
VStem: 63 150<0 729 0 729>
LayerCount: 2
Fore
SplineSet
213 729 m 1
 213 0 l 1
 63 0 l 1
 63 729 l 1
 213 729 l 1
-10 936 m 1
 116 936 l 1
 186 786 l 1
 116 786 l 1
 -10 936 l 1
EndSplineSet
EndChar

StartChar: Ntilde
Encoding: 209 209 185
Width: 722
Flags: W
HStem: 0 20 709 20<68 222 222 222 511 661 661 661> 801 79<445.5 459.5 445.5 482.5> 845 79<285 298 261 302>
VStem: 68 150<0 504 0 729> 511 150<0 729 233 729 0 729>
LayerCount: 2
Fore
SplineSet
511 0 m 1xec
 218 504 l 1
 218 0 l 1
 68 0 l 1
 68 729 l 1
 222 729 l 1
 511 233 l 1
 511 729 l 1
 661 729 l 1
 661 0 l 1
 511 0 l 1xec
486 928 m 1
 548 928 l 1
 544 843 512 801 453 801 c 0x2c
 438 801 419 805 399 813 c 2
 327 839 l 2
 316 843 307 845 297 845 c 0
 273 845 262 832 257 800 c 1
 194 800 l 1
 198 878 233 924 289 924 c 0x1c
 307 924 311 923 344 911 c 2
 416 886 l 2
 423 883 442 880 449 880 c 0
 470 880 482 896 486 928 c 1
EndSplineSet
EndChar

StartChar: Oacute
Encoding: 211 211 186
Width: 778
Flags: MW
HStem: -23 128<339 443> 613 128<339 443 339 452.5>
VStem: 40 150<304.5 413.5> 592 150<302.5 411 302.5 434>
LayerCount: 2
Fore
SplineSet
390 741 m 0
 496 741 576 709 640 640 c 0
 705 571 742 468 742 354 c 0
 742 251 703 145 640 78 c 0
 577 10 495 -23 391 -23 c 0
 287 -23 205 10 142 78 c 0
 77 147 40 250 40 359 c 0
 40 468 77 570 142 640 c 0
 204 707 288 741 390 741 c 0
391 613 m 0
 269 613 190 513 190 359 c 0
 190 205 269 105 391 105 c 0
 511 105 592 205 592 355 c 0
 592 513 514 613 391 613 c 0
530 936 m 1
 404 786 l 1
 334 786 l 1
 404 936 l 1
 530 936 l 1
EndSplineSet
EndChar

StartChar: Ocircumflex
Encoding: 212 212 187
Width: 778
Flags: MW
HStem: -23 128<339 443> 613 128<339 443 339 452.5>
VStem: 40 150<304.5 413.5> 592 150<302.5 411 302.5 434>
LayerCount: 2
Fore
SplineSet
390 741 m 0
 496 741 576 709 640 640 c 0
 705 571 742 468 742 354 c 0
 742 251 703 145 640 78 c 0
 577 10 495 -23 391 -23 c 0
 287 -23 205 10 142 78 c 0
 77 147 40 250 40 359 c 0
 40 468 77 570 142 640 c 0
 204 707 288 741 390 741 c 0
391 613 m 0
 269 613 190 513 190 359 c 0
 190 205 269 105 391 105 c 0
 511 105 592 205 592 355 c 0
 592 513 514 613 391 613 c 0
340 936 m 1
 447 936 l 1
 550 786 l 1
 472 786 l 1
 390 886 l 1
 308 786 l 1
 232 786 l 1
 340 936 l 1
EndSplineSet
EndChar

StartChar: Odieresis
Encoding: 214 214 188
Width: 778
Flags: MW
HStem: -23 128<339 443> 613 128<339 443 339 452.5> 800 122<243 353 243 353 243 429 429 539>
VStem: 40 150<304.5 413.5> 243 110<800 922 800 922> 429 110<800 922 800 922> 592 150<302.5 411 302.5 434>
LayerCount: 2
Fore
SplineSet
390 741 m 0
 496 741 576 709 640 640 c 0
 705 571 742 468 742 354 c 0
 742 251 703 145 640 78 c 0
 577 10 495 -23 391 -23 c 0
 287 -23 205 10 142 78 c 0
 77 147 40 250 40 359 c 0
 40 468 77 570 142 640 c 0
 204 707 288 741 390 741 c 0
391 613 m 0
 269 613 190 513 190 359 c 0
 190 205 269 105 391 105 c 0
 511 105 592 205 592 355 c 0
 592 513 514 613 391 613 c 0
353 922 m 1
 353 800 l 1
 243 800 l 1
 243 922 l 1
 353 922 l 1
539 922 m 1
 539 800 l 1
 429 800 l 1
 429 922 l 1
 539 922 l 1
EndSplineSet
EndChar

StartChar: Ograve
Encoding: 210 210 189
Width: 778
Flags: MW
HStem: -23 128<339 443> 613 128<339 443 339 452.5>
VStem: 40 150<304.5 413.5> 592 150<302.5 411 302.5 434>
LayerCount: 2
Fore
SplineSet
390 741 m 0
 496 741 576 709 640 640 c 0
 705 571 742 468 742 354 c 0
 742 251 703 145 640 78 c 0
 577 10 495 -23 391 -23 c 0
 287 -23 205 10 142 78 c 0
 77 147 40 250 40 359 c 0
 40 468 77 570 142 640 c 0
 204 707 288 741 390 741 c 0
391 613 m 0
 269 613 190 513 190 359 c 0
 190 205 269 105 391 105 c 0
 511 105 592 205 592 355 c 0
 592 513 514 613 391 613 c 0
254 936 m 1
 380 936 l 1
 450 786 l 1
 380 786 l 1
 254 936 l 1
EndSplineSet
EndChar

StartChar: Otilde
Encoding: 213 213 190
Width: 778
Flags: W
HStem: -23 128<339 443> 613 128<339 443 339 452.5> 801 79<472.5 486.5 472.5 509.5> 845 79<312 324 287 328.5>
VStem: 40 150<304.5 413.5> 592 150<302.5 411 302.5 434>
LayerCount: 2
Fore
SplineSet
390 741 m 0xec
 496 741 576 709 640 640 c 0
 705 571 742 468 742 354 c 0
 742 251 703 145 640 78 c 0
 577 10 495 -23 391 -23 c 0
 287 -23 205 10 142 78 c 0
 77 147 40 250 40 359 c 0
 40 468 77 570 142 640 c 0
 204 707 288 741 390 741 c 0xec
391 613 m 0
 269 613 190 513 190 359 c 0
 190 205 269 105 391 105 c 0
 511 105 592 205 592 355 c 0
 592 513 514 613 391 613 c 0
512 928 m 1
 575 928 l 1
 570 843 539 801 480 801 c 0x2c
 465 801 446 805 425 813 c 2
 354 839 l 2
 342 843 333 845 324 845 c 0
 300 845 288 832 283 800 c 1
 221 800 l 1
 224 878 259 924 315 924 c 0x1c
 333 924 338 923 371 911 c 2
 442 886 l 2
 449 883 469 880 476 880 c 0
 497 880 508 896 512 928 c 1
EndSplineSet
EndChar

StartChar: Scaron
Encoding: 352 352 191
Width: 667
Flags: MW
HStem: -23 120<291 387.5 291 428> 621 120<275 361.5>
VStem: 45 143<504.5 558.5 504.5 588> 489 144<164.5 224.5>
LayerCount: 2
Fore
SplineSet
607 507 m 1
 467 507 l 1
 462 581 409 621 314 621 c 0
 236 621 188 586 188 531 c 0
 188 478 219 457 326 436 c 2
 440 414 l 2
 575 388 633 328 633 213 c 0
 633 64 522 -23 334 -23 c 0
 148 -23 41 62 32 218 c 1
 178 218 l 1
 183 140 240 97 342 97 c 0
 433 97 489 134 489 195 c 0
 489 254 452 282 352 301 c 2
 250 321 l 1
 102 349 45 404 45 517 c 0
 45 659 146 741 321 741 c 0
 505 741 606 658 607 507 c 1
381 786 m 1
 273 786 l 1
 170 936 l 1
 248 936 l 1
 330 839 l 1
 412 936 l 1
 488 936 l 1
 381 786 l 1
EndSplineSet
EndChar

StartChar: Uacute
Encoding: 218 218 192
Width: 722
Flags: MW
HStem: -23 128<321 409> 709 20<76 226 226 226 504 654 654 654>
VStem: 76 150<235 729> 504 150<235 729>
LayerCount: 2
Fore
SplineSet
504 729 m 1
 654 729 l 1
 654 235 l 2
 654 153 632 95 583 51 c 0
 530 3 453 -23 365 -23 c 0
 277 -23 200 3 147 51 c 0
 98 95 76 153 76 235 c 2
 76 729 l 1
 226 729 l 1
 226 235 l 2
 226 147 271 105 365 105 c 0
 459 105 504 147 504 235 c 2
 504 729 l 1
504 936 m 1
 378 786 l 1
 308 786 l 1
 378 936 l 1
 504 936 l 1
EndSplineSet
EndChar

StartChar: Ucircumflex
Encoding: 219 219 193
Width: 722
Flags: MW
HStem: -23 128<321 409> 709 20<76 226 226 226 504 654 654 654>
VStem: 76 150<235 729> 504 150<235 729>
LayerCount: 2
Fore
SplineSet
504 729 m 1
 654 729 l 1
 654 235 l 2
 654 153 632 95 583 51 c 0
 530 3 453 -23 365 -23 c 0
 277 -23 200 3 147 51 c 0
 98 95 76 153 76 235 c 2
 76 729 l 1
 226 729 l 1
 226 235 l 2
 226 147 271 105 365 105 c 0
 459 105 504 147 504 235 c 2
 504 729 l 1
314 936 m 1
 421 936 l 1
 524 786 l 1
 446 786 l 1
 364 886 l 1
 282 786 l 1
 206 786 l 1
 314 936 l 1
EndSplineSet
EndChar

StartChar: Udieresis
Encoding: 220 220 194
Width: 722
Flags: W
HStem: -23 128<321 409> 709 20<76 226 226 226 504 654 654 654> 800 122<217 327 217 327 217 403 403 513>
VStem: 76 150<235 729> 217 110<800 922 800 922> 403 110<800 922 800 922> 504 150<235 729>
LayerCount: 2
Fore
SplineSet
504 729 m 1xf2
 654 729 l 1
 654 235 l 2
 654 153 632 95 583 51 c 0
 530 3 453 -23 365 -23 c 0
 277 -23 200 3 147 51 c 0
 98 95 76 153 76 235 c 2
 76 729 l 1
 226 729 l 1
 226 235 l 2
 226 147 271 105 365 105 c 0
 459 105 504 147 504 235 c 2
 504 729 l 1xf2
327 922 m 1xec
 327 800 l 1
 217 800 l 1
 217 922 l 1
 327 922 l 1xec
513 922 m 1
 513 800 l 1
 403 800 l 1
 403 922 l 1
 513 922 l 1
EndSplineSet
EndChar

StartChar: Ugrave
Encoding: 217 217 195
Width: 722
Flags: MW
HStem: -23 128<321 409> 709 20<76 226 226 226 504 654 654 654>
VStem: 76 150<235 729> 504 150<235 729>
LayerCount: 2
Fore
SplineSet
504 729 m 1
 654 729 l 1
 654 235 l 2
 654 153 632 95 583 51 c 0
 530 3 453 -23 365 -23 c 0
 277 -23 200 3 147 51 c 0
 98 95 76 153 76 235 c 2
 76 729 l 1
 226 729 l 1
 226 235 l 2
 226 147 271 105 365 105 c 0
 459 105 504 147 504 235 c 2
 504 729 l 1
228 936 m 1
 354 936 l 1
 424 786 l 1
 354 786 l 1
 228 936 l 1
EndSplineSet
EndChar

StartChar: Yacute
Encoding: 221 221 196
Width: 667
Flags: MW
HStem: 0 20 709 20<27 194 194 194 482 650 650 650>
VStem: 269 150<0 270 0 270>
LayerCount: 2
Fore
SplineSet
419 270 m 1
 419 0 l 1
 269 0 l 1
 269 270 l 1
 27 729 l 1
 194 729 l 1
 343 407 l 1
 482 729 l 1
 650 729 l 1
 419 270 l 1
480 936 m 1
 354 786 l 1
 284 786 l 1
 354 936 l 1
 480 936 l 1
EndSplineSet
EndChar

StartChar: Ydieresis
Encoding: 376 376 197
Width: 667
Flags: W
HStem: 0 20 709 20<27 194 194 194 482 650 650 650> 800 122<194 304 194 304 194 380 380 490>
VStem: 194 110<729 922 800 922 800 922> 269 150<0 270 0 270> 380 110<800 922 800 922>
LayerCount: 2
Fore
SplineSet
419 270 m 1xe8
 419 0 l 1
 269 0 l 1
 269 270 l 1xe8
 27 729 l 1
 194 729 l 1xf0
 343 407 l 1
 482 729 l 1
 650 729 l 1
 419 270 l 1xe8
304 922 m 1xf4
 304 800 l 1
 194 800 l 1
 194 922 l 1
 304 922 l 1xf4
490 922 m 1
 490 800 l 1
 380 800 l 1
 380 922 l 1
 490 922 l 1
EndSplineSet
EndChar

StartChar: Zcaron
Encoding: 381 381 198
Width: 611
Flags: MW
HStem: 0 125<206 578 30 30> 604 125<30 403 30 578 30 578>
LayerCount: 2
Fore
SplineSet
578 729 m 1
 578 604 l 1
 206 125 l 1
 578 125 l 1
 578 0 l 1
 30 0 l 1
 30 125 l 1
 403 604 l 1
 30 604 l 1
 30 729 l 1
 578 729 l 1
359 786 m 1
 251 786 l 1
 148 936 l 1
 226 936 l 1
 308 839 l 1
 390 936 l 1
 466 936 l 1
 359 786 l 1
EndSplineSet
EndChar

StartChar: aacute
Encoding: 225 225 199
Width: 556
Flags: W
HStem: -23 113<220.5 222> 0 20 436 113<239.5 301>
VStem: 28 140<135 176 135 187.5> 355 137<217 255 255 255 373 383>
LayerCount: 2
Fore
SplineSet
524 17 m 1xb8
 524 0 l 1
 372 0 l 1x58
 359 16 356 26 356 54 c 1
 306 2 252 -23 192 -23 c 0
 93 -23 28 42 28 139 c 0
 28 236 80 291 187 309 c 1
 243 319 l 1
 312 330 312 330 331 340 c 0
 346 349 355 364 355 382 c 0
 355 418 328 436 274 436 c 0
 205 436 182 418 175 362 c 1
 40 362 l 1
 49 487 125 549 271 549 c 0
 417 549 492 493 492 383 c 2
 492 83 l 2
 492 56 500 40 524 17 c 1xb8
355 217 m 2x98
 355 255 l 1
 339 247 333 245 296 238 c 2
 248 229 l 1
 190 217 168 197 168 155 c 0
 168 115 197 90 244 90 c 0
 315 90 355 136 355 217 c 2x98
411 757 m 1
 285 607 l 1
 215 607 l 1
 285 757 l 1
 411 757 l 1
EndSplineSet
EndChar

StartChar: acircumflex
Encoding: 226 226 200
Width: 556
Flags: W
HStem: -23 113<220.5 222> 0 20 436 113<239.5 301>
VStem: 28 140<135 176 135 187.5> 355 137<217 255 255 255 373 383>
LayerCount: 2
Fore
SplineSet
524 17 m 1xb8
 524 0 l 1
 372 0 l 1x58
 359 16 356 26 356 54 c 1
 306 2 252 -23 192 -23 c 0
 93 -23 28 42 28 139 c 0
 28 236 80 291 187 309 c 1
 243 319 l 1
 312 330 312 330 331 340 c 0
 346 349 355 364 355 382 c 0
 355 418 328 436 274 436 c 0
 205 436 182 418 175 362 c 1
 40 362 l 1
 49 487 125 549 271 549 c 0
 417 549 492 493 492 383 c 2
 492 83 l 2
 492 56 500 40 524 17 c 1xb8
355 217 m 2x98
 355 255 l 1
 339 247 333 245 296 238 c 2
 248 229 l 1
 190 217 168 197 168 155 c 0
 168 115 197 90 244 90 c 0
 315 90 355 136 355 217 c 2x98
221 757 m 1
 328 757 l 1
 431 607 l 1
 353 607 l 1
 272 707 l 1
 189 607 l 1
 113 607 l 1
 221 757 l 1
EndSplineSet
EndChar

StartChar: adieresis
Encoding: 228 228 201
Width: 556
Flags: W
HStem: -23 113<220.5 222> 0 20 436 113<239.5 301> 621 122<124 234 124 234 124 310 310 420>
VStem: 28 140<135 176 135 187.5> 124 110<621 743 621 743> 310 110<621 743 621 743> 355 137<217 255 255 255 373 383>
LayerCount: 2
Fore
SplineSet
524 17 m 1xa9
 524 0 l 1
 372 0 l 1x49
 359 16 356 26 356 54 c 1
 306 2 252 -23 192 -23 c 0
 93 -23 28 42 28 139 c 0
 28 236 80 291 187 309 c 1
 243 319 l 1
 312 330 312 330 331 340 c 0
 346 349 355 364 355 382 c 0
 355 418 328 436 274 436 c 0
 205 436 182 418 175 362 c 1
 40 362 l 1
 49 487 125 549 271 549 c 0
 417 549 492 493 492 383 c 2
 492 83 l 2
 492 56 500 40 524 17 c 1xa9
355 217 m 2
 355 255 l 1
 339 247 333 245 296 238 c 2
 248 229 l 1
 190 217 168 197 168 155 c 0
 168 115 197 90 244 90 c 0x99
 315 90 355 136 355 217 c 2
234 743 m 1x96
 234 621 l 1
 124 621 l 1
 124 743 l 1
 234 743 l 1x96
420 743 m 1
 420 621 l 1
 310 621 l 1
 310 743 l 1
 420 743 l 1
EndSplineSet
EndChar

StartChar: agrave
Encoding: 224 224 202
Width: 556
Flags: W
HStem: -23 113<220.5 222> 0 20 436 113<239.5 301>
VStem: 28 140<135 176 135 187.5> 355 137<217 255 255 255 373 383>
LayerCount: 2
Fore
SplineSet
524 17 m 1xb8
 524 0 l 1
 372 0 l 1x58
 359 16 356 26 356 54 c 1
 306 2 252 -23 192 -23 c 0
 93 -23 28 42 28 139 c 0
 28 236 80 291 187 309 c 1
 243 319 l 1
 312 330 312 330 331 340 c 0
 346 349 355 364 355 382 c 0
 355 418 328 436 274 436 c 0
 205 436 182 418 175 362 c 1
 40 362 l 1
 49 487 125 549 271 549 c 0
 417 549 492 493 492 383 c 2
 492 83 l 2
 492 56 500 40 524 17 c 1xb8
355 217 m 2x98
 355 255 l 1
 339 247 333 245 296 238 c 2
 248 229 l 1
 190 217 168 197 168 155 c 0
 168 115 197 90 244 90 c 0
 315 90 355 136 355 217 c 2x98
132 757 m 1
 258 757 l 1
 328 607 l 1
 258 607 l 1
 132 757 l 1
EndSplineSet
EndChar

StartChar: aring
Encoding: 229 229 203
Width: 556
Flags: W
HStem: -23 113<220.5 222> 0 20 436 113<239.5 301> 590 48<261 284 261 296.5> 722 48<261 284.5>
VStem: 28 140<135 176 135 187.5> 182 48<668.5 692 668.5 705.5> 314 48<668.5 692> 355 137<217 255 255 255 373 383>
LayerCount: 2
Fore
SplineSet
524 17 m 1xa680
 524 0 l 1
 372 0 l 1x4680
 359 16 356 26 356 54 c 1
 306 2 252 -23 192 -23 c 0
 93 -23 28 42 28 139 c 0
 28 236 80 291 187 309 c 1
 243 319 l 1
 312 330 312 330 331 340 c 0
 346 349 355 364 355 382 c 0
 355 418 328 436 274 436 c 0
 205 436 182 418 175 362 c 1
 40 362 l 1
 49 487 125 549 271 549 c 0
 417 549 492 493 492 383 c 2
 492 83 l 2
 492 56 500 40 524 17 c 1xa680
355 217 m 2
 355 255 l 1
 339 247 333 245 296 238 c 2
 248 229 l 1
 190 217 168 197 168 155 c 0
 168 115 197 90 244 90 c 0x9e80
 315 90 355 136 355 217 c 2
273 770 m 0
 323 770 362 731 362 679 c 0x9b
 362 630 321 590 272 590 c 0
 222 590 182 630 182 680 c 0
 182 731 222 770 273 770 c 0
273 722 m 0
 249 722 230 704 230 680 c 0
 230 657 249 638 273 638 c 0
 295 638 314 657 314 680 c 0
 314 704 296 722 273 722 c 0
EndSplineSet
EndChar

StartChar: atilde
Encoding: 227 227 204
Width: 556
Flags: W
HStem: -23 113<220.5 222> 0 20 436 113<239.5 301> 622 79<346.5 360.5 346.5 383.5> 666 79<186 199 162 202.5> 729 20<387 449 449 449>
VStem: 28 140<135 176 135 187.5> 355 137<217 255 255 255 373 383>
LayerCount: 2
Fore
SplineSet
524 17 m 1xa3
 524 0 l 1
 372 0 l 1x43
 359 16 356 26 356 54 c 1
 306 2 252 -23 192 -23 c 0
 93 -23 28 42 28 139 c 0
 28 236 80 291 187 309 c 1
 243 319 l 1
 312 330 312 330 331 340 c 0
 346 349 355 364 355 382 c 0
 355 418 328 436 274 436 c 0
 205 436 182 418 175 362 c 1
 40 362 l 1
 49 487 125 549 271 549 c 0
 417 549 492 493 492 383 c 2
 492 83 l 2
 492 56 500 40 524 17 c 1xa3
355 217 m 2x97
 355 255 l 1
 339 247 333 245 296 238 c 2
 248 229 l 1
 190 217 168 197 168 155 c 0
 168 115 197 90 244 90 c 0
 315 90 355 136 355 217 c 2x97
387 749 m 1
 449 749 l 1
 445 664 413 622 354 622 c 0x17
 339 622 320 626 300 634 c 2
 228 660 l 2
 217 664 207 666 198 666 c 0
 174 666 163 653 158 621 c 1
 95 621 l 1
 99 699 134 745 190 745 c 0x0b
 208 745 209 745 245 732 c 2
 317 707 l 2
 323 704 343 701 350 701 c 0
 371 701 383 717 387 749 c 1
EndSplineSet
EndChar

StartChar: ccedilla
Encoding: 231 231 205
Width: 556
Flags: MW
HStem: -220 50<240.5 264 234 304.5> -94 184<244.5 316> 436 113<268 316.5>
VStem: 34 140<231.5 285.5 231.5 351> 305 87<-140.5 -118.5>
LayerCount: 2
Fore
SplineSet
291 -23 m 1
 274 -63 l 1
 287 -58 300 -56 315 -56 c 0
 363 -56 392 -83 392 -127 c 0
 392 -187 346 -220 263 -220 c 0
 218 -220 187 -214 125 -192 c 1
 144 -140 l 1
 194 -163 220 -170 248 -170 c 0
 280 -170 305 -152 305 -129 c 0
 305 -108 285 -94 254 -94 c 0
 235 -94 224 -97 205 -106 c 1
 248 -21 l 1
 110 -3 34 95 34 259 c 0
 34 443 127 549 289 549 c 0
 425 549 512 470 522 338 c 1
 388 338 l 1
 372 409 345 436 288 436 c 0
 248 436 217 420 201 390 c 0
 184 358 174 311 174 260 c 0
 174 203 188 151 212 122 c 0
 228 102 258 90 289 90 c 0
 343 90 371 117 388 187 c 1
 522 187 l 1
 511 62 416 -24 291 -23 c 1
EndSplineSet
EndChar

StartChar: eacute
Encoding: 233 233 206
Width: 556
Flags: MW
HStem: -23 107<254 299.5 254 329.5> 226 93<164 379 164 524 162 379> 442 107<239 302>
LayerCount: 2
Fore
SplineSet
524 226 m 1
 162 226 l 1
 164 175 169 151 182 131 c 0
 202 101 234 84 274 84 c 0
 325 84 364 109 381 152 c 1
 519 152 l 1
 488 45 390 -23 269 -23 c 0
 116 -23 22 83 22 256 c 0
 22 437 117 549 272 549 c 0
 381 549 468 490 504 392 c 0
 517 354 525 304 525 250 c 0
 525 243 525 238 524 226 c 1
164 319 m 1
 379 319 l 1
 372 399 334 442 270 442 c 0
 208 442 173 402 164 319 c 1
419 757 m 1
 293 607 l 1
 223 607 l 1
 293 757 l 1
 419 757 l 1
EndSplineSet
EndChar

StartChar: ecircumflex
Encoding: 234 234 207
Width: 556
Flags: MW
HStem: -23 107<254 299.5 254 329.5> 226 93<164 379 164 524 162 379> 442 107<239 302>
LayerCount: 2
Fore
SplineSet
524 226 m 1
 162 226 l 1
 164 175 169 151 182 131 c 0
 202 101 234 84 274 84 c 0
 325 84 364 109 381 152 c 1
 519 152 l 1
 488 45 390 -23 269 -23 c 0
 116 -23 22 83 22 256 c 0
 22 437 117 549 272 549 c 0
 381 549 468 490 504 392 c 0
 517 354 525 304 525 250 c 0
 525 243 525 238 524 226 c 1
164 319 m 1
 379 319 l 1
 372 399 334 442 270 442 c 0
 208 442 173 402 164 319 c 1
229 757 m 1
 336 757 l 1
 439 607 l 1
 361 607 l 1
 280 707 l 1
 197 607 l 1
 121 607 l 1
 229 757 l 1
EndSplineSet
EndChar

StartChar: edieresis
Encoding: 235 235 208
Width: 556
Flags: MW
HStem: -23 107<254 299.5 254 329.5> 226 93<164 379 164 524 162 379> 442 107<239 302> 621 122<132 242 132 242 132 318 318 428>
VStem: 132 110<621 743 621 743> 318 110<621 743 621 743>
LayerCount: 2
Fore
SplineSet
524 226 m 1
 162 226 l 1
 164 175 169 151 182 131 c 0
 202 101 234 84 274 84 c 0
 325 84 364 109 381 152 c 1
 519 152 l 1
 488 45 390 -23 269 -23 c 0
 116 -23 22 83 22 256 c 0
 22 437 117 549 272 549 c 0
 381 549 468 490 504 392 c 0
 517 354 525 304 525 250 c 0
 525 243 525 238 524 226 c 1
164 319 m 1
 379 319 l 1
 372 399 334 442 270 442 c 0
 208 442 173 402 164 319 c 1
242 743 m 1
 242 621 l 1
 132 621 l 1
 132 743 l 1
 242 743 l 1
428 743 m 1
 428 621 l 1
 318 621 l 1
 318 743 l 1
 428 743 l 1
EndSplineSet
EndChar

StartChar: egrave
Encoding: 232 232 209
Width: 556
Flags: MW
HStem: -23 107<254 299.5 254 329.5> 226 93<164 379 164 524 162 379> 442 107<239 302>
LayerCount: 2
Fore
SplineSet
524 226 m 1
 162 226 l 1
 164 175 169 151 182 131 c 0
 202 101 234 84 274 84 c 0
 325 84 364 109 381 152 c 1
 519 152 l 1
 488 45 390 -23 269 -23 c 0
 116 -23 22 83 22 256 c 0
 22 437 117 549 272 549 c 0
 381 549 468 490 504 392 c 0
 517 354 525 304 525 250 c 0
 525 243 525 238 524 226 c 1
164 319 m 1
 379 319 l 1
 372 399 334 442 270 442 c 0
 208 442 173 402 164 319 c 1
133 757 m 1
 260 757 l 1
 329 607 l 1
 260 607 l 1
 133 757 l 1
EndSplineSet
EndChar

StartChar: iacute
Encoding: 237 237 210
Width: 278
Flags: MW
HStem: 0 20 520 20<67 207 207 207>
VStem: 67 140<0 540 0 540>
LayerCount: 2
Fore
SplineSet
207 540 m 1
 207 0 l 1
 67 0 l 1
 67 540 l 1
 207 540 l 1
290 757 m 1
 164 607 l 1
 94 607 l 1
 164 757 l 1
 290 757 l 1
EndSplineSet
EndChar

StartChar: icircumflex
Encoding: 238 238 211
Width: 278
Flags: MW
HStem: 0 20 520 20<67 207 207 207>
VStem: 67 140<0 540 0 540>
LayerCount: 2
Fore
SplineSet
207 540 m 1
 207 0 l 1
 67 0 l 1
 67 540 l 1
 207 540 l 1
89 757 m 1
 196 757 l 1
 299 607 l 1
 221 607 l 1
 139 707 l 1
 57 607 l 1
 -19 607 l 1
 89 757 l 1
EndSplineSet
EndChar

StartChar: idieresis
Encoding: 239 239 212
Width: 278
Flags: W
HStem: 0 20 520 20<67 207 207 207> 621 122<-9 101 -9 101 -9 177 177 287>
VStem: -9 110<621 743 621 743> 67 140<0 540 0 540> 177 110<621 743 621 743>
LayerCount: 2
Fore
SplineSet
207 540 m 1xe8
 207 0 l 1
 67 0 l 1
 67 540 l 1
 207 540 l 1xe8
101 743 m 1xf4
 101 621 l 1
 -9 621 l 1
 -9 743 l 1
 101 743 l 1xf4
287 743 m 1
 287 621 l 1
 177 621 l 1
 177 743 l 1
 287 743 l 1
EndSplineSet
EndChar

StartChar: igrave
Encoding: 236 236 213
Width: 278
Flags: MW
HStem: 0 20 520 20<67 207 207 207>
VStem: 67 140<0 540 0 540>
LayerCount: 2
Fore
SplineSet
207 540 m 1
 207 0 l 1
 67 0 l 1
 67 540 l 1
 207 540 l 1
-10 757 m 1
 116 757 l 1
 186 607 l 1
 116 607 l 1
 -10 757 l 1
EndSplineSet
EndChar

StartChar: ntilde
Encoding: 241 241 214
Width: 611
Flags: W
HStem: 0 20 430 119<328.5 346> 520 20<63 203 203 203> 622 79<375.5 389.5 375.5 412.5> 666 79<215 228 191 231.5> 729 20<416 478 478 478>
VStem: 63 140<0 324 462 540> 406 140<0 333 333 362 0 365>
LayerCount: 2
Fore
SplineSet
63 540 m 1xa3
 203 540 l 1x37
 203 462 l 1
 243 523 292 549 365 549 c 0
 481 549 546 482 546 362 c 2
 546 0 l 1
 406 0 l 1
 406 333 l 2
 406 397 376 430 316 430 c 0xc3
 247 430 203 388 203 324 c 2
 203 0 l 1
 63 0 l 1
 63 540 l 1xa3
416 749 m 1
 478 749 l 1
 474 664 442 622 383 622 c 0x17
 368 622 349 626 329 634 c 2
 257 660 l 2
 246 664 236 666 227 666 c 0
 203 666 192 653 187 621 c 1
 124 621 l 1
 128 699 163 745 219 745 c 0x0b
 237 745 238 745 274 732 c 2
 346 707 l 2
 352 704 372 701 379 701 c 0
 400 701 412 717 416 749 c 1
EndSplineSet
EndChar

StartChar: oacute
Encoding: 243 243 215
Width: 611
Flags: MW
HStem: -23 113<264 339.5 264 384.5> 436 113<264 340.5>
VStem: 35 140<211 315 211 351.5> 429 140<210.5 314>
LayerCount: 2
Fore
SplineSet
301 549 m 0
 470 549 569 442 569 259 c 0
 569 85 467 -23 302 -23 c 0
 136 -23 35 85 35 263 c 0
 35 440 136 549 301 549 c 0
302 436 m 0
 226 436 175 367 175 263 c 0
 175 159 226 90 302 90 c 0
 377 90 429 160 429 261 c 0
 429 367 379 436 302 436 c 0
441 757 m 1
 315 607 l 1
 245 607 l 1
 315 757 l 1
 441 757 l 1
EndSplineSet
EndChar

StartChar: ocircumflex
Encoding: 244 244 216
Width: 611
Flags: MW
HStem: -23 113<264 339.5 264 384.5> 436 113<264 340.5>
VStem: 35 140<211 315 211 351.5> 429 140<210.5 314>
LayerCount: 2
Fore
SplineSet
301 549 m 0
 470 549 569 442 569 259 c 0
 569 85 467 -23 302 -23 c 0
 136 -23 35 85 35 263 c 0
 35 440 136 549 301 549 c 0
302 436 m 0
 226 436 175 367 175 263 c 0
 175 159 226 90 302 90 c 0
 377 90 429 160 429 261 c 0
 429 367 379 436 302 436 c 0
251 757 m 1
 358 757 l 1
 461 607 l 1
 383 607 l 1
 301 707 l 1
 219 607 l 1
 143 607 l 1
 251 757 l 1
EndSplineSet
EndChar

StartChar: odieresis
Encoding: 246 246 217
Width: 611
Flags: W
HStem: -23 113<264 339.5 264 384.5> 436 113<264 340.5> 621 122<154 264 154 264 154 340 340 450>
VStem: 35 140<211 315 211 351.5> 154 110<621 743 621 743> 340 110<621 743 621 743> 429 140<210.5 314>
LayerCount: 2
Fore
SplineSet
301 549 m 0xf2
 470 549 569 442 569 259 c 0
 569 85 467 -23 302 -23 c 0
 136 -23 35 85 35 263 c 0
 35 440 136 549 301 549 c 0xf2
302 436 m 0
 226 436 175 367 175 263 c 0
 175 159 226 90 302 90 c 0
 377 90 429 160 429 261 c 0
 429 367 379 436 302 436 c 0
264 743 m 1xec
 264 621 l 1
 154 621 l 1
 154 743 l 1
 264 743 l 1xec
450 743 m 1
 450 621 l 1
 340 621 l 1
 340 743 l 1
 450 743 l 1
EndSplineSet
EndChar

StartChar: ograve
Encoding: 242 242 218
Width: 611
Flags: MW
HStem: -23 113<264 339.5 264 384.5> 436 113<264 340.5>
VStem: 35 140<211 315 211 351.5> 429 140<210.5 314>
LayerCount: 2
Fore
SplineSet
301 549 m 0
 470 549 569 442 569 259 c 0
 569 85 467 -23 302 -23 c 0
 136 -23 35 85 35 263 c 0
 35 440 136 549 301 549 c 0
302 436 m 0
 226 436 175 367 175 263 c 0
 175 159 226 90 302 90 c 0
 377 90 429 160 429 261 c 0
 429 367 379 436 302 436 c 0
165 757 m 1
 291 757 l 1
 361 607 l 1
 291 607 l 1
 165 757 l 1
EndSplineSet
EndChar

StartChar: otilde
Encoding: 245 245 219
Width: 611
Flags: W
HStem: -23 113<264 339.5 264 384.5> 436 113<264 340.5> 622 79<380 394 380 417> 666 79<219.5 232 195 236> 729 20<420 482 482 482>
VStem: 35 140<211 315 211 351.5> 429 140<210.5 314>
LayerCount: 2
Fore
SplineSet
301 549 m 0xee
 470 549 569 442 569 259 c 0
 569 85 467 -23 302 -23 c 0
 136 -23 35 85 35 263 c 0
 35 440 136 549 301 549 c 0xee
302 436 m 0
 226 436 175 367 175 263 c 0
 175 159 226 90 302 90 c 0
 377 90 429 160 429 261 c 0
 429 367 379 436 302 436 c 0
420 749 m 1
 482 749 l 1
 478 664 447 622 387 622 c 0x2e
 372 622 353 626 333 634 c 2
 262 660 l 2
 250 664 241 666 231 666 c 0
 208 666 196 653 191 621 c 1
 128 621 l 1
 132 699 167 745 223 745 c 0x16
 241 745 242 745 278 732 c 2
 350 707 l 2
 357 704 376 701 384 701 c 0
 404 701 416 717 420 749 c 1
EndSplineSet
EndChar

StartChar: scaron
Encoding: 353 353 220
Width: 556
Flags: MW
HStem: -23 110<257.5 308.5 257.5 321.5> 439 110<244.5 302.5>
VStem: 48 140<378 404 378 424.5> 380 140<133.5 151>
LayerCount: 2
Fore
SplineSet
505 366 m 1
 370 366 l 1
 369 415 336 439 269 439 c 0
 220 439 188 419 188 389 c 0
 188 367 198 359 237 347 c 2
 414 296 l 2
 485 275 520 230 520 160 c 0
 520 107 496 57 456 25 c 0
 416 -7 359 -23 284 -23 c 0
 120 -23 33 38 29 157 c 1
 166 157 l 1
 172 128 178 117 193 106 c 0
 211 93 239 87 276 87 c 0
 341 87 380 107 380 140 c 0
 380 162 368 173 333 184 c 2
 166 236 l 2
 114 253 97 262 78 281 c 1
 59 302 48 333 48 369 c 0
 48 480 133 549 270 549 c 0
 415 549 503 480 505 366 c 1
333 607 m 1
 225 607 l 1
 122 757 l 1
 200 757 l 1
 282 660 l 1
 364 757 l 1
 440 757 l 1
 333 607 l 1
EndSplineSet
EndChar

StartChar: uacute
Encoding: 250 250 221
Width: 611
Flags: W
HStem: -23 119<258 275.5> 0 20 520 20<58 198 198 198 401 541 541 541>
VStem: 58 140<164 193 193 540> 401 140<0 64 64 64 202 540>
LayerCount: 2
Fore
SplineSet
541 0 m 1x78
 401 0 l 1x58
 401 64 l 1
 361 3 312 -23 239 -23 c 0
 123 -23 58 44 58 164 c 2
 58 540 l 1
 198 540 l 1
 198 193 l 2
 198 128 228 96 288 96 c 0xb8
 357 96 401 138 401 202 c 2
 401 540 l 1
 541 540 l 1
 541 0 l 1x78
438 757 m 1
 312 607 l 1
 242 607 l 1
 312 757 l 1
 438 757 l 1
EndSplineSet
EndChar

StartChar: ucircumflex
Encoding: 251 251 222
Width: 611
Flags: W
HStem: -23 119<258 275.5> 0 20 520 20<58 198 198 198 401 541 541 541>
VStem: 58 140<164 193 193 540> 401 140<0 64 64 64 202 540>
LayerCount: 2
Fore
SplineSet
541 0 m 1x78
 401 0 l 1x58
 401 64 l 1
 361 3 312 -23 239 -23 c 0
 123 -23 58 44 58 164 c 2
 58 540 l 1
 198 540 l 1
 198 193 l 2
 198 128 228 96 288 96 c 0xb8
 357 96 401 138 401 202 c 2
 401 540 l 1
 541 540 l 1
 541 0 l 1x78
248 757 m 1
 355 757 l 1
 458 607 l 1
 381 607 l 1
 299 707 l 1
 217 607 l 1
 140 607 l 1
 248 757 l 1
EndSplineSet
EndChar

StartChar: udieresis
Encoding: 252 252 223
Width: 611
Flags: W
HStem: -23 119<258 275.5> 0 20 520 20<58 198 198 198 401 541 541 541> 621 122<151 261 151 261 151 337 337 447>
VStem: 58 140<164 193 193 540> 151 110<621 743 621 743> 337 110<621 743 621 743> 401 140<0 64 64 64 202 540>
LayerCount: 2
Fore
SplineSet
541 0 m 1x69
 401 0 l 1x59
 401 64 l 1
 361 3 312 -23 239 -23 c 0
 123 -23 58 44 58 164 c 2
 58 540 l 1
 198 540 l 1
 198 193 l 2
 198 128 228 96 288 96 c 0xa9
 357 96 401 138 401 202 c 2
 401 540 l 1
 541 540 l 1
 541 0 l 1x69
261 743 m 1x56
 261 621 l 1
 151 621 l 1
 151 743 l 1
 261 743 l 1x56
447 743 m 1
 447 621 l 1
 337 621 l 1
 337 743 l 1
 447 743 l 1
EndSplineSet
EndChar

StartChar: ugrave
Encoding: 249 249 224
Width: 611
Flags: W
HStem: -23 119<258 275.5> 0 20 520 20<58 198 198 198 401 541 541 541>
VStem: 58 140<164 193 193 540> 401 140<0 64 64 64 202 540>
LayerCount: 2
Fore
SplineSet
541 0 m 1x78
 401 0 l 1x58
 401 64 l 1
 361 3 312 -23 239 -23 c 0
 123 -23 58 44 58 164 c 2
 58 540 l 1
 198 540 l 1
 198 193 l 2
 198 128 228 96 288 96 c 0xb8
 357 96 401 138 401 202 c 2
 401 540 l 1
 541 540 l 1
 541 0 l 1x78
163 757 m 1
 289 757 l 1
 359 607 l 1
 289 607 l 1
 163 757 l 1
EndSplineSet
EndChar

StartChar: yacute
Encoding: 253 253 225
Width: 556
Flags: MW
HStem: -219 103<127.5 149 117.5 154> 520 20<9 163 163 163 394 538 538 538>
LayerCount: 2
Fore
SplineSet
394 540 m 1
 538 540 l 1
 316 -99 l 2
 293 -164 276 -186 237 -202 c 0
 212 -212 172 -219 136 -219 c 0
 119 -219 107 -218 86 -215 c 1
 86 -110 l 1
 103 -114 112 -116 123 -116 c 0
 175 -116 210 -78 210 -22 c 1
 9 540 l 1
 163 540 l 1
 282 147 l 1
 394 540 l 1
412 757 m 1
 286 607 l 1
 216 607 l 1
 286 757 l 1
 412 757 l 1
EndSplineSet
EndChar

StartChar: ydieresis
Encoding: 255 255 226
Width: 556
Flags: MW
HStem: -219 103<127.5 149 117.5 154> 520 20<9 163 163 163 394 538 538 538> 621 122<125 235 125 235 125 311 311 421>
VStem: 125 110<621 743 621 743> 311 110<621 743 621 743>
LayerCount: 2
Fore
SplineSet
394 540 m 1
 538 540 l 1
 316 -99 l 2
 293 -164 276 -186 237 -202 c 0
 212 -212 172 -219 136 -219 c 0
 119 -219 107 -218 86 -215 c 1
 86 -110 l 1
 103 -114 112 -116 123 -116 c 0
 175 -116 210 -78 210 -22 c 1
 9 540 l 1
 163 540 l 1
 282 147 l 1
 394 540 l 1
235 743 m 1
 235 621 l 1
 125 621 l 1
 125 743 l 1
 235 743 l 1
421 743 m 1
 421 621 l 1
 311 621 l 1
 311 743 l 1
 421 743 l 1
EndSplineSet
EndChar

StartChar: zcaron
Encoding: 382 382 227
Width: 500
Flags: MW
HStem: 0 113<194 468 21 21> 427 113<39 288 39 459 39 459>
LayerCount: 2
Fore
SplineSet
459 540 m 1
 459 427 l 1
 194 113 l 1
 468 113 l 1
 468 0 l 1
 21 0 l 1
 21 113 l 1
 288 427 l 1
 39 427 l 1
 39 540 l 1
 459 540 l 1
303 607 m 1
 195 607 l 1
 92 757 l 1
 170 757 l 1
 252 660 l 1
 334 757 l 1
 410 757 l 1
 303 607 l 1
EndSplineSet
EndChar

StartChar: nsuperior
Encoding: 8319 8319 228
Width: 396
Flags: MW
HStem: 517 77<218 227>
VStem: 42 98<267 429 546 586> 261 98<267 458 458 465 267 478.5>
LayerCount: 2
Fore
SplineSet
42 586 m 1
 140 586 l 1
 140 546 l 1
 166 580 196 594 240 594 c 0
 284 594 324 575 343 545 c 0
 355 527 359 505 359 465 c 2
 359 267 l 1
 261 267 l 1
 261 458 l 2
 261 499 245 517 209 517 c 0
 161 517 140 490 140 429 c 2
 140 267 l 1
 42 267 l 1
 42 586 l 1
EndSplineSet
EndChar

StartChar: ff
Encoding: 64256 64256 229
Width: 666
Flags: MW
HStem: 0 20 436 93<14 90 14 90 230 313 347 423 563 646> 624 105<181.5 274.5>
VStem: 90 140<0 436 0 436 529 582> 423 140<0 436 0 436 529 582>
LayerCount: 2
Fore
SplineSet
313 529 m 1
 313 436 l 1
 230 436 l 1
 230 0 l 1
 90 0 l 1
 90 436 l 1
 14 436 l 1
 14 529 l 1
 90 529 l 1
 90 594 l 2
 90 685 135 729 228 729 c 0
 249 729 278 728 308 726 c 1
 308 621 l 1
 294 623 281 624 268 624 c 0
 242 624 230 610 230 582 c 2
 230 529 l 1
 313 529 l 1
646 529 m 1
 646 436 l 1
 563 436 l 1
 563 0 l 1
 423 0 l 1
 423 436 l 1
 347 436 l 1
 347 529 l 1
 423 529 l 1
 423 594 l 2
 423 685 468 729 561 729 c 0
 582 729 611 728 641 726 c 1
 641 621 l 1
 627 623 614 624 601 624 c 0
 575 624 563 610 563 582 c 2
 563 529 l 1
 646 529 l 1
EndSplineSet
EndChar

StartChar: ffi
Encoding: 64259 64259 230
Width: 943
Flags: W
HStem: 0 20 436 93<14 90 14 90 230 313 347 423 563 646> 520 20<733 873 873 873> 604 125<733 873> 624 105<181.5 274.5>
VStem: 90 140<0 436 0 436 529 582> 423 140<0 436 0 436 529 582> 733 140<0 540 0 540 604 729>
LayerCount: 2
Fore
SplineSet
313 529 m 1xcf
 313 436 l 1
 230 436 l 1
 230 0 l 1
 90 0 l 1
 90 436 l 1
 14 436 l 1
 14 529 l 1
 90 529 l 1
 90 594 l 2
 90 685 135 729 228 729 c 0
 249 729 278 728 308 726 c 1
 308 621 l 1
 294 623 281 624 268 624 c 0
 242 624 230 610 230 582 c 2
 230 529 l 1
 313 529 l 1xcf
646 529 m 1
 646 436 l 1
 563 436 l 1
 563 0 l 1
 423 0 l 1
 423 436 l 1
 347 436 l 1
 347 529 l 1
 423 529 l 1
 423 594 l 2
 423 685 468 729 561 729 c 0
 582 729 611 728 641 726 c 1
 641 621 l 1
 627 623 614 624 601 624 c 0
 575 624 563 610 563 582 c 2
 563 529 l 1
 646 529 l 1
873 540 m 1xb7
 873 0 l 1
 733 0 l 1
 733 540 l 1
 873 540 l 1xb7
873 729 m 1
 873 604 l 1
 733 604 l 1
 733 729 l 1
 873 729 l 1
EndSplineSet
EndChar

StartChar: ffl
Encoding: 64260 64260 231
Width: 943
Flags: MW
HStem: 0 20 436 93<14 90 14 90 230 313 347 423 563 646> 624 105<181.5 274.5>
VStem: 90 140<0 436 0 436 529 582> 423 140<0 436 0 436 529 582> 733 140<0 729 0 729>
LayerCount: 2
Fore
SplineSet
313 529 m 1
 313 436 l 1
 230 436 l 1
 230 0 l 1
 90 0 l 1
 90 436 l 1
 14 436 l 1
 14 529 l 1
 90 529 l 1
 90 594 l 2
 90 685 135 729 228 729 c 0
 249 729 278 728 308 726 c 1
 308 621 l 1
 294 623 281 624 268 624 c 0
 242 624 230 610 230 582 c 2
 230 529 l 1
 313 529 l 1
646 529 m 1
 646 436 l 1
 563 436 l 1
 563 0 l 1
 423 0 l 1
 423 436 l 1
 347 436 l 1
 347 529 l 1
 423 529 l 1
 423 594 l 2
 423 685 468 729 561 729 c 0
 582 729 611 728 641 726 c 1
 641 621 l 1
 627 623 614 624 601 624 c 0
 575 624 563 610 563 582 c 2
 563 529 l 1
 646 529 l 1
873 729 m 1
 873 0 l 1
 733 0 l 1
 733 729 l 1
 873 729 l 1
EndSplineSet
EndChar

StartChar: oneeighth
Encoding: 8539 8539 232
Width: 834
Flags: W
HStem: -20 20 -14 72<641.5 682.5 641.5 706.5> 198 57<644 681.5 644 682.5> 366 68<644 681.5>
VStem: 125 95<284 573 573 573> 511 84<106 148> 525 74<298.5 327.5 294.5 352> 726 73<298 327.5> 729 84<105.5 148 82.5 148.5>
LayerCount: 2
Fore
SplineSet
564 715 m 1x9b
 651 715 l 1
 228 -20 l 1
 141 -20 l 1
 564 715 l 1x9b
125 573 m 1
 18 573 l 1
 18 634 l 1
 96 634 142 659 156 709 c 1
 220 709 l 1
 220 284 l 1
 125 284 l 1
 125 573 l 1
743 232 m 1
 792 205 813 173 813 123 c 0
 813 42 751 -14 662 -14 c 0
 573 -14 511 42 511 123 c 0x7480
 511 173 532 205 581 232 c 1
 542 252 525 278 525 319 c 0
 525 385 583 434 662 434 c 0
 741 434 799 385 799 319 c 0
 799 277 783 253 743 232 c 1
663 366 m 0
 625 366 599 344 599 311 c 0
 599 278 625 255 663 255 c 0
 700 255 726 278 726 311 c 0x73
 726 344 700 366 663 366 c 0
662 198 m 0
 621 198 595 170 595 127 c 0
 595 85 621 58 662 58 c 0
 703 58 729 85 729 126 c 0x7480
 729 171 703 198 662 198 c 0
EndSplineSet
EndChar

StartChar: threeeighths
Encoding: 8540 8540 233
Width: 834
Flags: W
HStem: -20 20 -14 72<648.5 689.5 648.5 713.5> 198 57<650.5 688 650.5 689.5> 271 77<159 198 159 225.5> 366 68<650.5 688> 645 73<154.5 191>
VStem: 228 95<582.5 607.5> 242 95<390.5 422.5> 518 84<106 148> 532 74<298.5 327.5 294.5 352> 733 73<298 327.5> 736 84<105.5 148 82.5 148.5>
LayerCount: 2
Fore
SplineSet
597 715 m 1x8860
 684 715 l 1
 261 -20 l 1
 174 -20 l 1
 597 715 l 1x8860
750 232 m 1
 799 205 820 173 820 123 c 0
 820 42 758 -14 669 -14 c 0
 580 -14 518 42 518 123 c 0x7c90
 518 173 539 205 588 232 c 1
 549 252 532 278 532 319 c 0
 532 385 590 434 669 434 c 0
 748 434 806 385 806 319 c 0
 806 277 790 253 750 232 c 1
669 366 m 0
 632 366 606 344 606 311 c 0
 606 278 632 255 669 255 c 0
 707 255 733 278 733 311 c 0x7c60
 733 344 707 366 669 366 c 0
669 198 m 0
 628 198 602 170 602 127 c 0
 602 85 628 58 669 58 c 0
 710 58 736 85 736 126 c 0x7d90
 736 171 710 198 669 198 c 0
142 471 m 1
 142 533 l 1
 152 533 l 2
 202 533 228 553 228 591 c 0
 228 624 207 645 175 645 c 0
 134 645 119 626 118 571 c 1
 29 571 l 1
 32 621 39 646 58 669 c 0
 83 701 126 718 178 718 c 0
 266 718 323 672 323 601 c 0x7e
 323 564 305 533 271 512 c 1
 315 490 337 456 337 409 c 0
 337 325 274 271 177 271 c 0
 80 271 24 323 23 414 c 1
 115 414 l 1
 117 369 138 348 180 348 c 0
 216 348 242 373 242 408 c 0
 242 437 224 460 196 467 c 0
 187 469 169 471 142 471 c 1
EndSplineSet
EndChar

StartChar: fiveeighths
Encoding: 8541 8541 234
Width: 834
Flags: W
HStem: -20 20 -14 72<648.5 689.5 648.5 713.5> 198 57<651 688 651 689.5> 286 72<143.5 183 143.5 206> 366 68<651.5 688.5> 522 66<167 183> 651 75<121 297 121 121>
VStem: 230 84<414 465> 518 84<106 148> 533 74<298.5 327 295 352> 733 73<298 327> 736 84<105.5 148 82.5 148.5>
LayerCount: 2
Fore
SplineSet
584 715 m 1x8860
 671 715 l 1
 248 -20 l 1
 161 -20 l 1
 584 715 l 1x8860
750 232 m 1
 799 205 820 173 820 123 c 0
 820 42 758 -14 669 -14 c 0
 580 -14 518 42 518 123 c 0x7e90
 518 173 539 205 588 232 c 1
 549 252 533 278 533 319 c 0
 533 385 591 434 670 434 c 0
 748 434 806 385 806 319 c 0
 806 277 790 253 750 232 c 1
670 366 m 0
 633 366 607 343 607 311 c 0
 607 279 633 255 669 255 c 0
 707 255 733 278 733 311 c 0x7e60
 733 343 707 366 670 366 c 0
669 198 m 0
 628 198 602 170 602 127 c 0
 602 85 628 58 669 58 c 0
 710 58 736 85 736 126 c 0x7f90
 736 171 710 198 669 198 c 0
297 726 m 1
 297 651 l 1
 121 651 l 1
 108 562 l 1
 132 581 153 588 181 588 c 0
 260 588 314 528 314 441 c 0
 314 349 252 286 160 286 c 0
 77 286 19 338 20 411 c 1
 102 411 l 1
 104 376 125 358 162 358 c 0
 204 358 230 389 230 439 c 0
 230 491 205 522 161 522 c 0
 136 522 117 510 108 489 c 1
 32 489 l 1
 70 726 l 1
 297 726 l 1
EndSplineSet
EndChar

StartChar: seveneighths
Encoding: 8542 8542 235
Width: 834
Flags: W
HStem: -20 20 -14 72<632.5 673.5 632.5 697.5> 198 57<634.5 672 634.5 673.5> 366 68<635 672.5> 651 75<53 264 53 352>
VStem: 502 84<106 148> 516 74<298.5 327.5 294.5 352> 717 73<298 327.5> 720 84<105.5 148 82.5 148.5>
LayerCount: 2
Fore
SplineSet
555 715 m 1x93
 642 715 l 1
 219 -20 l 1
 132 -20 l 1
 555 715 l 1x93
734 232 m 1
 783 205 804 173 804 123 c 0
 804 42 742 -14 653 -14 c 0
 564 -14 502 42 502 123 c 0x7c80
 502 173 523 205 572 232 c 1
 533 252 516 278 516 319 c 0
 516 385 574 434 653 434 c 0
 732 434 790 385 790 319 c 0
 790 277 774 253 734 232 c 1
654 366 m 0
 616 366 590 344 590 311 c 0
 590 278 616 255 653 255 c 0
 691 255 717 278 717 311 c 0x7b
 717 344 691 366 654 366 c 0
653 198 m 0
 612 198 586 170 586 127 c 0
 586 85 612 58 653 58 c 0
 694 58 720 85 720 126 c 0x7c80
 720 171 694 198 653 198 c 0
352 726 m 1
 352 660 l 1
 252 538 208 435 200 300 c 1
 115 300 l 1
 133 446 172 538 264 651 c 1
 53 651 l 1
 53 726 l 1
 352 726 l 1
EndSplineSet
EndChar

StartChar: zerosuperior
Encoding: 8304 8304 236
Width: 333
Flags: MW
HStem: 270 77<140 186 140 187.5> 644 74<140 186>
VStem: 6 95<456 535> 225 95<451 530.5 451 549.5>
LayerCount: 2
Fore
SplineSet
163 718 m 0
 217 718 261 696 288 654 c 0
 310 621 320 570 320 491 c 0
 320 411 308 358 281 325 c 1
 253 289 212 270 163 270 c 0
 110 270 66 293 38 333 c 1
 17 366 6 418 6 494 c 0
 6 576 18 630 45 663 c 1
 72 699 114 718 163 718 c 0
163 644 m 0
 117 644 101 606 101 494 c 0
 101 384 117 347 163 347 c 0
 209 347 225 384 225 493 c 0
 225 606 209 644 163 644 c 0
EndSplineSet
EndChar

StartChar: foursuperior
Encoding: 8308 8308 237
Width: 333
Flags: MW
HStem: 377 75<76 182 76 182 3 182 277 323>
VStem: 182 95<284 377 284 377 452 616 616 616>
LayerCount: 2
Fore
SplineSet
323 452 m 1
 323 377 l 1
 277 377 l 1
 277 284 l 1
 182 284 l 1
 182 377 l 1
 3 377 l 1
 3 451 l 1
 168 709 l 1
 277 709 l 1
 277 452 l 1
 323 452 l 1
182 452 m 1
 182 616 l 1
 76 452 l 1
 182 452 l 1
EndSplineSet
EndChar

StartChar: fivesuperior
Encoding: 8309 8309 238
Width: 333
Flags: W
HStem: 271 77<140 180 140 206> 470 239<59 104 18 304> 502 72<166 180> 629 80<119 304 119 119>
VStem: 227 95<400.5 448.5>
LayerCount: 2
Fore
SplineSet
304 709 m 1x48
 304 629 l 1
 119 629 l 1
 106 552 l 1
 137 570 152 574 180 574 c 0
 264 574 322 514 322 426 c 0
 322 334 255 271 157 271 c 0
 67 271 5 324 7 400 c 1
 100 400 l 1
 101 366 121 348 159 348 c 0
 201 348 227 377 227 424 c 0
 227 473 202 502 158 502 c 0xb8
 132 502 113 491 104 470 c 1
 18 470 l 1
 59 709 l 1
 304 709 l 1x48
EndSplineSet
EndChar

StartChar: sixsuperior
Encoding: 8310 8310 239
Width: 333
Flags: MW
HStem: 270 77<147 185 147 214.5> 494 72<171 186.5> 644 74<159.5 188>
VStem: 8 94<398 561> 231 91<399.5 443.5>
LayerCount: 2
Fore
SplineSet
315 607 m 1
 227 607 l 1
 215 635 202 644 174 644 c 0
 145 644 125 630 113 601 c 0
 107 587 105 572 104 537 c 1
 129 557 155 566 187 566 c 0
 268 566 322 510 322 427 c 0
 322 334 260 270 169 270 c 0
 115 270 67 293 41 333 c 0
 18 368 8 415 8 485 c 0
 8 637 66 718 177 718 c 0
 226 718 269 700 292 669 c 0
 304 653 310 637 315 607 c 1
167 494 m 0
 128 494 102 464 102 419 c 0
 102 377 128 347 166 347 c 0
 204 347 231 378 231 421 c 0
 231 466 206 494 167 494 c 0
EndSplineSet
EndChar

StartChar: sevensuperior
Encoding: 8311 8311 240
Width: 333
Flags: MW
HStem: 629 80<6 224 6 327>
LayerCount: 2
Fore
SplineSet
327 709 m 1
 327 640 l 1
 220 519 175 419 167 284 c 1
 71 284 l 1
 90 430 127 514 224 629 c 1
 6 629 l 1
 6 709 l 1
 327 709 l 1
EndSplineSet
EndChar

StartChar: eightsuperior
Encoding: 8312 8312 241
Width: 333
Flags: W
HStem: 270 77<143 183.5 143 212> 478 63<146 183 146 184> 644 74<145.5 183>
VStem: 2 95<392 432 392 432.5> 17 84<584 608 577.5 635.5> 227 83<584.5 608> 230 95<391.5 431.5>
LayerCount: 2
Fore
SplineSet
256 515 m 1xec
 306 487 325 457 325 408 c 0
 325 326 260 270 164 270 c 0
 67 270 2 326 2 408 c 0xf2
 2 457 22 488 71 515 c 1
 31 544 17 566 17 602 c 0
 17 669 80 718 164 718 c 0
 247 718 310 669 310 602 c 0
 310 567 297 545 256 515 c 1xec
164 644 m 0
 127 644 101 623 101 593 c 0
 101 562 127 541 165 541 c 0
 201 541 227 563 227 593 c 0
 227 623 202 644 164 644 c 0
163 478 m 0xf2
 123 478 97 452 97 412 c 0
 97 372 123 347 163 347 c 0
 204 347 230 372 230 411 c 0
 230 452 205 478 163 478 c 0xf2
EndSplineSet
EndChar

StartChar: ninesuperior
Encoding: 8313 8313 242
Width: 333
Flags: MW
HStem: 270 77<139.5 177.5 139.5 207.5> 419 75<139 161> 644 74<139 178>
VStem: 6 91<545 591.5 545 612> 223 97<428.5 591>
LayerCount: 2
Fore
SplineSet
12 388 m 1
 104 388 l 1
 105 362 124 347 155 347 c 0
 200 347 225 384 225 451 c 1
 201 428 178 419 144 419 c 0
 62 419 6 479 6 567 c 0
 6 657 69 718 160 718 c 0
 215 718 260 694 289 648 c 0
 310 615 320 568 320 506 c 0
 320 351 262 270 153 270 c 0
 72 270 13 319 12 388 c 1
158 644 m 0
 120 644 97 615 97 568 c 0
 97 522 120 494 158 494 c 0
 197 494 223 523 223 567 c 0
 223 615 198 644 158 644 c 0
EndSplineSet
EndChar

StartChar: IJ
Encoding: 306 306 243
Width: 785
Flags: W
HStem: -23 128<465.5 520 465.5 565.5> 0 20 709 20<64 214 214 214 575 725 725 725>
VStem: 64 150<0 729 0 729> 263 150<198 200 200 270 166.5 270> 575 150<190 729>
LayerCount: 2
Fore
SplineSet
214 729 m 1x7c
 214 0 l 1
 64 0 l 1
 64 729 l 1
 214 729 l 1x7c
575 729 m 1
 725 729 l 1
 725 190 l 2
 725 54 640 -23 491 -23 c 0
 422 -23 366 -3 324 35 c 0
 281 75 263 122 263 198 c 2
 263 270 l 1
 413 270 l 1
 413 200 l 2
 413 133 437 105 494 105 c 0xbc
 546 105 575 135 575 190 c 2
 575 729 l 1
EndSplineSet
EndChar

StartChar: Abreve
Encoding: 258 258 244
Width: 722
Flags: MW
HStem: 0 20 147 125<270 460 270 501 228 460> 709 20<285 451 451 451> 784 77<339.5 384.5 339.5 399.5>
LayerCount: 2
Fore
SplineSet
501 147 m 1
 228 147 l 1
 179 0 l 1
 26 0 l 1
 285 729 l 1
 451 729 l 1
 703 0 l 1
 549 0 l 1
 501 147 l 1
460 272 m 1
 365 557 l 1
 270 272 l 1
 460 272 l 1
438 927 m 1
 493 927 l 1
 494 922 494 918 494 916 c 0
 494 841 437 784 362 784 c 0
 282 784 232 838 230 927 c 1
 285 927 l 1
 292 882 317 861 362 861 c 0
 407 861 429 880 438 927 c 1
EndSplineSet
EndChar

StartChar: Aogonek
Encoding: 260 260 245
Width: 722
Flags: MW
HStem: -233 51<639 661.5> 0 20 147 125<270 460 270 501 228 460> 709 20<285 451 451 451>
VStem: 500 90<-147.5 -108.5>
LayerCount: 2
Fore
SplineSet
501 147 m 1
 228 147 l 1
 179 0 l 1
 26 0 l 1
 285 729 l 1
 451 729 l 1
 703 0 l 1
 634 -30 590 -80 590 -129 c 0
 590 -166 613 -182 665 -182 c 0
 685 -182 704 -180 723 -177 c 1
 723 -224 l 1
 696 -230 675 -233 648 -233 c 0
 553 -233 500 -199 500 -138 c 0
 500 -79 546 -28 624 0 c 1
 549 0 l 1
 501 147 l 1
460 272 m 1
 365 557 l 1
 270 272 l 1
 460 272 l 1
EndSplineSet
EndChar

StartChar: Cacute
Encoding: 262 262 246
Width: 722
Flags: MW
HStem: -23 126<320 424.5 320 465> 613 128<324 426.5>
VStem: 44 150<276.5 436.5 276.5 476>
LayerCount: 2
Fore
SplineSet
682 482 m 1
 539 482 l 1
 519 571 470 613 383 613 c 0
 265 613 194 517 194 356 c 0
 194 197 262 103 378 103 c 0
 471 103 529 156 539 249 c 1
 685 249 l 1
 676 82 556 -23 374 -23 c 0
 171 -23 44 123 44 358 c 0
 44 594 172 741 378 741 c 0
 487 741 577 700 633 626 c 0
 664 585 677 545 682 482 c 1
510 936 m 1
 384 786 l 1
 314 786 l 1
 384 936 l 1
 510 936 l 1
EndSplineSet
EndChar

StartChar: Ccaron
Encoding: 268 268 247
Width: 722
Flags: MW
HStem: -23 126<320 424.5 320 465> 613 128<324 426.5>
VStem: 44 150<276.5 436.5 276.5 476>
LayerCount: 2
Fore
SplineSet
682 482 m 1
 539 482 l 1
 519 571 470 613 383 613 c 0
 265 613 194 517 194 356 c 0
 194 197 262 103 378 103 c 0
 471 103 529 156 539 249 c 1
 685 249 l 1
 676 82 556 -23 374 -23 c 0
 171 -23 44 123 44 358 c 0
 44 594 172 741 378 741 c 0
 487 741 577 700 633 626 c 0
 664 585 677 545 682 482 c 1
427 786 m 1
 320 786 l 1
 217 936 l 1
 295 936 l 1
 376 839 l 1
 459 936 l 1
 535 936 l 1
 427 786 l 1
EndSplineSet
EndChar

StartChar: Cdotaccent
Encoding: 266 266 248
Width: 722
Flags: MW
HStem: -23 126<320 424.5 320 465> 613 128<324 426.5> 800 122<310 420 310 420>
VStem: 44 150<276.5 436.5 276.5 476> 310 110<800 922 800 922>
LayerCount: 2
Fore
SplineSet
682 482 m 1
 539 482 l 1
 519 571 470 613 383 613 c 0
 265 613 194 517 194 356 c 0
 194 197 262 103 378 103 c 0
 471 103 529 156 539 249 c 1
 685 249 l 1
 676 82 556 -23 374 -23 c 0
 171 -23 44 123 44 358 c 0
 44 594 172 741 378 741 c 0
 487 741 577 700 633 626 c 0
 664 585 677 545 682 482 c 1
420 922 m 1
 420 800 l 1
 310 800 l 1
 310 922 l 1
 420 922 l 1
EndSplineSet
EndChar

StartChar: Dcaron
Encoding: 270 270 249
Width: 722
Flags: MW
HStem: 0 125<227 362 227 362> 604 125<227 362 227 227>
VStem: 77 150<125 125 125 604> 531 150<308 421.5 308 444.5>
LayerCount: 2
Fore
SplineSet
77 0 m 1
 77 729 l 1
 362 729 l 2
 474 729 543 704 593 645 c 0
 650 576 681 478 681 365 c 0
 681 251 650 153 593 85 c 0
 543 26 473 0 362 0 c 2
 77 0 l 1
227 125 m 1
 362 125 l 2
 475 125 531 204 531 364 c 0
 531 525 475 604 362 604 c 2
 227 604 l 1
 227 125 l 1
391 786 m 1
 283 786 l 1
 180 936 l 1
 258 936 l 1
 340 839 l 1
 422 936 l 1
 498 936 l 1
 391 786 l 1
EndSplineSet
EndChar

StartChar: Dcroat
Encoding: 272 272 250
Width: 722
Flags: MW
HStem: 0 125<227 362 227 362> 339 80<0 77 0 77 227 377> 604 125<227 362 227 227>
VStem: 77 150<125 339 125 339 125 339 419 604> 537 144<324 404.5>
LayerCount: 2
Fore
SplineSet
77 339 m 1
 0 339 l 1
 0 419 l 1
 77 419 l 1
 77 729 l 1
 362 729 l 2
 477 729 544 704 593 645 c 1
 648 576 681 473 681 365 c 0
 681 257 648 153 593 85 c 0
 545 25 476 0 362 0 c 2
 77 0 l 1
 77 339 l 1
227 339 m 1
 227 125 l 1
 362 125 l 2
 427 125 465 141 491 179 c 0
 522 223 537 284 537 364 c 0
 537 445 522 506 491 550 c 0
 465 588 427 604 362 604 c 2
 227 604 l 1
 227 419 l 1
 377 419 l 1
 377 339 l 1
 227 339 l 1
EndSplineSet
EndChar

StartChar: Ecaron
Encoding: 282 282 251
Width: 667
Flags: MW
HStem: 0 125<229 624 229 624> 314 125<229 578 229 578> 604 125<229 606 229 229>
VStem: 79 150<125 314 125 439 439 604>
LayerCount: 2
Fore
SplineSet
229 314 m 1
 229 125 l 1
 624 125 l 1
 624 0 l 1
 79 0 l 1
 79 729 l 1
 606 729 l 1
 606 604 l 1
 229 604 l 1
 229 439 l 1
 578 439 l 1
 578 314 l 1
 229 314 l 1
396 786 m 1
 289 786 l 1
 186 936 l 1
 264 936 l 1
 346 839 l 1
 428 936 l 1
 504 936 l 1
 396 786 l 1
EndSplineSet
EndChar

StartChar: Edotaccent
Encoding: 278 278 252
Width: 667
Flags: MW
HStem: 0 125<229 624 229 624> 314 125<229 578 229 578> 604 125<229 606 229 229> 800 122<290 400 290 400>
VStem: 79 150<125 314 125 439 439 604> 290 110<800 922 800 922>
LayerCount: 2
Fore
SplineSet
229 314 m 1
 229 125 l 1
 624 125 l 1
 624 0 l 1
 79 0 l 1
 79 729 l 1
 606 729 l 1
 606 604 l 1
 229 604 l 1
 229 439 l 1
 578 439 l 1
 578 314 l 1
 229 314 l 1
400 922 m 1
 400 800 l 1
 290 800 l 1
 290 922 l 1
 400 922 l 1
EndSplineSet
EndChar

StartChar: Eogonek
Encoding: 280 280 253
Width: 667
Flags: MW
HStem: -233 51<565.5 588> 0 125<229 550 229 624> 314 125<229 578 229 578> 604 125<229 606 229 229>
VStem: 79 150<125 314 125 439 439 604> 425 91<-147 -110>
LayerCount: 2
Fore
SplineSet
229 314 m 1
 229 125 l 1
 624 125 l 1
 624 0 l 1
 553 -39 516 -82 516 -129 c 0
 516 -165 540 -182 591 -182 c 0
 611 -182 630 -180 648 -177 c 1
 648 -224 l 1
 621 -231 602 -233 574 -233 c 0
 479 -233 425 -198 425 -138 c 0
 425 -82 464 -39 550 0 c 1
 79 0 l 1
 79 729 l 1
 606 729 l 1
 606 604 l 1
 229 604 l 1
 229 439 l 1
 578 439 l 1
 578 314 l 1
 229 314 l 1
EndSplineSet
EndChar

StartChar: Gbreve
Encoding: 286 286 254
Width: 778
Flags: MW
HStem: -23 128<339 428.5 339 432> 267 125<419 585 419 711> 613 128<332 422> 784 77<375.5 420.5 375.5 435.5>
VStem: 42 150<286 439.5 286 472.5>
LayerCount: 2
Fore
SplineSet
711 392 m 1
 711 -2 l 1
 621 -2 l 1
 603 94 l 1
 547 12 481 -23 383 -23 c 0
 186 -23 42 138 42 359 c 0
 42 586 185 741 395 741 c 0
 571 741 693 647 711 496 c 1
 570 496 l 1
 557 534 546 551 525 569 c 0
 492 598 448 613 396 613 c 0
 268 613 192 518 192 361 c 0
 192 211 278 105 400 105 c 0
 457 105 513 131 549 175 c 0
 571 201 581 226 585 267 c 1
 419 267 l 1
 419 392 l 1
 711 392 l 1
530 927 m 1
 530 916 l 2
 530 841 473 784 398 784 c 0
 322 784 266 841 266 917 c 2
 266 927 l 1
 322 927 l 1
 328 882 353 861 398 861 c 0
 443 861 465 880 474 927 c 1
 530 927 l 1
EndSplineSet
EndChar

StartChar: Gdotaccent
Encoding: 288 288 255
Width: 778
Flags: MW
HStem: -23 128<339 428.5 339 432> 267 125<419 585 419 711> 613 128<332 422> 800 122<322 432 322 432>
VStem: 42 150<286 439.5 286 472.5> 322 110<800 922 800 922>
LayerCount: 2
Fore
SplineSet
711 392 m 1
 711 -2 l 1
 621 -2 l 1
 603 94 l 1
 547 12 481 -23 383 -23 c 0
 186 -23 42 138 42 359 c 0
 42 586 185 741 395 741 c 0
 571 741 693 647 711 496 c 1
 570 496 l 1
 557 534 546 551 525 569 c 0
 492 598 448 613 396 613 c 0
 268 613 192 518 192 361 c 0
 192 211 278 105 400 105 c 0
 457 105 513 131 549 175 c 0
 571 201 581 226 585 267 c 1
 419 267 l 1
 419 392 l 1
 711 392 l 1
432 922 m 1
 432 800 l 1
 322 800 l 1
 322 922 l 1
 432 922 l 1
EndSplineSet
EndChar

StartChar: Idotaccent
Encoding: 304 304 256
Width: 278
Flags: W
HStem: 0 20 709 20<63 213 213 213> 800 122<83 193 83 193>
VStem: 63 150<0 729 0 729> 83 110<800 922 800 922>
LayerCount: 2
Fore
SplineSet
213 729 m 1xf0
 213 0 l 1
 63 0 l 1
 63 729 l 1
 213 729 l 1xf0
193 922 m 1xe8
 193 800 l 1
 83 800 l 1
 83 922 l 1
 193 922 l 1xe8
EndSplineSet
EndChar

StartChar: Lacute
Encoding: 313 313 257
Width: 611
Flags: MW
HStem: 0 125<230 579 230 579> 709 20<80 230 230 230>
VStem: 80 150<125 729 125 729 125 729>
LayerCount: 2
Fore
SplineSet
230 729 m 1
 230 125 l 1
 579 125 l 1
 579 0 l 1
 80 0 l 1
 80 729 l 1
 230 729 l 1
298 936 m 1
 172 786 l 1
 102 786 l 1
 172 936 l 1
 298 936 l 1
EndSplineSet
EndChar

StartChar: Lcaron
Encoding: 317 317 258
Width: 611
Flags: MW
HStem: 0 125<230 579 230 579> 617 112<330 397 80 330>
VStem: 80 150<125 729 125 729 125 729> 330 122<482 729 528 729 626 729 626 729 626 729>
LayerCount: 2
Fore
SplineSet
230 729 m 1
 230 125 l 1
 579 125 l 1
 579 0 l 1
 80 0 l 1
 80 729 l 1
 230 729 l 1
330 729 m 1
 452 729 l 1
 452 626 l 1
 455 548 400 484 330 482 c 1
 330 528 l 1
 376 537 398 567 397 617 c 1
 330 617 l 1
 330 729 l 1
EndSplineSet
EndChar

StartChar: Nacute
Encoding: 323 323 259
Width: 722
Flags: MW
HStem: 0 20 709 20<68 222 222 222 511 661 661 661>
VStem: 68 150<0 504 0 729> 511 150<0 729 233 729 0 729>
LayerCount: 2
Fore
SplineSet
511 0 m 1
 218 504 l 1
 218 0 l 1
 68 0 l 1
 68 729 l 1
 222 729 l 1
 511 233 l 1
 511 729 l 1
 661 729 l 1
 661 0 l 1
 511 0 l 1
500 936 m 1
 374 786 l 1
 304 786 l 1
 374 936 l 1
 500 936 l 1
EndSplineSet
EndChar

StartChar: Ncaron
Encoding: 327 327 260
Width: 722
Flags: MW
HStem: 0 20 709 20<68 222 222 222 511 661 661 661>
VStem: 68 150<0 504 0 729> 511 150<0 729 233 729 0 729>
LayerCount: 2
Fore
SplineSet
511 0 m 1
 218 504 l 1
 218 0 l 1
 68 0 l 1
 68 729 l 1
 222 729 l 1
 511 233 l 1
 511 729 l 1
 661 729 l 1
 661 0 l 1
 511 0 l 1
417 786 m 1
 310 786 l 1
 207 936 l 1
 285 936 l 1
 366 839 l 1
 449 936 l 1
 525 936 l 1
 417 786 l 1
EndSplineSet
EndChar

StartChar: Ohungarumlaut
Encoding: 336 336 261
Width: 778
Flags: MW
HStem: -23 128<339 443> 613 128<339 443 339 452.5>
VStem: 40 150<304.5 413.5> 592 150<302.5 411 302.5 434>
LayerCount: 2
Fore
SplineSet
390 741 m 0
 496 741 576 709 640 640 c 0
 705 571 742 468 742 354 c 0
 742 251 703 145 640 78 c 0
 577 10 495 -23 391 -23 c 0
 287 -23 205 10 142 78 c 0
 77 147 40 250 40 359 c 0
 40 468 77 570 142 640 c 0
 204 707 288 741 390 741 c 0
391 613 m 0
 269 613 190 513 190 359 c 0
 190 205 269 105 391 105 c 0
 511 105 592 205 592 355 c 0
 592 513 514 613 391 613 c 0
461 936 m 1
 335 789 l 1
 265 789 l 1
 335 936 l 1
 461 936 l 1
649 936 m 1
 523 789 l 1
 453 789 l 1
 523 936 l 1
 649 936 l 1
EndSplineSet
EndChar

StartChar: Racute
Encoding: 340 340 262
Width: 722
Flags: MW
HStem: 0 20 289 125<230 411 230 402> 604 125<230 411 230 230>
VStem: 80 150<0 289 414 604> 517 150<493.5 528>
LayerCount: 2
Fore
SplineSet
230 289 m 1
 230 0 l 1
 80 0 l 1
 80 729 l 1
 471 729 l 2
 533 729 579 713 612 679 c 0
 647 643 667 590 667 532 c 0
 667 443 626 384 544 352 c 1
 637 312 641 302 645 87 c 0
 645 55 654 40 677 27 c 1
 677 0 l 1
 516 0 l 1
 498 35 494 56 494 125 c 0
 494 136 494 154 495 173 c 1
 495 203 l 2
 495 263 467 289 402 289 c 2
 230 289 l 1
230 414 m 1
 411 414 l 2
 454 414 473 419 490 433 c 0
 508 448 517 476 517 511 c 0
 517 545 508 570 490 585 c 0
 471 600 454 604 411 604 c 2
 230 604 l 1
 230 414 l 1
494 936 m 1
 367 786 l 1
 298 786 l 1
 367 936 l 1
 494 936 l 1
EndSplineSet
EndChar

StartChar: Rcaron
Encoding: 344 344 263
Width: 722
Flags: MW
HStem: 0 20 289 125<230 411 230 402> 604 125<230 411 230 230>
VStem: 80 150<0 289 414 604> 517 150<493.5 528>
LayerCount: 2
Fore
SplineSet
230 289 m 1
 230 0 l 1
 80 0 l 1
 80 729 l 1
 471 729 l 2
 533 729 579 713 612 679 c 0
 647 643 667 590 667 532 c 0
 667 443 626 384 544 352 c 1
 637 312 641 302 645 87 c 0
 645 55 654 40 677 27 c 1
 677 0 l 1
 516 0 l 1
 498 35 494 56 494 125 c 0
 494 136 494 154 495 173 c 1
 495 203 l 2
 495 263 467 289 402 289 c 2
 230 289 l 1
230 414 m 1
 411 414 l 2
 454 414 473 419 490 433 c 0
 508 448 517 476 517 511 c 0
 517 545 508 570 490 585 c 0
 471 600 454 604 411 604 c 2
 230 604 l 1
 230 414 l 1
411 786 m 1
 303 786 l 1
 200 936 l 1
 278 936 l 1
 360 839 l 1
 442 936 l 1
 518 936 l 1
 411 786 l 1
EndSplineSet
EndChar

StartChar: Sacute
Encoding: 346 346 264
Width: 667
Flags: MW
HStem: -23 120<291 387.5 291 428> 621 120<275 361.5>
VStem: 45 143<504.5 558.5 504.5 588> 489 144<164.5 224.5>
LayerCount: 2
Fore
SplineSet
607 507 m 1
 467 507 l 1
 462 581 409 621 314 621 c 0
 236 621 188 586 188 531 c 0
 188 478 219 457 326 436 c 2
 440 414 l 2
 575 388 633 328 633 213 c 0
 633 64 522 -23 334 -23 c 0
 148 -23 41 62 32 218 c 1
 178 218 l 1
 183 140 240 97 342 97 c 0
 433 97 489 134 489 195 c 0
 489 254 452 282 352 301 c 2
 250 321 l 1
 102 349 45 404 45 517 c 0
 45 659 146 741 321 741 c 0
 505 741 606 658 607 507 c 1
466 936 m 1
 340 786 l 1
 270 786 l 1
 340 936 l 1
 466 936 l 1
EndSplineSet
EndChar

StartChar: Scedilla
Encoding: 350 350 265
Width: 667
Flags: MW
HStem: -220 50<290.5 313 283 354> -94 191<294 319> 621 120<275 361.5>
VStem: 45 143<504.5 558.5 504.5 588> 354 87<-140.5 -118.5> 489 144<164.5 224.5>
LayerCount: 2
Fore
SplineSet
340 -23 m 1
 323 -62 l 1
 338 -58 349 -56 364 -56 c 0
 412 -56 441 -82 441 -127 c 0
 441 -187 395 -220 313 -220 c 0
 268 -220 235 -213 174 -192 c 1
 193 -140 l 1
 244 -163 269 -170 297 -170 c 0
 329 -170 354 -152 354 -129 c 0
 354 -108 334 -94 304 -94 c 0
 284 -94 274 -96 255 -106 c 1
 297 -23 l 1
 126 -5 42 72 32 218 c 1
 178 218 l 1
 183 140 240 97 342 97 c 0
 433 97 489 134 489 195 c 0
 489 254 452 282 352 301 c 2
 250 321 l 1
 102 349 45 404 45 517 c 0
 45 659 146 741 321 741 c 0
 505 741 606 658 607 507 c 1
 467 507 l 1
 462 581 409 621 314 621 c 0
 236 621 188 586 188 531 c 0
 188 478 219 457 326 436 c 2
 440 414 l 2
 575 388 633 328 633 214 c 0
 633 65 535 -14 340 -23 c 1
EndSplineSet
EndChar

StartChar: Tcaron
Encoding: 356 356 266
Width: 611
Flags: MW
HStem: 0 20 604 125<14 235 14 598 385 598 385 385>
VStem: 235 150<0 604 0 604>
LayerCount: 2
Fore
SplineSet
385 604 m 1
 385 0 l 1
 235 0 l 1
 235 604 l 1
 14 604 l 1
 14 729 l 1
 598 729 l 1
 598 604 l 1
 385 604 l 1
362 786 m 1
 254 786 l 1
 151 936 l 1
 229 936 l 1
 311 839 l 1
 393 936 l 1
 469 936 l 1
 362 786 l 1
EndSplineSet
EndChar

StartChar: Uring
Encoding: 366 366 267
Width: 722
Flags: MW
HStem: -23 128<321 409> 709 20<76 226 226 226 504 654 654 654> 769 48<354 377 354 389.5> 901 48<354 377.5>
VStem: 76 150<235 729> 275 48<847.5 871 847.5 884.5> 407 48<847.5 871> 504 150<235 729>
LayerCount: 2
Fore
SplineSet
504 729 m 1
 654 729 l 1
 654 235 l 2
 654 153 632 95 583 51 c 0
 530 3 453 -23 365 -23 c 0
 277 -23 200 3 147 51 c 0
 98 95 76 153 76 235 c 2
 76 729 l 1
 226 729 l 1
 226 235 l 2
 226 147 271 105 365 105 c 0
 459 105 504 147 504 235 c 2
 504 729 l 1
366 949 m 0
 416 949 455 910 455 858 c 0
 455 809 414 769 365 769 c 0
 315 769 275 809 275 859 c 0
 275 910 315 949 366 949 c 0
366 901 m 0
 342 901 323 883 323 859 c 0
 323 836 342 817 366 817 c 0
 388 817 407 836 407 859 c 0
 407 883 389 901 366 901 c 0
EndSplineSet
EndChar

StartChar: Uhungarumlaut
Encoding: 368 368 268
Width: 722
Flags: MW
HStem: -23 128<321 409> 709 20<76 226 226 226 504 654 654 654>
VStem: 76 150<235 729> 504 150<235 729>
LayerCount: 2
Fore
SplineSet
504 729 m 1
 654 729 l 1
 654 235 l 2
 654 153 632 95 583 51 c 0
 530 3 453 -23 365 -23 c 0
 277 -23 200 3 147 51 c 0
 98 95 76 153 76 235 c 2
 76 729 l 1
 226 729 l 1
 226 235 l 2
 226 147 271 105 365 105 c 0
 459 105 504 147 504 235 c 2
 504 729 l 1
433 936 m 1
 307 789 l 1
 237 789 l 1
 307 936 l 1
 433 936 l 1
621 936 m 1
 495 789 l 1
 425 789 l 1
 495 936 l 1
 621 936 l 1
EndSplineSet
EndChar

StartChar: Zacute
Encoding: 377 377 269
Width: 611
Flags: MW
HStem: 0 125<206 578 30 30> 604 125<30 403 30 578 30 578>
LayerCount: 2
Fore
SplineSet
578 729 m 1
 578 604 l 1
 206 125 l 1
 578 125 l 1
 578 0 l 1
 30 0 l 1
 30 125 l 1
 403 604 l 1
 30 604 l 1
 30 729 l 1
 578 729 l 1
441 936 m 1
 315 786 l 1
 245 786 l 1
 315 936 l 1
 441 936 l 1
EndSplineSet
EndChar

StartChar: Zdotaccent
Encoding: 379 379 270
Width: 611
Flags: MW
HStem: 0 125<206 578 30 30> 604 125<30 403 30 578 30 578> 800 122<252 362 252 362>
VStem: 252 110<800 922 800 922>
LayerCount: 2
Fore
SplineSet
578 729 m 1
 578 604 l 1
 206 125 l 1
 578 125 l 1
 578 0 l 1
 30 0 l 1
 30 125 l 1
 403 604 l 1
 30 604 l 1
 30 729 l 1
 578 729 l 1
362 922 m 1
 362 800 l 1
 252 800 l 1
 252 922 l 1
 362 922 l 1
EndSplineSet
EndChar

StartChar: Amacron
Encoding: 256 256 271
Width: 722
Flags: MW
HStem: 0 20 147 125<270 460 270 501 228 460> 709 20<285 451 451 451> 819 79<215 514 215 514>
LayerCount: 2
Fore
SplineSet
501 147 m 1
 228 147 l 1
 179 0 l 1
 26 0 l 1
 285 729 l 1
 451 729 l 1
 703 0 l 1
 549 0 l 1
 501 147 l 1
460 272 m 1
 365 557 l 1
 270 272 l 1
 460 272 l 1
514 898 m 1
 514 819 l 1
 215 819 l 1
 215 898 l 1
 514 898 l 1
EndSplineSet
EndChar

StartChar: Tcommaaccent
Encoding: 354 354 272
Width: 611
Flags: W
HStem: -172 112<252 319 252 374> 0 20 604 125<14 235 14 598 385 598 385 385>
VStem: 235 150<0 604 0 604> 252 122<-307 -60 -261 -60 -163 -60 -163 -60 -163 -60>
LayerCount: 2
Fore
SplineSet
385 604 m 1xf0
 385 0 l 1
 235 0 l 1
 235 604 l 1
 14 604 l 1
 14 729 l 1
 598 729 l 1
 598 604 l 1
 385 604 l 1xf0
252 -60 m 1xe8
 374 -60 l 1
 374 -163 l 1
 377 -241 322 -305 252 -307 c 1
 252 -261 l 1
 298 -252 320 -222 319 -172 c 1
 252 -172 l 1
 252 -60 l 1xe8
EndSplineSet
EndChar

StartChar: uni021A
Encoding: 538 538 273
Width: 611
Flags: W
HStem: -172 112<252 319 252 374> 0 20 604 125<14 235 14 598 385 598 385 385>
VStem: 235 150<0 604 0 604> 252 122<-307 -60 -261 -60 -163 -60 -163 -60 -163 -60>
LayerCount: 2
Fore
SplineSet
385 604 m 1xf0
 385 0 l 1
 235 0 l 1
 235 604 l 1
 14 604 l 1
 14 729 l 1
 598 729 l 1
 598 604 l 1
 385 604 l 1xf0
252 -60 m 1xe8
 374 -60 l 1
 374 -163 l 1
 377 -241 322 -305 252 -307 c 1
 252 -261 l 1
 298 -252 320 -222 319 -172 c 1
 252 -172 l 1
 252 -60 l 1xe8
EndSplineSet
EndChar

StartChar: Ccircumflex
Encoding: 264 264 274
Width: 722
Flags: MW
HStem: -23 126<320 424.5 320 465> 613 128<324 426.5>
VStem: 44 150<276.5 436.5 276.5 476>
LayerCount: 2
Fore
SplineSet
682 482 m 1
 539 482 l 1
 519 571 470 613 383 613 c 0
 265 613 194 517 194 356 c 0
 194 197 262 103 378 103 c 0
 471 103 529 156 539 249 c 1
 685 249 l 1
 676 82 556 -23 374 -23 c 0
 171 -23 44 123 44 358 c 0
 44 594 172 741 378 741 c 0
 487 741 577 700 633 626 c 0
 664 585 677 545 682 482 c 1
319 936 m 1
 427 936 l 1
 530 786 l 1
 452 786 l 1
 370 886 l 1
 288 786 l 1
 212 786 l 1
 319 936 l 1
EndSplineSet
EndChar

StartChar: Wcircumflex
Encoding: 372 372 275
Width: 944
Flags: MW
HStem: 0 20 709 20<13 172 172 172 398 546 546 546 773 932 932 932>
LayerCount: 2
Fore
SplineSet
730 0 m 1
 595 0 l 1
 473 569 l 1
 354 0 l 1
 219 0 l 1
 13 729 l 1
 172 729 l 1
 285 183 l 1
 398 729 l 1
 546 729 l 1
 664 182 l 1
 773 729 l 1
 932 729 l 1
 730 0 l 1
421 936 m 1
 529 936 l 1
 632 786 l 1
 554 786 l 1
 472 886 l 1
 390 786 l 1
 314 786 l 1
 421 936 l 1
EndSplineSet
EndChar

StartChar: Wdieresis
Encoding: 7812 7812 276
Width: 944
Flags: MW
HStem: 0 20 709 20<13 172 172 172 398 546 546 546 773 932 932 932> 800 122<324 434 324 434 324 510 510 620>
VStem: 324 110<800 922 800 922> 510 110<800 922 800 922>
LayerCount: 2
Fore
SplineSet
730 0 m 1
 595 0 l 1
 473 569 l 1
 354 0 l 1
 219 0 l 1
 13 729 l 1
 172 729 l 1
 285 183 l 1
 398 729 l 1
 546 729 l 1
 664 182 l 1
 773 729 l 1
 932 729 l 1
 730 0 l 1
434 922 m 1
 434 800 l 1
 324 800 l 1
 324 922 l 1
 434 922 l 1
620 922 m 1
 620 800 l 1
 510 800 l 1
 510 922 l 1
 620 922 l 1
EndSplineSet
EndChar

StartChar: Ycircumflex
Encoding: 374 374 277
Width: 667
Flags: MW
HStem: 0 20 709 20<27 194 194 194 482 650 650 650>
VStem: 269 150<0 270 0 270>
LayerCount: 2
Fore
SplineSet
419 270 m 1
 419 0 l 1
 269 0 l 1
 269 270 l 1
 27 729 l 1
 194 729 l 1
 343 407 l 1
 482 729 l 1
 650 729 l 1
 419 270 l 1
283 936 m 1
 390 936 l 1
 493 786 l 1
 415 786 l 1
 333 886 l 1
 251 786 l 1
 175 786 l 1
 283 936 l 1
EndSplineSet
EndChar

StartChar: Hbar
Encoding: 294 294 278
Width: 722
Flags: MW
HStem: 0 20 331 125<218 507 218 507> 537 80<1 68 1 68 218 507 657 724> 709 20<68 218 218 218 507 657 657 657>
VStem: 68 150<0 331 0 456 456 537 617 729> 507 150<0 331 331 331 456 537 0 537 617 729>
LayerCount: 2
Fore
SplineSet
507 331 m 1
 218 331 l 1
 218 0 l 1
 68 0 l 1
 68 537 l 1
 1 537 l 1
 1 617 l 1
 68 617 l 1
 68 729 l 1
 218 729 l 1
 218 617 l 1
 507 617 l 1
 507 729 l 1
 657 729 l 1
 657 617 l 1
 724 617 l 1
 724 537 l 1
 657 537 l 1
 657 0 l 1
 507 0 l 1
 507 331 l 1
507 456 m 1
 507 537 l 1
 218 537 l 1
 218 456 l 1
 507 456 l 1
EndSplineSet
EndChar

StartChar: Emacron
Encoding: 274 274 279
Width: 667
Flags: MW
HStem: 0 125<229 624 229 624> 314 125<229 578 229 578> 604 125<229 606 229 229> 819 79<195 494 195 494>
VStem: 79 150<125 314 125 439 439 604>
LayerCount: 2
Fore
SplineSet
229 314 m 1
 229 125 l 1
 624 125 l 1
 624 0 l 1
 79 0 l 1
 79 729 l 1
 606 729 l 1
 606 604 l 1
 229 604 l 1
 229 439 l 1
 578 439 l 1
 578 314 l 1
 229 314 l 1
494 898 m 1
 494 819 l 1
 195 819 l 1
 195 898 l 1
 494 898 l 1
EndSplineSet
EndChar

StartChar: Gcircumflex
Encoding: 284 284 280
Width: 778
Flags: MW
HStem: -23 128<339 428.5 339 432> 267 125<419 585 419 711> 613 128<332 422>
VStem: 42 150<286 439.5 286 472.5>
LayerCount: 2
Fore
SplineSet
711 392 m 1
 711 -2 l 1
 621 -2 l 1
 603 94 l 1
 547 12 481 -23 383 -23 c 0
 186 -23 42 138 42 359 c 0
 42 586 185 741 395 741 c 0
 571 741 693 647 711 496 c 1
 570 496 l 1
 557 534 546 551 525 569 c 0
 492 598 448 613 396 613 c 0
 268 613 192 518 192 361 c 0
 192 211 278 105 400 105 c 0
 457 105 513 131 549 175 c 0
 571 201 581 226 585 267 c 1
 419 267 l 1
 419 392 l 1
 711 392 l 1
338 936 m 1
 446 936 l 1
 549 786 l 1
 471 786 l 1
 389 886 l 1
 307 786 l 1
 231 786 l 1
 338 936 l 1
EndSplineSet
EndChar

StartChar: Hcircumflex
Encoding: 292 292 281
Width: 722
Flags: W
HStem: 0 20 331 125<218 506 218 507 218 506> 709 20<68 218 218 218 506 657 657 657>
VStem: 68 150<0 331 0 456 456 729> 506 151<456 729 0 729> 507 150<0 331 331 331>
LayerCount: 2
Fore
SplineSet
507 331 m 1xe4
 218 331 l 1
 218 0 l 1
 68 0 l 1
 68 729 l 1
 218 729 l 1
 218 456 l 1
 506 456 l 1
 506 729 l 1
 657 729 l 1
 657 0 l 1xf8
 507 0 l 1
 507 331 l 1xe4
310 936 m 1
 418 936 l 1
 521 786 l 1
 443 786 l 1
 361 886 l 1
 279 786 l 1
 203 786 l 1
 310 936 l 1
EndSplineSet
EndChar

StartChar: Imacron
Encoding: 298 298 282
Width: 278
Flags: MW
HStem: 0 20 709 20<63 213 213 213> 819 79<2 274 2 274>
VStem: 63 150<0 729 0 729>
LayerCount: 2
Fore
SplineSet
213 729 m 1
 213 0 l 1
 63 0 l 1
 63 729 l 1
 213 729 l 1
274 898 m 1
 274 819 l 1
 2 819 l 1
 2 898 l 1
 274 898 l 1
EndSplineSet
EndChar

StartChar: Iogonek
Encoding: 302 302 283
Width: 278
Flags: MW
HStem: -233 51<168.5 178.5> 0 20 709 20<63 213 213 213>
VStem: 34 90<-146 -110>
LayerCount: 2
Fore
SplineSet
213 729 m 1
 213 0 l 1
 156 -41 124 -88 124 -131 c 0
 124 -161 150 -182 187 -182 c 0
 200 -182 221 -180 237 -177 c 1
 237 -224 l 1
 211 -230 190 -233 167 -233 c 0
 85 -233 34 -196 34 -136 c 0
 34 -84 70 -41 147 0 c 1
 63 0 l 1
 63 729 l 1
 213 729 l 1
EndSplineSet
EndChar

StartChar: Jcircumflex
Encoding: 308 308 284
Width: 556
Flags: MW
HStem: -23 128<226.5 281 226.5 326.5> 709 20<336 486 486 486>
VStem: 24 150<198 200 200 270 166.5 270> 336 150<190 729>
LayerCount: 2
Fore
SplineSet
336 729 m 1
 486 729 l 1
 486 190 l 2
 486 54 401 -23 252 -23 c 0
 183 -23 127 -3 85 35 c 0
 42 75 24 122 24 198 c 2
 24 270 l 1
 174 270 l 1
 174 200 l 2
 174 133 198 105 255 105 c 0
 307 105 336 135 336 190 c 2
 336 729 l 1
359 936 m 1
 467 936 l 1
 570 786 l 1
 492 786 l 1
 410 886 l 1
 328 786 l 1
 252 786 l 1
 359 936 l 1
EndSplineSet
EndChar

StartChar: Kcommaaccent
Encoding: 310 310 285
Width: 722
Flags: MW
HStem: -172 112<315 382 315 437> 0 20 709 20<74 224 224 224 509 686 686 686>
VStem: 74 150<0 244 409 729> 315 122<-307 -60 -261 -60 -163 -60 -163 -60 -163 -60>
LayerCount: 2
Fore
SplineSet
224 244 m 1
 224 0 l 1
 74 0 l 1
 74 729 l 1
 224 729 l 1
 224 409 l 1
 509 729 l 1
 686 729 l 1
 395 415 l 1
 717 0 l 1
 538 0 l 1
 299 322 l 1
 224 244 l 1
315 -60 m 1
 437 -60 l 1
 437 -163 l 1
 440 -241 385 -305 315 -307 c 1
 315 -261 l 1
 361 -252 383 -222 382 -172 c 1
 315 -172 l 1
 315 -60 l 1
EndSplineSet
EndChar

StartChar: Lcommaaccent
Encoding: 315 315 286
Width: 611
Flags: MW
HStem: -172 112<269 336 269 391> 0 125<230 579 230 579> 709 20<80 230 230 230>
VStem: 80 150<125 729 125 729 125 729> 269 122<-307 -60 -261 -60 -163 -60 -163 -60 -163 -60>
LayerCount: 2
Fore
SplineSet
230 729 m 1
 230 125 l 1
 579 125 l 1
 579 0 l 1
 80 0 l 1
 80 729 l 1
 230 729 l 1
269 -60 m 1
 391 -60 l 1
 391 -163 l 1
 394 -241 339 -305 269 -307 c 1
 269 -261 l 1
 315 -252 337 -222 336 -172 c 1
 269 -172 l 1
 269 -60 l 1
EndSplineSet
EndChar

StartChar: Ncommaaccent
Encoding: 325 325 287
Width: 722
Flags: MW
HStem: -172 112<300 367 300 422> 0 20 709 20<68 222 222 222 511 661 661 661>
VStem: 68 150<0 504 0 729> 300 122<-307 -60 -261 -60 -163 -60 -163 -60 -163 -60> 511 150<0 729 233 729 0 729>
LayerCount: 2
Fore
SplineSet
511 0 m 1
 218 504 l 1
 218 0 l 1
 68 0 l 1
 68 729 l 1
 222 729 l 1
 511 233 l 1
 511 729 l 1
 661 729 l 1
 661 0 l 1
 511 0 l 1
300 -60 m 1
 422 -60 l 1
 422 -163 l 1
 425 -241 370 -305 300 -307 c 1
 300 -261 l 1
 346 -252 368 -222 367 -172 c 1
 300 -172 l 1
 300 -60 l 1
EndSplineSet
EndChar

StartChar: Omacron
Encoding: 332 332 288
Width: 778
Flags: MW
HStem: -23 128<339 443> 613 128<339 443 339 452.5> 819 79<242 541 242 541>
VStem: 40 150<304.5 413.5> 592 150<302.5 411 302.5 434>
LayerCount: 2
Fore
SplineSet
390 741 m 0
 496 741 576 709 640 640 c 0
 705 571 742 468 742 354 c 0
 742 251 703 145 640 78 c 0
 577 10 495 -23 391 -23 c 0
 287 -23 205 10 142 78 c 0
 77 147 40 250 40 359 c 0
 40 468 77 570 142 640 c 0
 204 707 288 741 390 741 c 0
391 613 m 0
 269 613 190 513 190 359 c 0
 190 205 269 105 391 105 c 0
 511 105 592 205 592 355 c 0
 592 513 514 613 391 613 c 0
541 898 m 1
 541 819 l 1
 242 819 l 1
 242 898 l 1
 541 898 l 1
EndSplineSet
EndChar

StartChar: Rcommaaccent
Encoding: 342 342 289
Width: 722
Flags: MW
HStem: -172 112<318 385 318 440> 0 20 289 125<230 411 230 402> 604 125<230 411 230 230>
VStem: 80 150<0 289 414 604> 318 122<-307 -60 -261 -60 -163 -60 -163 -60 -163 -60> 517 150<493.5 528>
LayerCount: 2
Fore
SplineSet
230 289 m 1
 230 0 l 1
 80 0 l 1
 80 729 l 1
 471 729 l 2
 533 729 579 713 612 679 c 0
 647 643 667 590 667 532 c 0
 667 443 626 384 544 352 c 1
 637 312 641 302 645 87 c 0
 645 55 654 40 677 27 c 1
 677 0 l 1
 516 0 l 1
 498 35 494 56 494 125 c 0
 494 136 494 154 495 173 c 1
 495 203 l 2
 495 263 467 289 402 289 c 2
 230 289 l 1
230 414 m 1
 411 414 l 2
 454 414 473 419 490 433 c 0
 508 448 517 476 517 511 c 0
 517 545 508 570 490 585 c 0
 471 600 454 604 411 604 c 2
 230 604 l 1
 230 414 l 1
318 -60 m 1
 440 -60 l 1
 440 -163 l 1
 443 -241 388 -305 318 -307 c 1
 318 -261 l 1
 364 -252 386 -222 385 -172 c 1
 318 -172 l 1
 318 -60 l 1
EndSplineSet
EndChar

StartChar: Scircumflex
Encoding: 348 348 290
Width: 667
Flags: MW
HStem: -23 120<291 387.5 291 428> 621 120<275 361.5>
VStem: 45 143<504.5 558.5 504.5 588> 489 144<164.5 224.5>
LayerCount: 2
Fore
SplineSet
607 507 m 1
 467 507 l 1
 462 581 409 621 314 621 c 0
 236 621 188 586 188 531 c 0
 188 478 219 457 326 436 c 2
 440 414 l 2
 575 388 633 328 633 213 c 0
 633 64 522 -23 334 -23 c 0
 148 -23 41 62 32 218 c 1
 178 218 l 1
 183 140 240 97 342 97 c 0
 433 97 489 134 489 195 c 0
 489 254 452 282 352 301 c 2
 250 321 l 1
 102 349 45 404 45 517 c 0
 45 659 146 741 321 741 c 0
 505 741 606 658 607 507 c 1
267 936 m 1
 374 936 l 1
 477 786 l 1
 399 786 l 1
 317 886 l 1
 235 786 l 1
 159 786 l 1
 267 936 l 1
EndSplineSet
EndChar

StartChar: Gcommaaccent
Encoding: 290 290 291
Width: 778
Flags: MW
HStem: -172 112<332 399 332 454> -23 128<339 428.5 339 432> 267 125<419 585 419 711> 613 128<332 422>
VStem: 42 150<286 439.5 286 472.5> 332 122<-307 -60 -261 -60 -163 -60 -163 -60 -163 -60>
LayerCount: 2
Fore
SplineSet
711 392 m 1
 711 -2 l 1
 621 -2 l 1
 603 94 l 1
 547 12 481 -23 383 -23 c 0
 186 -23 42 138 42 359 c 0
 42 586 185 741 395 741 c 0
 571 741 693 647 711 496 c 1
 570 496 l 1
 557 534 546 551 525 569 c 0
 492 598 448 613 396 613 c 0
 268 613 192 518 192 361 c 0
 192 211 278 105 400 105 c 0
 457 105 513 131 549 175 c 0
 571 201 581 226 585 267 c 1
 419 267 l 1
 419 392 l 1
 711 392 l 1
332 -60 m 1
 454 -60 l 1
 454 -163 l 1
 457 -241 402 -305 332 -307 c 1
 332 -261 l 1
 378 -252 400 -222 399 -172 c 1
 332 -172 l 1
 332 -60 l 1
EndSplineSet
EndChar

StartChar: Umacron
Encoding: 362 362 292
Width: 722
Flags: MW
HStem: -23 128<321 409> 709 20<76 226 226 226 504 654 654 654> 819 79<216 515 216 515>
VStem: 76 150<235 729> 504 150<235 729>
LayerCount: 2
Fore
SplineSet
504 729 m 1
 654 729 l 1
 654 235 l 2
 654 153 632 95 583 51 c 0
 530 3 453 -23 365 -23 c 0
 277 -23 200 3 147 51 c 0
 98 95 76 153 76 235 c 2
 76 729 l 1
 226 729 l 1
 226 235 l 2
 226 147 271 105 365 105 c 0
 459 105 504 147 504 235 c 2
 504 729 l 1
515 898 m 1
 515 819 l 1
 216 819 l 1
 216 898 l 1
 515 898 l 1
EndSplineSet
EndChar

StartChar: Uogonek
Encoding: 370 370 293
Width: 722
Flags: MW
HStem: -234 51<513 531.5> -23 128<322.5 387.5> 709 20<76 226 226 226 504 654 654 654>
VStem: 76 150<235 729> 373 89<-149 -114.5 -149 -114> 504 150<235 729 235 729>
LayerCount: 2
Fore
SplineSet
597 -177 m 1
 597 -224 l 1
 570 -231 546 -234 517 -234 c 0
 490 -234 465 -230 441 -222 c 0
 395 -207 373 -179 373 -138 c 0
 373 -90 400 -55 477 -7 c 1
 430 -20 407 -23 368 -23 c 0
 277 -23 200 3 147 51 c 0
 98 95 76 153 76 235 c 2
 76 729 l 1
 226 729 l 1
 226 235 l 2
 226 147 271 105 365 105 c 0
 459 105 504 147 504 235 c 2
 504 729 l 1
 654 729 l 1
 654 235 l 1
 650 129 635 98 527 -13 c 1
 481 -62 462 -97 462 -132 c 0
 462 -166 487 -183 539 -183 c 0
 560 -183 578 -181 597 -177 c 1
EndSplineSet
EndChar

StartChar: Ebreve
Encoding: 276 276 294
Width: 667
Flags: MW
HStem: 0 125<229 624 229 624> 314 125<229 578 229 578> 604 125<229 606 229 229> 784 77<322 367 322 381.5>
VStem: 79 150<125 314 125 439 439 604>
LayerCount: 2
Fore
SplineSet
229 314 m 1
 229 125 l 1
 624 125 l 1
 624 0 l 1
 79 0 l 1
 79 729 l 1
 606 729 l 1
 606 604 l 1
 229 604 l 1
 229 439 l 1
 578 439 l 1
 578 314 l 1
 229 314 l 1
476 927 m 1
 476 916 l 2
 476 841 419 784 344 784 c 0
 268 784 212 841 212 917 c 2
 212 927 l 1
 268 927 l 1
 274 882 299 861 345 861 c 0
 389 861 411 880 420 927 c 1
 476 927 l 1
EndSplineSet
EndChar

StartChar: Ibreve
Encoding: 300 300 295
Width: 278
Flags: MW
HStem: 0 20 709 20<63 213 213 213> 784 77<117 162 117 176.5>
VStem: 63 150<0 729 0 729>
LayerCount: 2
Fore
SplineSet
213 729 m 1
 213 0 l 1
 63 0 l 1
 63 729 l 1
 213 729 l 1
271 927 m 1
 271 916 l 2
 271 841 214 784 139 784 c 0
 63 784 7 841 7 917 c 2
 7 927 l 1
 63 927 l 1
 69 882 94 861 140 861 c 0
 184 861 206 880 215 927 c 1
 271 927 l 1
EndSplineSet
EndChar

StartChar: ij
Encoding: 307 307 296
Width: 556
Flags: MW
HStem: -218 20 0 20 520 20<84 224 224 224 339 479 479 479> 604 125<84 224 84 224 84 339 339 479>
VStem: 84 140<0 540 0 540 604 729> 339 140<-63 540 604 729>
LayerCount: 2
Fore
SplineSet
224 540 m 1
 224 0 l 1
 84 0 l 1
 84 540 l 1
 224 540 l 1
224 729 m 1
 224 604 l 1
 84 604 l 1
 84 729 l 1
 224 729 l 1
479 540 m 1
 479 -94 l 2
 479 -182 443 -218 356 -218 c 0
 334 -218 300 -216 273 -213 c 1
 273 -101 l 1
 282 -104 289 -105 298 -105 c 0
 328 -105 339 -94 339 -63 c 2
 339 540 l 1
 479 540 l 1
479 729 m 1
 479 604 l 1
 339 604 l 1
 339 729 l 1
 479 729 l 1
EndSplineSet
EndChar

StartChar: longs
Encoding: 383 383 297
Width: 278
Flags: MW
HStem: 0 20 436 93<-14 63 -14 63> 624 105<153.5 247>
VStem: 63 140<0 436 436 436 529 582>
LayerCount: 2
Fore
SplineSet
203 0 m 1
 63 0 l 1
 63 436 l 1
 -14 436 l 1
 -14 529 l 1
 63 529 l 1
 63 594 l 2
 63 685 108 729 199 729 c 0
 221 729 249 728 280 726 c 1
 280 621 l 1
 266 623 253 624 241 624 c 0
 215 624 203 610 203 582 c 2
 203 0 l 1
EndSplineSet
EndChar

StartChar: abreve
Encoding: 259 259 298
Width: 556
Flags: W
HStem: -23 113<220.5 222> 0 20 436 113<239.5 301> 605 77<253 298 253 312.5> 728 20<143 199 199 199 351 407 407 407>
VStem: 28 140<135 176 135 187.5> 355 137<217 255 255 255 373 383>
LayerCount: 2
Fore
SplineSet
524 17 m 1xa6
 524 0 l 1
 372 0 l 1x46
 359 16 356 26 356 54 c 1
 306 2 252 -23 192 -23 c 0
 93 -23 28 42 28 139 c 0
 28 236 80 291 187 309 c 1
 243 319 l 1
 312 330 312 330 331 340 c 0
 346 349 355 364 355 382 c 0
 355 418 328 436 274 436 c 0
 205 436 182 418 175 362 c 1
 40 362 l 1
 49 487 125 549 271 549 c 0
 417 549 492 493 492 383 c 2
 492 83 l 2
 492 56 500 40 524 17 c 1xa6
355 217 m 2x9e
 355 255 l 1
 339 247 333 245 296 238 c 2
 248 229 l 1
 190 217 168 197 168 155 c 0
 168 115 197 90 244 90 c 0
 315 90 355 136 355 217 c 2x9e
407 748 m 1
 407 737 l 2
 407 662 350 605 275 605 c 0
 199 605 143 662 143 738 c 2
 143 748 l 1
 199 748 l 1
 205 703 230 682 276 682 c 0
 320 682 343 702 351 748 c 1
 407 748 l 1
EndSplineSet
EndChar

StartChar: aogonek
Encoding: 261 261 299
Width: 556
Flags: W
HStem: -233 51<465 487> -23 113<220.5 222> 0 20 436 113<239.5 301>
VStem: 28 140<135 176 135 187.5> 325 90<-147 -109.5> 355 137<217 255 255 255 373 383>
LayerCount: 2
Fore
SplineSet
524 17 m 1x5a
 524 0 l 1
 453 -37 415 -82 415 -129 c 0
 415 -165 439 -182 491 -182 c 0
 510 -182 529 -180 548 -177 c 1
 548 -224 l 1
 521 -231 501 -233 473 -233 c 0
 379 -233 325 -198 325 -139 c 0
 325 -80 372 -27 449 0 c 1
 372 0 l 1xa4
 359 16 356 26 356 54 c 1
 306 2 252 -23 192 -23 c 0
 93 -23 28 42 28 139 c 0
 28 236 80 291 187 309 c 1
 243 319 l 1
 312 330 312 330 331 340 c 0
 346 349 355 364 355 382 c 0
 355 418 328 436 274 436 c 0
 205 436 182 418 175 362 c 1
 40 362 l 1
 49 487 125 549 271 549 c 0
 417 549 492 493 492 383 c 2
 492 83 l 2
 492 56 500 40 524 17 c 1x5a
355 217 m 2x4a
 355 255 l 1
 339 247 333 245 296 238 c 2
 248 229 l 1
 190 217 168 197 168 155 c 0
 168 115 197 90 244 90 c 0
 315 90 355 136 355 217 c 2x4a
EndSplineSet
EndChar

StartChar: cacute
Encoding: 263 263 300
Width: 556
Flags: MW
HStem: -23 113<251.5 315 251.5 352.5> 436 113<268 316.5>
VStem: 34 140<206 285 206 351>
LayerCount: 2
Fore
SplineSet
522 338 m 1
 388 338 l 1
 372 409 345 436 288 436 c 0
 248 436 217 420 201 390 c 0
 184 358 174 311 174 259 c 0
 174 153 216 90 287 90 c 0
 343 90 371 117 388 187 c 1
 522 187 l 1
 509 58 418 -23 287 -23 c 0
 127 -23 34 81 34 259 c 0
 34 443 127 549 289 549 c 0
 425 549 512 470 522 338 c 1
427 757 m 1
 301 607 l 1
 231 607 l 1
 301 757 l 1
 427 757 l 1
EndSplineSet
EndChar

StartChar: ccaron
Encoding: 269 269 301
Width: 556
Flags: MW
HStem: -23 113<251.5 315 251.5 352.5> 436 113<268 316.5>
VStem: 34 140<206 285 206 351>
LayerCount: 2
Fore
SplineSet
522 338 m 1
 388 338 l 1
 372 409 345 436 288 436 c 0
 248 436 217 420 201 390 c 0
 184 358 174 311 174 259 c 0
 174 153 216 90 287 90 c 0
 343 90 371 117 388 187 c 1
 522 187 l 1
 509 58 418 -23 287 -23 c 0
 127 -23 34 81 34 259 c 0
 34 443 127 549 289 549 c 0
 425 549 512 470 522 338 c 1
341 607 m 1
 234 607 l 1
 131 757 l 1
 208 757 l 1
 290 660 l 1
 372 757 l 1
 449 757 l 1
 341 607 l 1
EndSplineSet
EndChar

StartChar: cdotaccent
Encoding: 267 267 302
Width: 556
Flags: MW
HStem: -23 113<251.5 315 251.5 352.5> 436 113<268 316.5> 621 122<233 343 233 343>
VStem: 34 140<206 285 206 351> 233 110<621 743 621 743>
LayerCount: 2
Fore
SplineSet
522 338 m 1
 388 338 l 1
 372 409 345 436 288 436 c 0
 248 436 217 420 201 390 c 0
 184 358 174 311 174 259 c 0
 174 153 216 90 287 90 c 0
 343 90 371 117 388 187 c 1
 522 187 l 1
 509 58 418 -23 287 -23 c 0
 127 -23 34 81 34 259 c 0
 34 443 127 549 289 549 c 0
 425 549 512 470 522 338 c 1
343 743 m 1
 343 621 l 1
 233 621 l 1
 233 743 l 1
 343 743 l 1
EndSplineSet
EndChar

StartChar: dcaron
Encoding: 271 271 303
Width: 743
Flags: W
HStem: -23 117<254 292> 0 20 432 117<254 292 193.5 324.5> 617 112<600 667 407 600>
VStem: 31 140<225.5 312.5 212.5 343.5> 407 140<0 55 55 55 211 312 470 729 0 729> 600 122<482 729 528 729 626 729 626 729 626 729>
LayerCount: 2
Fore
SplineSet
407 0 m 1x7e
 407 55 l 1
 372 1 326 -23 258 -23 c 0x8e
 192 -23 126 10 89 63 c 0
 53 115 31 189 31 262 c 0
 31 425 129 549 258 549 c 0
 326 549 372 524 407 470 c 1
 407 729 l 1
 547 729 l 1
 547 0 l 1
 407 0 l 1x7e
289 432 m 0x6e
 219 432 171 363 171 262 c 0
 171 163 219 94 289 94 c 0xbe
 359 94 407 162 407 260 c 0
 407 364 360 432 289 432 c 0x6e
600 729 m 1
 722 729 l 1
 722 626 l 1
 725 548 670 484 600 482 c 1
 600 528 l 1
 646 537 668 567 667 617 c 1
 600 617 l 1
 600 729 l 1
EndSplineSet
EndChar

StartChar: dcroat
Encoding: 273 273 304
Width: 611
Flags: W
HStem: -23 117<252 290> 0 20 432 117<252 290 191.5 322.5> 596 67<272 405 272 405 545 605> 709 20<405 545 545 545>
VStem: 29 140<212.5 312 212.5 343.5> 405 140<0 55 55 55 211 312 470 596 0 596 663 729 0 729>
LayerCount: 2
Fore
SplineSet
405 596 m 1xb6
 272 596 l 1
 272 663 l 1
 405 663 l 1
 405 729 l 1
 545 729 l 1
 545 663 l 1
 605 663 l 1
 605 596 l 1
 545 596 l 1
 545 0 l 1
 405 0 l 1x7e
 405 55 l 1
 370 1 324 -23 256 -23 c 0
 127 -23 29 100 29 262 c 0
 29 425 127 549 256 549 c 0
 324 549 370 524 405 470 c 1
 405 596 l 1xb6
287 432 m 0
 217 432 169 362 169 262 c 0
 169 163 217 94 287 94 c 0xa6
 357 94 405 162 405 260 c 0
 405 364 358 432 287 432 c 0
EndSplineSet
EndChar

StartChar: ecaron
Encoding: 283 283 305
Width: 556
Flags: MW
HStem: -23 107<254 299.5 254 329.5> 226 93<164 379 164 524 162 379> 442 107<239 302>
LayerCount: 2
Fore
SplineSet
524 226 m 1
 162 226 l 1
 164 175 169 151 182 131 c 0
 202 101 234 84 274 84 c 0
 325 84 364 109 381 152 c 1
 519 152 l 1
 488 45 390 -23 269 -23 c 0
 116 -23 22 83 22 256 c 0
 22 437 117 549 272 549 c 0
 381 549 468 490 504 392 c 0
 517 354 525 304 525 250 c 0
 525 243 525 238 524 226 c 1
164 319 m 1
 379 319 l 1
 372 399 334 442 270 442 c 0
 208 442 173 402 164 319 c 1
331 607 m 1
 224 607 l 1
 121 757 l 1
 198 757 l 1
 280 660 l 1
 362 757 l 1
 439 757 l 1
 331 607 l 1
EndSplineSet
EndChar

StartChar: edotaccent
Encoding: 279 279 306
Width: 556
Flags: MW
HStem: -23 107<254 299.5 254 329.5> 226 93<164 379 164 524 162 379> 442 107<239 302> 621 122<225 335 225 335>
VStem: 225 110<621 743 621 743>
LayerCount: 2
Fore
SplineSet
524 226 m 1
 162 226 l 1
 164 175 169 151 182 131 c 0
 202 101 234 84 274 84 c 0
 325 84 364 109 381 152 c 1
 519 152 l 1
 488 45 390 -23 269 -23 c 0
 116 -23 22 83 22 256 c 0
 22 437 117 549 272 549 c 0
 381 549 468 490 504 392 c 0
 517 354 525 304 525 250 c 0
 525 243 525 238 524 226 c 1
164 319 m 1
 379 319 l 1
 372 399 334 442 270 442 c 0
 208 442 173 402 164 319 c 1
335 743 m 1
 335 621 l 1
 225 621 l 1
 225 743 l 1
 335 743 l 1
EndSplineSet
EndChar

StartChar: eogonek
Encoding: 281 281 307
Width: 556
Flags: MW
HStem: -234 51<395 413> -24 107<254 282> 226 93<163 379 163 524 162 379> 442 107<238.5 302>
VStem: 255 90<-149 -114.5>
LayerCount: 2
Fore
SplineSet
478 -177 m 1
 478 -224 l 1
 451 -231 427 -234 399 -234 c 0
 310 -234 255 -197 255 -137 c 0
 255 -92 279 -60 350 -11 c 1
 314 -21 296 -24 268 -24 c 0
 115 -24 21 83 21 256 c 0
 21 437 116 549 271 549 c 0
 381 549 468 490 504 392 c 0
 517 355 525 304 525 250 c 0
 525 245 525 238 524 226 c 1
 162 226 l 1
 164 175 169 151 182 130 c 0
 201 100 234 83 274 83 c 0
 325 83 363 108 380 152 c 1
 518 152 l 1
 504 101 492 83 434 21 c 0
 365 -53 345 -87 345 -131 c 0
 345 -167 369 -183 421 -183 c 0
 441 -183 459 -181 478 -177 c 1
163 319 m 1
 379 319 l 1
 372 399 334 442 270 442 c 0
 207 442 172 402 163 319 c 1
EndSplineSet
EndChar

StartChar: gbreve
Encoding: 287 287 308
Width: 611
Flags: W
HStem: -218 90<263 321 263 361> -23 117<254.5 287> 432 117<255.5 289.5 237 320> 520 20<400 533 533 533> 605 77<282 327 282 341.5> 728 20<172 228 228 228 380 436 436 436>
VStem: 41 140<210 304.5> 400 133<-18 55 55 55 457 540>
LayerCount: 2
Fore
SplineSet
436 748 m 1x1f
 436 737 l 2
 436 662 379 605 304 605 c 0
 228 605 172 662 172 738 c 2
 172 748 l 1
 228 748 l 1
 234 703 259 682 305 682 c 0
 349 682 372 702 380 748 c 1
 436 748 l 1x1f
400 540 m 1
 533 540 l 1x13
 533 -18 l 2
 533 -143 439 -218 283 -218 c 0
 207 -218 148 -201 105 -166 c 0
 68 -136 53 -107 52 -65 c 1
 196 -65 l 1
 207 -106 238 -128 288 -128 c 0
 354 -128 400 -83 400 -18 c 2
 400 55 l 1
 351 -4 316 -23 258 -23 c 0
 129 -23 41 91 41 257 c 0
 41 352 69 430 123 486 c 0
 160 525 213 549 261 549 c 0xe3
 318 549 361 520 400 457 c 1
 400 540 l 1
287 432 m 0x63
 224 432 181 361 181 259 c 0
 181 161 224 94 285 94 c 0
 355 94 402 161 402 259 c 0
 402 359 353 432 287 432 c 0x63
EndSplineSet
EndChar

StartChar: gdotaccent
Encoding: 289 289 309
Width: 611
Flags: W
HStem: -218 90<263 321 263 361> -23 117<254.5 287> 432 117<255.5 289.5 237 320> 520 20<400 533 533 533> 621 122<241 351 241 351>
VStem: 41 140<210 304.5> 241 110<621 743 621 743> 400 133<-18 55 55 55 457 540>
LayerCount: 2
Fore
SplineSet
351 743 m 1x1f
 351 621 l 1
 241 621 l 1
 241 743 l 1
 351 743 l 1x1f
400 540 m 1
 533 540 l 1x17
 533 -18 l 2
 533 -143 439 -218 283 -218 c 0
 207 -218 148 -201 105 -166 c 0
 68 -136 53 -107 52 -65 c 1
 196 -65 l 1
 207 -106 238 -128 288 -128 c 0
 354 -128 400 -83 400 -18 c 2
 400 55 l 1
 351 -4 316 -23 258 -23 c 0
 129 -23 41 91 41 257 c 0
 41 352 69 430 123 486 c 0
 160 525 213 549 261 549 c 0xe7
 318 549 361 520 400 457 c 1
 400 540 l 1
287 432 m 0x67
 224 432 181 361 181 259 c 0
 181 161 224 94 285 94 c 0
 355 94 402 161 402 259 c 0
 402 359 353 432 287 432 c 0x67
EndSplineSet
EndChar

StartChar: lacute
Encoding: 314 314 310
Width: 278
Flags: MW
HStem: 0 20 709 20<67 207 207 207>
VStem: 67 140<0 729 0 729>
LayerCount: 2
Fore
SplineSet
207 729 m 1
 207 0 l 1
 67 0 l 1
 67 729 l 1
 207 729 l 1
278 936 m 1
 152 786 l 1
 82 786 l 1
 152 936 l 1
 278 936 l 1
EndSplineSet
EndChar

StartChar: lcaron
Encoding: 318 318 311
Width: 400
Flags: MW
HStem: 0 20 617 112<260 327 67 260>
VStem: 67 140<0 729 0 729> 260 122<482 729 528 729 626 729 626 729 626 729>
LayerCount: 2
Fore
SplineSet
207 729 m 1
 207 0 l 1
 67 0 l 1
 67 729 l 1
 207 729 l 1
260 729 m 1
 382 729 l 1
 382 626 l 1
 385 548 330 484 260 482 c 1
 260 528 l 1
 306 537 328 567 327 617 c 1
 260 617 l 1
 260 729 l 1
EndSplineSet
EndChar

StartChar: nacute
Encoding: 324 324 312
Width: 611
Flags: W
HStem: 0 20 430 119<328.5 346> 520 20<63 203 203 203>
VStem: 63 140<0 324 462 540> 406 140<0 333 333 362 0 365>
LayerCount: 2
Fore
SplineSet
63 540 m 1xb8
 203 540 l 1x38
 203 462 l 1
 243 523 292 549 365 549 c 0
 481 549 546 482 546 362 c 2
 546 0 l 1
 406 0 l 1
 406 333 l 2
 406 397 376 430 316 430 c 0xd8
 247 430 203 388 203 324 c 2
 203 0 l 1
 63 0 l 1
 63 540 l 1xb8
439 757 m 1
 313 607 l 1
 243 607 l 1
 313 757 l 1
 439 757 l 1
EndSplineSet
EndChar

StartChar: ncaron
Encoding: 328 328 313
Width: 611
Flags: W
HStem: 0 20 430 119<328.5 346> 520 20<63 203 203 203>
VStem: 63 140<0 324 462 540> 406 140<0 333 333 362 0 365>
LayerCount: 2
Fore
SplineSet
63 540 m 1xb8
 203 540 l 1x38
 203 462 l 1
 243 523 292 549 365 549 c 0
 481 549 546 482 546 362 c 2
 546 0 l 1
 406 0 l 1
 406 333 l 2
 406 397 376 430 316 430 c 0xd8
 247 430 203 388 203 324 c 2
 203 0 l 1
 63 0 l 1
 63 540 l 1xb8
352 607 m 1
 244 607 l 1
 141 757 l 1
 219 757 l 1
 301 660 l 1
 383 757 l 1
 459 757 l 1
 352 607 l 1
EndSplineSet
EndChar

StartChar: ohungarumlaut
Encoding: 337 337 314
Width: 611
Flags: MW
HStem: -23 113<264 339.5 264 384.5> 436 113<264 340.5>
VStem: 35 140<211 315 211 351.5> 429 140<210.5 314>
LayerCount: 2
Fore
SplineSet
301 549 m 0
 470 549 569 442 569 259 c 0
 569 85 467 -23 302 -23 c 0
 136 -23 35 85 35 263 c 0
 35 440 136 549 301 549 c 0
302 436 m 0
 226 436 175 367 175 263 c 0
 175 159 226 90 302 90 c 0
 377 90 429 160 429 261 c 0
 429 367 379 436 302 436 c 0
371 757 m 1
 245 610 l 1
 175 610 l 1
 245 757 l 1
 371 757 l 1
559 757 m 1
 433 610 l 1
 363 610 l 1
 433 757 l 1
 559 757 l 1
EndSplineSet
EndChar

StartChar: racute
Encoding: 341 341 315
Width: 389
Flags: W
HStem: 0 20 410 139<321 333.5> 520 20<63 203 203 203>
VStem: 63 140<0 287 434 540>
LayerCount: 2
Fore
SplineSet
63 540 m 1xb0
 203 540 l 1x30
 203 434 l 1
 234 507 289 549 353 549 c 0
 359 549 362 549 370 548 c 1
 370 406 l 1
 351 409 341 410 326 410 c 0x50
 244 410 203 369 203 287 c 2
 203 0 l 1
 63 0 l 1
 63 540 l 1xb0
348 757 m 1
 222 607 l 1
 152 607 l 1
 222 757 l 1
 348 757 l 1
EndSplineSet
EndChar

StartChar: sacute
Encoding: 347 347 316
Width: 556
Flags: MW
HStem: -23 110<257.5 308.5 257.5 321.5> 439 110<244.5 302.5>
VStem: 48 140<378 404 378 424.5> 380 140<133.5 151>
LayerCount: 2
Fore
SplineSet
505 366 m 1
 370 366 l 1
 369 415 336 439 269 439 c 0
 220 439 188 419 188 389 c 0
 188 367 198 359 237 347 c 2
 414 296 l 2
 485 275 520 230 520 160 c 0
 520 107 496 57 456 25 c 0
 416 -7 359 -23 284 -23 c 0
 120 -23 33 38 29 157 c 1
 166 157 l 1
 172 128 178 117 193 106 c 0
 211 93 239 87 276 87 c 0
 341 87 380 107 380 140 c 0
 380 162 368 173 333 184 c 2
 166 236 l 2
 114 253 97 262 78 281 c 1
 59 302 48 333 48 369 c 0
 48 480 133 549 270 549 c 0
 415 549 503 480 505 366 c 1
419 757 m 1
 292 607 l 1
 223 607 l 1
 292 757 l 1
 419 757 l 1
EndSplineSet
EndChar

StartChar: scircumflex
Encoding: 349 349 317
Width: 556
Flags: MW
HStem: -23 110<257.5 308.5 257.5 321.5> 439 110<244.5 302.5>
VStem: 48 140<378 404 378 424.5> 380 140<133.5 151>
LayerCount: 2
Fore
SplineSet
505 366 m 1
 370 366 l 1
 369 415 336 439 269 439 c 0
 220 439 188 419 188 389 c 0
 188 367 198 359 237 347 c 2
 414 296 l 2
 485 275 520 230 520 160 c 0
 520 107 496 57 456 25 c 0
 416 -7 359 -23 284 -23 c 0
 120 -23 33 38 29 157 c 1
 166 157 l 1
 172 128 178 117 193 106 c 0
 211 93 239 87 276 87 c 0
 341 87 380 107 380 140 c 0
 380 162 368 173 333 184 c 2
 166 236 l 2
 114 253 97 262 78 281 c 1
 59 302 48 333 48 369 c 0
 48 480 133 549 270 549 c 0
 415 549 503 480 505 366 c 1
230 757 m 1
 337 757 l 1
 440 607 l 1
 362 607 l 1
 281 707 l 1
 199 607 l 1
 122 607 l 1
 230 757 l 1
EndSplineSet
EndChar

StartChar: scommaaccent
Encoding: 537 537 318
Width: 556
Flags: MW
HStem: -172 112<227 294 227 349> -23 110<257.5 308.5 257.5 321.5> 439 110<244.5 302.5>
VStem: 48 140<378 404 378 424.5> 227 122<-307 -60 -261 -60 -163 -60 -163 -60 -163 -60> 380 140<133.5 151>
LayerCount: 2
Fore
SplineSet
505 366 m 1
 370 366 l 1
 369 415 336 439 269 439 c 0
 220 439 188 419 188 389 c 0
 188 367 198 359 237 347 c 2
 414 296 l 2
 485 275 520 230 520 160 c 0
 520 107 496 57 456 25 c 0
 416 -7 359 -23 284 -23 c 0
 120 -23 33 38 29 157 c 1
 166 157 l 1
 172 128 178 117 193 106 c 0
 211 93 239 87 276 87 c 0
 341 87 380 107 380 140 c 0
 380 162 368 173 333 184 c 2
 166 236 l 2
 114 253 97 262 78 281 c 1
 59 302 48 333 48 369 c 0
 48 480 133 549 270 549 c 0
 415 549 503 480 505 366 c 1
227 -60 m 1
 349 -60 l 1
 349 -163 l 1
 352 -241 297 -305 227 -307 c 1
 227 -261 l 1
 273 -252 295 -222 294 -172 c 1
 227 -172 l 1
 227 -60 l 1
EndSplineSet
EndChar

StartChar: tcaron
Encoding: 357 357 319
Width: 389
Flags: MW
HStem: -23 106<174 274.5> 436 93<14 83 14 83 223 301> 717 112<276 343 276 398>
VStem: 83 140<118 142 142 436 529 674> 276 122<582 829 628 829 726 829 726 829 726 829>
LayerCount: 2
Fore
SplineSet
301 529 m 1
 301 436 l 1
 223 436 l 1
 223 142 l 2
 223 94 232 83 269 83 c 0
 280 83 287 84 301 86 c 1
 301 -12 l 1
 275 -20 252 -23 220 -23 c 0
 128 -23 83 19 83 104 c 2
 83 436 l 1
 14 436 l 1
 14 529 l 1
 83 529 l 1
 83 674 l 1
 223 674 l 1
 223 529 l 1
 301 529 l 1
276 829 m 1
 398 829 l 1
 398 726 l 1
 401 648 346 584 276 582 c 1
 276 628 l 1
 322 637 344 667 343 717 c 1
 276 717 l 1
 276 829 l 1
EndSplineSet
EndChar

StartChar: uring
Encoding: 367 367 320
Width: 611
Flags: W
HStem: -23 119<258 275.5> 0 20 520 20<58 198 198 198 401 541 541 541> 590 48<289 312 289 324.5> 722 48<289 312.5>
VStem: 58 140<164 193 193 540> 210 48<668.5 692 668.5 705.5> 342 48<668.5 692> 401 140<0 64 64 64 202 540>
LayerCount: 2
Fore
SplineSet
541 0 m 1x6780
 401 0 l 1x5f80
 401 64 l 1
 361 3 312 -23 239 -23 c 0
 123 -23 58 44 58 164 c 2
 58 540 l 1
 198 540 l 1
 198 193 l 2
 198 128 228 96 288 96 c 0xa780
 357 96 401 138 401 202 c 2
 401 540 l 1
 541 540 l 1
 541 0 l 1x6780
301 770 m 0
 351 770 390 731 390 679 c 0
 390 630 349 590 300 590 c 0
 250 590 210 630 210 680 c 0
 210 731 250 770 301 770 c 0
301 722 m 0
 277 722 258 704 258 680 c 0
 258 657 277 638 301 638 c 0
 323 638 342 657 342 680 c 0
 342 704 324 722 301 722 c 0
EndSplineSet
EndChar

StartChar: uhungarumlaut
Encoding: 369 369 321
Width: 611
Flags: W
HStem: -23 119<258 275.5> 0 20 520 20<58 198 198 198 401 541 541 541>
VStem: 58 140<164 193 193 540> 401 140<0 64 64 64 202 540>
LayerCount: 2
Fore
SplineSet
541 0 m 1x78
 401 0 l 1x58
 401 64 l 1
 361 3 312 -23 239 -23 c 0
 123 -23 58 44 58 164 c 2
 58 540 l 1
 198 540 l 1
 198 193 l 2
 198 128 228 96 288 96 c 0xb8
 357 96 401 138 401 202 c 2
 401 540 l 1
 541 540 l 1
 541 0 l 1x78
371 757 m 1
 245 610 l 1
 175 610 l 1
 245 757 l 1
 371 757 l 1
559 757 m 1
 433 610 l 1
 363 610 l 1
 433 757 l 1
 559 757 l 1
EndSplineSet
EndChar

StartChar: zacute
Encoding: 378 378 322
Width: 500
Flags: MW
HStem: 0 113<194 468 21 21> 427 113<39 288 39 459 39 459>
LayerCount: 2
Fore
SplineSet
459 540 m 1
 459 427 l 1
 194 113 l 1
 468 113 l 1
 468 0 l 1
 21 0 l 1
 21 113 l 1
 288 427 l 1
 39 427 l 1
 39 540 l 1
 459 540 l 1
387 757 m 1
 261 607 l 1
 191 607 l 1
 261 757 l 1
 387 757 l 1
EndSplineSet
EndChar

StartChar: zdotaccent
Encoding: 380 380 323
Width: 500
Flags: MW
HStem: 0 113<194 468 21 21> 427 113<39 288 39 459 39 459> 621 122<196 306 196 306>
VStem: 196 110<621 743 621 743>
LayerCount: 2
Fore
SplineSet
459 540 m 1
 459 427 l 1
 194 113 l 1
 468 113 l 1
 468 0 l 1
 21 0 l 1
 21 113 l 1
 288 427 l 1
 39 427 l 1
 39 540 l 1
 459 540 l 1
306 743 m 1
 306 621 l 1
 196 621 l 1
 196 743 l 1
 306 743 l 1
EndSplineSet
EndChar

StartChar: hbar
Encoding: 295 295 324
Width: 611
Flags: MW
HStem: 0 20 430 119<283.5 387> 592 80<5 67 5 67 207 386> 709 20<67 207 207 207>
VStem: 67 140<0 324 462 592 672 729> 401 140<0 330 330 347>
LayerCount: 2
Fore
SplineSet
207 672 m 1
 386 672 l 1
 386 592 l 1
 207 592 l 1
 207 462 l 1
 246 521 296 549 364 549 c 0
 410 549 455 534 486 508 c 0
 523 477 541 429 541 362 c 2
 541 0 l 1
 401 0 l 1
 401 330 l 2
 401 364 397 378 384 397 c 0
 368 419 345 430 315 430 c 0
 252 430 207 386 207 324 c 2
 207 0 l 1
 67 0 l 1
 67 592 l 1
 5 592 l 1
 5 672 l 1
 67 672 l 1
 67 729 l 1
 207 729 l 1
 207 672 l 1
EndSplineSet
EndChar

StartChar: tcommaaccent
Encoding: 355 355 325
Width: 333
Flags: W
HStem: -172 112<127 194 127 249> -23 106<174 274.5> 436 93<14 83 14 83 223 301>
VStem: 83 140<118 142 142 436 529 674> 127 122<-307 -60 -261 -60 -163 -60 -163 -60 -163 -60>
LayerCount: 2
Fore
SplineSet
301 529 m 1xf0
 301 436 l 1
 223 436 l 1
 223 142 l 2
 223 94 232 83 269 83 c 0
 280 83 287 84 301 86 c 1
 301 -12 l 1
 275 -20 252 -23 220 -23 c 0
 128 -23 83 19 83 104 c 2
 83 436 l 1
 14 436 l 1
 14 529 l 1
 83 529 l 1
 83 674 l 1
 223 674 l 1
 223 529 l 1
 301 529 l 1xf0
127 -60 m 1xe8
 249 -60 l 1
 249 -163 l 1
 252 -241 197 -305 127 -307 c 1
 127 -261 l 1
 173 -252 195 -222 194 -172 c 1
 127 -172 l 1
 127 -60 l 1xe8
EndSplineSet
EndChar

StartChar: uni021B
Encoding: 539 539 326
Width: 333
Flags: W
HStem: -172 112<127 194 127 249> -23 106<174 274.5> 436 93<14 83 14 83 223 301>
VStem: 83 140<118 142 142 436 529 674> 127 122<-307 -60 -261 -60 -163 -60 -163 -60 -163 -60>
LayerCount: 2
Fore
SplineSet
301 529 m 1xf0
 301 436 l 1
 223 436 l 1
 223 142 l 2
 223 94 232 83 269 83 c 0
 280 83 287 84 301 86 c 1
 301 -12 l 1
 275 -20 252 -23 220 -23 c 0
 128 -23 83 19 83 104 c 2
 83 436 l 1
 14 436 l 1
 14 529 l 1
 83 529 l 1
 83 674 l 1
 223 674 l 1
 223 529 l 1
 301 529 l 1xf0
127 -60 m 1xe8
 249 -60 l 1
 249 -163 l 1
 252 -241 197 -305 127 -307 c 1
 127 -261 l 1
 173 -252 195 -222 194 -172 c 1
 127 -172 l 1
 127 -60 l 1xe8
EndSplineSet
EndChar

StartChar: wcircumflex
Encoding: 373 373 327
Width: 778
Flags: MW
HStem: 0 20 520 20<5 150 150 150 318 458 458 458 621 766 766 766> 725 20<337 444 444 444>
LayerCount: 2
Fore
SplineSet
613 0 m 1
 468 0 l 1
 387 381 l 1
 301 0 l 1
 157 0 l 1
 5 540 l 1
 150 540 l 1
 236 162 l 1
 318 540 l 1
 458 540 l 1
 539 162 l 1
 621 540 l 1
 766 540 l 1
 613 0 l 1
337 745 m 1
 444 745 l 1
 547 595 l 1
 470 595 l 1
 388 695 l 1
 306 595 l 1
 229 595 l 1
 337 745 l 1
EndSplineSet
EndChar

StartChar: wdieresis
Encoding: 7813 7813 328
Width: 778
Flags: MW
HStem: 0 20 520 20<5 150 150 150 318 458 458 458 621 766 766 766> 621 122<233 343 233 343 233 419 419 529>
VStem: 233 110<621 743 621 743> 419 110<621 743 621 743>
LayerCount: 2
Fore
SplineSet
613 0 m 1
 468 0 l 1
 387 381 l 1
 301 0 l 1
 157 0 l 1
 5 540 l 1
 150 540 l 1
 236 162 l 1
 318 540 l 1
 458 540 l 1
 539 162 l 1
 621 540 l 1
 766 540 l 1
 613 0 l 1
343 743 m 1
 343 621 l 1
 233 621 l 1
 233 743 l 1
 343 743 l 1
529 743 m 1
 529 621 l 1
 419 621 l 1
 419 743 l 1
 529 743 l 1
EndSplineSet
EndChar

StartChar: amacron
Encoding: 257 257 329
Width: 556
Flags: W
HStem: -23 113<220.5 222> 0 20 436 113<239.5 301> 640 79<123 422 123 422>
VStem: 28 140<135 176 135 187.5> 355 137<217 255 255 255 373 383>
LayerCount: 2
Fore
SplineSet
524 17 m 1xac
 524 0 l 1
 372 0 l 1x4c
 359 16 356 26 356 54 c 1
 306 2 252 -23 192 -23 c 0
 93 -23 28 42 28 139 c 0
 28 236 80 291 187 309 c 1
 243 319 l 1
 312 330 312 330 331 340 c 0
 346 349 355 364 355 382 c 0
 355 418 328 436 274 436 c 0
 205 436 182 418 175 362 c 1
 40 362 l 1
 49 487 125 549 271 549 c 0
 417 549 492 493 492 383 c 2
 492 83 l 2
 492 56 500 40 524 17 c 1xac
355 217 m 2x9c
 355 255 l 1
 339 247 333 245 296 238 c 2
 248 229 l 1
 190 217 168 197 168 155 c 0
 168 115 197 90 244 90 c 0
 315 90 355 136 355 217 c 2x9c
422 719 m 1
 422 640 l 1
 123 640 l 1
 123 719 l 1
 422 719 l 1
EndSplineSet
EndChar

StartChar: ycircumflex
Encoding: 375 375 330
Width: 556
Flags: MW
HStem: -219 103<127.5 149 117.5 154> 520 20<9 163 163 163 394 538 538 538>
LayerCount: 2
Fore
SplineSet
394 540 m 1
 538 540 l 1
 316 -99 l 2
 293 -164 276 -186 237 -202 c 0
 212 -212 172 -219 136 -219 c 0
 119 -219 107 -218 86 -215 c 1
 86 -110 l 1
 103 -114 112 -116 123 -116 c 0
 175 -116 210 -78 210 -22 c 1
 9 540 l 1
 163 540 l 1
 282 147 l 1
 394 540 l 1
226 757 m 1
 334 757 l 1
 437 607 l 1
 359 607 l 1
 277 707 l 1
 195 607 l 1
 119 607 l 1
 226 757 l 1
EndSplineSet
EndChar

StartChar: ccircumflex
Encoding: 265 265 331
Width: 556
Flags: MW
HStem: -23 113<251.5 315 251.5 352.5> 436 113<268 316.5>
VStem: 34 140<206 285 206 351>
LayerCount: 2
Fore
SplineSet
522 338 m 1
 388 338 l 1
 372 409 345 436 288 436 c 0
 248 436 217 420 201 390 c 0
 184 358 174 311 174 259 c 0
 174 153 216 90 287 90 c 0
 343 90 371 117 388 187 c 1
 522 187 l 1
 509 58 418 -23 287 -23 c 0
 127 -23 34 81 34 259 c 0
 34 443 127 549 289 549 c 0
 425 549 512 470 522 338 c 1
227 757 m 1
 335 757 l 1
 438 607 l 1
 360 607 l 1
 278 707 l 1
 196 607 l 1
 120 607 l 1
 227 757 l 1
EndSplineSet
EndChar

StartChar: emacron
Encoding: 275 275 332
Width: 556
Flags: MW
HStem: -23 107<254 299.5 254 329.5> 226 93<164 379 164 524 162 379> 442 107<239 302> 640 79<131 430 131 430>
LayerCount: 2
Fore
SplineSet
524 226 m 1
 162 226 l 1
 164 175 169 151 182 131 c 0
 202 101 234 84 274 84 c 0
 325 84 364 109 381 152 c 1
 519 152 l 1
 488 45 390 -23 269 -23 c 0
 116 -23 22 83 22 256 c 0
 22 437 117 549 272 549 c 0
 381 549 468 490 504 392 c 0
 517 354 525 304 525 250 c 0
 525 243 525 238 524 226 c 1
164 319 m 1
 379 319 l 1
 372 399 334 442 270 442 c 0
 208 442 173 402 164 319 c 1
430 719 m 1
 430 640 l 1
 131 640 l 1
 131 719 l 1
 430 719 l 1
EndSplineSet
EndChar

StartChar: gcircumflex
Encoding: 285 285 333
Width: 611
Flags: W
HStem: -218 90<263 321 263 361> -23 117<254.5 287> 432 117<255.5 289.5 237 320> 520 20<400 533 533 533>
VStem: 41 140<210 304.5> 400 133<-18 55 55 55 457 540>
LayerCount: 2
Fore
SplineSet
400 540 m 1x1c
 533 540 l 1x1c
 533 -18 l 2
 533 -143 439 -218 283 -218 c 0
 207 -218 148 -201 105 -166 c 0
 68 -136 53 -107 52 -65 c 1
 196 -65 l 1
 207 -106 238 -128 288 -128 c 0
 354 -128 400 -83 400 -18 c 2
 400 55 l 1
 351 -4 316 -23 258 -23 c 0
 129 -23 41 91 41 257 c 0
 41 352 69 430 123 486 c 0
 160 525 213 549 261 549 c 0xec
 318 549 361 520 400 457 c 1
 400 540 l 1x1c
287 432 m 0x6c
 224 432 181 361 181 259 c 0
 181 161 224 94 285 94 c 0
 355 94 402 161 402 259 c 0
 402 359 353 432 287 432 c 0x6c
208 757 m 1
 315 757 l 1
 418 607 l 1
 340 607 l 1
 258 707 l 1
 176 607 l 1
 100 607 l 1
 208 757 l 1
EndSplineSet
EndChar

StartChar: ibreve
Encoding: 301 301 334
Width: 278
Flags: MW
HStem: 0 20 520 20<67 207 207 207> 597 77<113 158 113 172.5> 720 20<3 59 59 59 211 267 267 267>
VStem: 67 140<0 540 0 540>
LayerCount: 2
Fore
SplineSet
207 540 m 1
 207 0 l 1
 67 0 l 1
 67 540 l 1
 207 540 l 1
267 740 m 1
 267 729 l 2
 267 654 210 597 135 597 c 0
 59 597 3 654 3 730 c 2
 3 740 l 1
 59 740 l 1
 65 695 90 674 136 674 c 0
 180 674 202 694 211 740 c 1
 267 740 l 1
EndSplineSet
EndChar

StartChar: imacron
Encoding: 299 299 335
Width: 278
Flags: W
HStem: 0 20 520 20<68 208 208 208> 640 79<8 267 8 267>
VStem: 8 259<640 719 640 719> 68 140<0 540 0 540>
LayerCount: 2
Fore
SplineSet
208 540 m 1xe8
 208 0 l 1
 68 0 l 1
 68 540 l 1
 208 540 l 1xe8
267 719 m 1xf0
 267 640 l 1
 8 640 l 1
 8 719 l 1
 267 719 l 1xf0
EndSplineSet
EndChar

StartChar: jcircumflex
Encoding: 309 309 336
Width: 278
Flags: MW
HStem: -218 20 520 20<70 210 210 210>
VStem: 70 140<-63 540>
LayerCount: 2
Fore
SplineSet
210 540 m 1
 210 -94 l 2
 210 -182 174 -218 87 -218 c 0
 65 -218 31 -216 4 -213 c 1
 4 -101 l 1
 13 -104 20 -105 29 -105 c 0
 59 -105 70 -94 70 -63 c 2
 70 540 l 1
 210 540 l 1
87 757 m 1
 194 757 l 1
 297 607 l 1
 219 607 l 1
 137 707 l 1
 55 607 l 1
 -21 607 l 1
 87 757 l 1
EndSplineSet
EndChar

StartChar: kcommaaccent
Encoding: 311 311 337
Width: 556
Flags: MW
HStem: -172 112<229 296 229 351> 0 20 520 20<376 535 535 535> 709 20<59 199 199 199>
VStem: 59 140<0 177 330 729> 229 122<-307 -60 -261 -60 -163 -60 -163 -60 -163 -60>
LayerCount: 2
Fore
SplineSet
199 330 m 1
 376 540 l 1
 535 540 l 1
 351 336 l 1
 548 0 l 1
 384 0 l 1
 255 238 l 1
 199 177 l 1
 199 0 l 1
 59 0 l 1
 59 729 l 1
 199 729 l 1
 199 330 l 1
229 -60 m 1
 351 -60 l 1
 351 -163 l 1
 354 -241 299 -305 229 -307 c 1
 229 -261 l 1
 275 -252 297 -222 296 -172 c 1
 229 -172 l 1
 229 -60 l 1
EndSplineSet
EndChar

StartChar: lcommaaccent
Encoding: 316 316 338
Width: 278
Flags: W
HStem: -172 112<78 145 78 200> 0 20 709 20<67 207 207 207>
VStem: 67 140<0 729 0 729> 78 122<-307 -60 -261 -60 -163 -60 -163 -60 -163 -60>
LayerCount: 2
Fore
SplineSet
207 729 m 1xf0
 207 0 l 1
 67 0 l 1
 67 729 l 1
 207 729 l 1xf0
78 -60 m 1xe8
 200 -60 l 1
 200 -163 l 1
 203 -241 148 -305 78 -307 c 1
 78 -261 l 1
 124 -252 146 -222 145 -172 c 1
 78 -172 l 1
 78 -60 l 1xe8
EndSplineSet
EndChar

StartChar: ncommaaccent
Encoding: 326 326 339
Width: 611
Flags: W
HStem: -172 112<244 311 244 366> 0 20 430 119<328.5 346> 520 20<63 203 203 203>
VStem: 63 140<0 324 462 540> 244 122<-307 -60 -261 -60 -163 -60 -163 -60 -163 -60> 406 140<0 333 333 362 0 365>
LayerCount: 2
Fore
SplineSet
63 540 m 1x5e
 203 540 l 1x9e
 203 462 l 1
 243 523 292 549 365 549 c 0
 481 549 546 482 546 362 c 2
 546 0 l 1
 406 0 l 1
 406 333 l 2
 406 397 376 430 316 430 c 0x6e
 247 430 203 388 203 324 c 2
 203 0 l 1
 63 0 l 1
 63 540 l 1x5e
244 -60 m 1
 366 -60 l 1
 366 -163 l 1
 369 -241 314 -305 244 -307 c 1
 244 -261 l 1
 290 -252 312 -222 311 -172 c 1
 244 -172 l 1
 244 -60 l 1
EndSplineSet
EndChar

StartChar: omacron
Encoding: 333 333 340
Width: 611
Flags: MW
HStem: -23 113<264 339.5 264 384.5> 436 113<264 340.5> 640 79<153 452 153 452>
VStem: 35 140<211 315 211 351.5> 429 140<210.5 314>
LayerCount: 2
Fore
SplineSet
301 549 m 0
 470 549 569 442 569 259 c 0
 569 85 467 -23 302 -23 c 0
 136 -23 35 85 35 263 c 0
 35 440 136 549 301 549 c 0
302 436 m 0
 226 436 175 367 175 263 c 0
 175 159 226 90 302 90 c 0
 377 90 429 160 429 261 c 0
 429 367 379 436 302 436 c 0
452 719 m 1
 452 640 l 1
 153 640 l 1
 153 719 l 1
 452 719 l 1
EndSplineSet
EndChar

StartChar: rcommaaccent
Encoding: 343 343 341
Width: 389
Flags: W
HStem: -172 112<74 141 74 196> 0 20 410 139<321 333.5> 520 20<63 203 203 203>
VStem: 63 140<0 287 434 540> 74 122<-307 -60 -261 -60 -163 -60 -163 -60 -163 -60>
LayerCount: 2
Fore
SplineSet
63 540 m 1x58
 203 540 l 1x98
 203 434 l 1
 234 507 289 549 353 549 c 0
 359 549 362 549 370 548 c 1
 370 406 l 1
 351 409 341 410 326 410 c 0x28
 244 410 203 369 203 287 c 2
 203 0 l 1
 63 0 l 1
 63 540 l 1x58
74 -60 m 1x94
 196 -60 l 1
 196 -163 l 1
 199 -241 144 -305 74 -307 c 1
 74 -261 l 1
 120 -252 142 -222 141 -172 c 1
 74 -172 l 1
 74 -60 l 1x94
EndSplineSet
EndChar

StartChar: ubreve
Encoding: 365 365 342
Width: 611
Flags: W
HStem: -23 119<258 275.5> 0 20 520 20<58 198 198 198 401 541 541 541> 605 77<267.5 312.5 267.5 329> 728 20<158 213 213 213 366 421 421 421>
VStem: 58 140<164 193 193 540> 401 140<0 64 64 64 202 540>
LayerCount: 2
Fore
SplineSet
541 0 m 1x66
 401 0 l 1x5e
 401 64 l 1
 361 3 312 -23 239 -23 c 0
 123 -23 58 44 58 164 c 2
 58 540 l 1
 198 540 l 1
 198 193 l 2
 198 128 228 96 288 96 c 0xa6
 357 96 401 138 401 202 c 2
 401 540 l 1
 541 540 l 1
 541 0 l 1x66
366 748 m 1
 421 748 l 1
 421 661 369 605 289 605 c 0
 213 605 157 662 157 738 c 0
 157 739 157 744 158 748 c 1
 213 748 l 1
 220 703 245 682 290 682 c 0
 335 682 357 702 366 748 c 1
EndSplineSet
EndChar

StartChar: umacron
Encoding: 363 363 343
Width: 611
Flags: W
HStem: -23 119<258 275.5> 0 20 520 20<58 198 198 198 401 541 541 541> 640 79<150 449 150 449>
VStem: 58 140<164 193 193 540> 401 140<0 64 64 64 202 540>
LayerCount: 2
Fore
SplineSet
541 0 m 1x6c
 401 0 l 1x5c
 401 64 l 1
 361 3 312 -23 239 -23 c 0
 123 -23 58 44 58 164 c 2
 58 540 l 1
 198 540 l 1
 198 193 l 2
 198 128 228 96 288 96 c 0xac
 357 96 401 138 401 202 c 2
 401 540 l 1
 541 540 l 1
 541 0 l 1x6c
449 719 m 1
 449 640 l 1
 150 640 l 1
 150 719 l 1
 449 719 l 1
EndSplineSet
EndChar

StartChar: uogonek
Encoding: 371 371 344
Width: 611
Flags: W
HStem: -233 51<480 503> -23 119<258 275.5> 0 20 520 20<58 198 198 198 401 541 541 541>
VStem: 58 140<164 193 193 540> 340 90<-147 -116.5> 401 140<0 64 64 64 202 540 0 540>
LayerCount: 2
Fore
SplineSet
465 0 m 1xb4
 401 0 l 1x2a
 401 64 l 1
 361 3 312 -23 239 -23 c 0
 123 -23 58 44 58 164 c 2
 58 540 l 1
 198 540 l 1
 198 193 l 2
 198 128 228 96 288 96 c 0x5a
 357 96 401 138 401 202 c 2
 401 540 l 1
 541 540 l 1
 541 0 l 1xba
 468 -37 430 -82 430 -129 c 0
 430 -165 454 -182 506 -182 c 0
 526 -182 545 -180 564 -177 c 1
 564 -224 l 1
 536 -231 517 -233 489 -233 c 0
 394 -233 340 -198 340 -138 c 0
 340 -95 370 -49 419 -21 c 0
 433 -12 441 -9 465 0 c 1xb4
EndSplineSet
EndChar

StartChar: rcaron
Encoding: 345 345 345
Width: 389
Flags: W
HStem: 0 20 410 139<321 333.5> 520 20<63 203 203 203>
VStem: 63 140<0 287 434 540>
LayerCount: 2
Fore
SplineSet
63 540 m 1xb0
 203 540 l 1x30
 203 434 l 1
 234 507 289 549 353 549 c 0
 359 549 362 549 370 548 c 1
 370 406 l 1
 351 409 341 410 326 410 c 0x50
 244 410 203 369 203 287 c 2
 203 0 l 1
 63 0 l 1
 63 540 l 1xb0
264 607 m 1
 157 607 l 1
 54 757 l 1
 132 757 l 1
 214 660 l 1
 296 757 l 1
 372 757 l 1
 264 607 l 1
EndSplineSet
EndChar

StartChar: scedilla
Encoding: 351 351 346
Width: 556
Flags: W
HStem: -220 50<231.5 254 224 295.5> -23 110<283 283 283 301> 439 110<244.5 302.5>
VStem: 48 140<378 404 378 424.5> 295 87<-140.5 -118.5> 380 140<123.5 151>
LayerCount: 2
Fore
SplineSet
283 -23 m 1xf4
 264 -63 l 1
 279 -58 291 -56 306 -56 c 0
 353 -56 382 -83 382 -127 c 0
 382 -187 337 -220 254 -220 c 0
 209 -220 176 -213 115 -192 c 1
 134 -140 l 1
 185 -163 210 -170 238 -170 c 0
 270 -170 295 -152 295 -129 c 0xe8
 295 -108 275 -94 245 -94 c 0
 225 -94 214 -97 196 -106 c 1
 239 -22 l 1
 96 -5 34 48 29 157 c 1
 166 157 l 1
 172 128 178 117 193 106 c 0
 211 93 239 87 276 87 c 0
 341 87 380 107 380 140 c 0
 380 162 368 173 333 184 c 2
 166 236 l 2
 114 253 97 262 78 281 c 1
 59 302 48 333 48 369 c 0
 48 480 133 549 270 549 c 0
 415 549 503 480 505 366 c 1
 370 366 l 1
 369 415 336 439 269 439 c 0
 220 439 188 419 188 389 c 0
 188 367 198 359 237 347 c 2
 414 296 l 2
 485 275 520 230 520 160 c 0
 520 52 430 -23 301 -23 c 2
 283 -23 l 1xf4
EndSplineSet
EndChar

StartChar: gcommaaccent
Encoding: 291 291 347
Width: 611
Flags: W
HStem: -218 90<263 321 263 361> -23 117<254.5 287> 432 117<255.5 289.5 237 320> 520 20<400 533 533 533> 606 112<291 358 291 358 236 358>
VStem: 41 140<210 304.5> 236 122<606 709 709 709> 400 133<-18 55 55 55 457 540>
LayerCount: 2
Fore
SplineSet
358 606 m 1x1f
 236 606 l 1
 236 709 l 1
 233 787 288 851 358 853 c 1
 358 807 l 1
 312 798 290 768 291 718 c 1
 358 718 l 1
 358 606 l 1x1f
400 540 m 1
 533 540 l 1x17
 533 -18 l 2
 533 -143 439 -218 283 -218 c 0
 207 -218 148 -201 105 -166 c 0
 68 -136 53 -107 52 -65 c 1
 196 -65 l 1
 207 -106 238 -128 288 -128 c 0
 354 -128 400 -83 400 -18 c 2
 400 55 l 1
 351 -4 316 -23 258 -23 c 0
 129 -23 41 91 41 257 c 0
 41 352 69 430 123 486 c 0
 160 525 213 549 261 549 c 0xe7
 318 549 361 520 400 457 c 1
 400 540 l 1
287 432 m 0x67
 224 432 181 361 181 259 c 0
 181 161 224 94 285 94 c 0
 355 94 402 161 402 259 c 0
 402 359 353 432 287 432 c 0x67
EndSplineSet
EndChar

StartChar: Euro
Encoding: 8364 8364 348
Width: 556
Flags: MW
HStem: -23 131<325 368.5> 250 68<30 70 30 78 6 70 221 402 221 221> 386 68<30 69 6 78 224 451> 594 130<324 378>
VStem: 68 140<347 352 340 359>
LayerCount: 2
Fore
SplineSet
30 318 m 1
 70 318 l 1
 68 332 68 341 68 353 c 0
 68 365 68 374 69 386 c 1
 6 386 l 1
 30 454 l 1
 78 454 l 1
 115 625 220 724 364 724 c 0
 434 724 474 709 546 656 c 1
 501 527 l 1
 438 577 401 594 355 594 c 0
 293 594 248 546 224 454 c 1
 475 454 l 1
 451 386 l 1
 211 386 l 1
 209 370 208 359 208 345 c 0
 208 335 208 328 210 318 c 1
 427 318 l 1
 402 250 l 1
 221 250 l 1
 247 159 295 108 355 108 c 0
 395 108 423 118 501 160 c 1
 501 11 l 1
 422 -15 388 -23 349 -23 c 0
 270 -23 187 21 142 88 c 0
 111 134 91 186 78 250 c 1
 6 250 l 1
 30 318 l 1
EndSplineSet
EndChar

StartChar: peseta
Encoding: 8359 8359 349
Width: 1094
Flags: W
HStem: -12 57<591 648.5> -12 59<591 666 858.5 898> 0 20 232 54<499 538 499 538 622 666> 238 59<861.5 894> 709 20<91 263 263 339>
VStem: 91 150<0 260 385 604> 348 150<457 531.5> 538 84<63.5 76 76 232 286 364> 747 84<204.5 219.5 204.5 230> 937 84<66.5 82>
LayerCount: 2
Fore
SplineSet
666 286 m 1x93e0
 666 232 l 1
 622 232 l 1
 622 76 l 2
 622 51 626 45 645 45 c 0x93e0
 652 45 657 45 666 47 c 1x43e0
 666 -6 l 1
 650 -10 637 -12 619 -12 c 0
 563 -12 538 10 538 56 c 2
 538 232 l 1
 499 232 l 1
 499 286 l 1
 538 286 l 1
 538 364 l 1
 622 364 l 1
 622 286 l 1
 666 286 l 1x93e0
736 85 m 1x4fe0
 818 85 l 1
 823 57 838 47 879 47 c 0
 917 47 937 57 937 76 c 0
 937 88 931 94 912 99 c 2
 816 128 l 2
 763 144 747 161 747 200 c 0
 747 260 797 297 875 297 c 0
 959 297 1011 259 1012 198 c 1
 931 198 l 1
 929 227 913 238 875 238 c 0
 848 238 831 228 831 211 c 0
 831 198 836 194 857 188 c 2
 958 160 l 2
 1000 149 1021 124 1021 87 c 0
 1021 26 969 -12 884 -12 c 0
 789 -12 738 21 736 85 c 1x4fe0
241 260 m 1
 241 0 l 1
 91 0 l 1x23e0
 91 729 l 1
 263 729 l 2
 415 729 498 649 498 503 c 0
 498 355 412 260 278 260 c 2
 241 260 l 1
241 385 m 1
 261 385 l 2
 320 385 348 420 348 494 c 0
 348 569 320 604 261 604 c 2
 241 604 l 1
 241 385 l 1
EndSplineSet
EndChar

StartChar: lira
Encoding: 8356 8356 350
Width: 556
Flags: W
HStem: -23 125<382 407.5 382 416.5> 9 114<176 272.5> 229 55<31 131 31 140 31 131 265 375> 316 55<31 91 31 120 31 91 253 375 253 253> 604 111<248.5 292>
VStem: 38 141<503.5 540 503.5 544.5>
LayerCount: 2
Fore
SplineSet
375 316 m 1x7c
 253 316 l 1
 259 302 262 295 265 284 c 1
 375 284 l 1
 375 229 l 1
 265 229 l 1
 256 184 221 139 152 86 c 1
 214 116 235 123 264 123 c 0x74
 281 123 288 122 327 112 c 0
 354 105 373 102 391 102 c 0
 424 102 456 111 496 131 c 1
 537 22 l 1
 481 -11 441 -23 392 -23 c 0x84
 365 -23 342 -19 293 -7 c 0
 244 5 222 9 195 9 c 0
 157 9 130 2 86 -21 c 1
 31 80 l 1
 114 137 139 171 140 229 c 1
 31 229 l 1
 31 284 l 1
 131 284 l 1
 129 291 124 304 120 316 c 1
 31 316 l 1
 31 371 l 1
 91 371 l 1
 87 378 l 2
 46 450 38 473 38 516 c 0
 38 573 66 629 112 666 c 0
 154 699 209 715 276 715 c 0
 380 715 457 676 494 605 c 0
 509 576 517 543 521 484 c 1
 390 484 l 1
 389 495 l 1
 383 541 375 559 354 577 c 0
 334 595 307 604 277 604 c 0
 220 604 179 566 179 514 c 0
 179 493 182 485 206 436 c 0
 223 401 232 381 236 371 c 1
 375 371 l 1
 375 316 l 1x7c
EndSplineSet
EndChar

StartChar: franc
Encoding: 8355 8355 351
Width: 556
Flags: W
HStem: 0 20 309 139<539.5 552> 314 125<172 282 172 422> 604 125<172 534 172 172>
VStem: 22 150<0 314 0 439 439 604> 282 140<0 186 0 314 0 314>
LayerCount: 2
Fore
SplineSet
422 439 m 1xbc
 422 333 l 1
 453 406 507 448 572 448 c 0
 577 448 581 448 589 447 c 1
 589 305 l 1
 570 308 559 309 545 309 c 0x4c
 463 309 422 268 422 186 c 2
 422 0 l 1
 282 0 l 1
 282 314 l 1
 172 314 l 1
 172 0 l 1
 22 0 l 1
 22 729 l 1
 534 729 l 1
 534 604 l 1
 172 604 l 1
 172 439 l 1
 422 439 l 1xbc
EndSplineSet
EndChar

StartChar: uni0387
Encoding: 903 903 352
Width: 278
Flags: MW
HStem: 169 123<64 188 64 188>
VStem: 64 124<169 292 169 292>
LayerCount: 2
Fore
SplineSet
64 292 m 1
 188 292 l 1
 188 169 l 1
 64 169 l 1
 64 292 l 1
EndSplineSet
EndChar

StartChar: uni2219
Encoding: 8729 8729 353
Width: 278
Flags: MW
HStem: 169 123<64 188 64 188>
VStem: 64 124<169 292 169 292>
LayerCount: 2
Fore
SplineSet
64 292 m 1
 188 292 l 1
 188 169 l 1
 64 169 l 1
 64 292 l 1
EndSplineSet
EndChar

StartChar: uni00AD
Encoding: 173 173 354
Width: 333
Flags: MW
HStem: 207 135<26 298 26 298>
LayerCount: 2
Fore
SplineSet
298 342 m 1
 298 207 l 1
 26 207 l 1
 26 342 l 1
 298 342 l 1
EndSplineSet
EndChar

